<?xml version="1.0" encoding="UTF-8" standalone="no"?>
<svg
   xmlns:dc="http://purl.org/dc/elements/1.1/"
   xmlns:cc="http://creativecommons.org/ns#"
   xmlns:rdf="http://www.w3.org/1999/02/22-rdf-syntax-ns#"
   xmlns:svg="http://www.w3.org/2000/svg"
   xmlns="http://www.w3.org/2000/svg"
   xmlns:sodipodi="http://sodipodi.sourceforge.net/DTD/sodipodi-0.dtd"
   xmlns:inkscape="http://www.inkscape.org/namespaces/inkscape"
   viewBox="0 0 1088.17 268.547"
   version="1.1"
   id="svg22"
   sodipodi:docname="logo_pixel.svg"
   inkscape:version="1.0.2-2 (e86c870879, 2021-01-15)">
  <metadata
     id="metadata32">
    <rdf:RDF>
      <cc:Work
         rdf:about="">
        <dc:format>image/svg+xml</dc:format>
        <dc:type
           rdf:resource="http://purl.org/dc/dcmitype/StillImage" />
        <dc:title></dc:title>
      </cc:Work>
    </rdf:RDF>
  </metadata>
  <defs
     id="defs26" />
  <sodipodi:namedview
     id="namedview24"
     pagecolor="#ffffff"
     bordercolor="#666666"
     borderopacity="1.0"
     inkscape:pageshadow="2"
     inkscape:pageopacity="0.0"
     inkscape:pagecheckerboard="0"
     showgrid="false"
     inkscape:zoom="3.7715135"
     inkscape:cx="192.65167"
     inkscape:cy="184.29556"
     inkscape:window-width="1904"
     inkscape:window-height="1041"
     inkscape:window-x="0"
     inkscape:window-y="0"
     inkscape:window-maximized="0"
     inkscape:current-layer="layer2"
     inkscape:document-rotation="0" />
  <g
     fill="#1c3f6e"
     id="g14" />
  <g
     inkscape:groupmode="layer"
     id="layer2"
     inkscape:label="Layer 1"
     style="display:inline">
    <path
       d="m 105.422,179.847 c -5.6,1.2 -14.105,1.391 -17.146,-1.827 -3.041,-3.218 -4.56,-9.658 -4.56,-19.318 v -50.088 h 31.309 v -21.2 H 83.716 V 62.8 A 11.148,11.148 0 0 0 72.568,51.655 H 56.082 v 103.291 q 0,26.3 9.793,38.5 a 31.125,31.125 0 0 0 15.091,10 49.453,49.453 0 0 0 23.278,1.479 c 0.99,-0.179 1.977,-0.382 2.961,-0.6 a 17.338,17.338 0 0 0 6.423,-2.389 11.286,11.286 0 0 0 4.115,-5.956 c 1.386,-4.509 1.176,-11.16 -2.611,-14.524 -2.646,-2.35 -6.443,-2.308 -9.71,-1.609 z"
       id="path2-7"
       style="fill:none;fill-opacity:1;stroke:#000000;stroke-opacity:1" />
  </g>
  <g
     inkscape:groupmode="layer"
     id="g1076"
     inkscape:label="Layer 2-in"
     style="display:inline">
    <path
       d="m 222.078,135.379 c 0.0139,-3.46955 -0.49546,-6.92137 -1.511,-10.239 -1.94896,-6.55217 -6.72987,-11.88713 -13.03,-14.54 -3.72027,-1.54724 -7.72281,-2.29999 -11.751,-2.21 -8.37867,0 -15.477,2.52133 -21.295,7.564 -5.73944,4.8849 -9.22903,11.90636 -9.657,19.431 z"
       id="path1064"
       style="fill:none;fill-opacity:1;stroke:#000000;stroke-opacity:1"
       sodipodi:nodetypes="ccccccc" />
  </g>
  <g
     inkscape:groupmode="layer"
     id="g861"
     inkscape:label="Layer 2-out"
     style="display:inline">
    <path
       d="m 250.01,151.671 c -0.002,1.24498 -0.0804,2.48865 -0.235,3.724 h -84.941 c 0.26115,3.8647 1.33235,7.63125 3.144,11.055 1.76566,3.31658 4.18018,6.24428 7.1,8.609 3.00037,2.43613 6.38122,4.36186 10.007,5.7 3.72028,1.39661 7.66323,2.10612 11.637,2.094 6.98133,0 12.87633,-1.27933 17.685,-3.838 2.02928,-1.07664 3.94294,-2.35833 5.711,-3.825 4.01777,-3.48754 9.94118,-3.64631 14.14,-0.379 l 10.635,8.508 c -11.018,14.89533 -26.99767,22.342 -47.939,22.34 -8.16922,0.0881 -16.28792,-1.2908 -23.97,-4.071 -7.02172,-2.54776 -13.46818,-6.46335 -18.966,-11.52 -5.45783,-5.11206 -9.7458,-11.34377 -12.57,-18.268 -3.13767,-7.79869 -4.68105,-16.14698 -4.539,-24.552 -0.11206,-8.40185 1.43024,-16.74364 4.539,-24.55 5.60915,-14.22391 16.91795,-25.449299 31.183,-30.953 7.45083,-2.910343 15.38924,-4.369858 23.388,-4.3 7.35149,-0.07339 14.65191,1.228302 21.525,3.838 6.47539,2.48388 12.31665,6.378058 17.1,11.4 5.03793,5.42558 8.8832,11.84652 11.288,18.849 2.71067,7.52667 4.06833,16.33133 4.0755,26.415 z"
       id="path859"
       style="fill:none;fill-opacity:1;stroke:#000000;stroke-opacity:1"
       sodipodi:nodetypes="cccccccccccccccccccccccc" />
  </g>
  <g
     inkscape:groupmode="layer"
     id="g880"
     inkscape:label="Layer 3-in"
     style="display:inline">
    <path
       d="m 359.635,159.589 c -1.42378,4.25724 -3.63631,8.20839 -6.522,11.647 -2.89083,3.43073 -6.41062,6.27745 -10.37,8.387 -4.23506,2.22225 -8.96102,3.34364 -13.743,3.261 -4.92113,0.11564 -9.79697,-0.96316 -14.21,-3.144 -3.90408,-1.99068 -7.3233,-4.81454 -10.016,-8.272 -2.65935,-3.45331 -4.67209,-7.35919 -5.941,-11.529 -1.30621,-4.18602 -1.97438,-8.54493 -1.982,-12.93 0.0125,-4.42271 0.68038,-8.81915 1.982,-13.046 1.2497,-4.21428 3.2635,-8.1629 5.941,-11.649 2.70796,-3.47203 6.1218,-6.32996 10.016,-8.385 8.81034,-4.30921 19.1076,-4.35268 27.954,-0.118 3.97136,2.04141 7.49655,4.85306 10.37,8.271 2.86983,3.40626 5.08141,7.31636 6.522,11.531 1.45748,4.15573 2.20525,8.5271 2.212,12.931 -0.0142,4.44054 -0.76188,8.84823 -2.213,13.045 z"
       fill="#1c3f6e"
       id="path876"
       style="fill:none;fill-opacity:1;stroke:#000000;stroke-opacity:1"
       sodipodi:nodetypes="cccccccccccccccc" />
  </g>
  <g
     inkscape:groupmode="layer"
     id="g954"
     inkscape:label="Layer 3-out"
     style="display:inline">
    <path
       d="m 389.976,147.009 c 0.10615,-8.31698 -1.52036,-16.56497 -4.776,-24.219 -3.00915,-7.05277 -7.40482,-13.42898 -12.926,-18.75 -5.5832,-5.299167 -12.15057,-9.453078 -19.331,-12.227 -15.28636,-5.898674 -32.22064,-5.898674 -47.507,0 -7.17928,2.775614 -13.74602,6.929334 -19.33,12.227 -5.51866,5.32316 -9.91396,11.69882 -12.926,18.75 -3.25342,7.65468 -4.87951,15.90227 -4.775,24.219 -0.0628,7.86157 1.27895,15.67118 3.962,23.061 2.48252,6.87967 6.28087,13.21013 11.183,18.638 10.02291,10.9895 24.2623,17.175 39.135,17 4.76139,0.049 9.51202,-0.46219 14.154,-1.523 3.75686,-0.87754 7.4137,-2.13849 10.913,-3.763 2.84912,-1.3282 5.54391,-2.965 8.036,-4.881 1.98689,-1.5279 3.83354,-3.22998 5.518,-5.086 h 0.72 v 1.164 h 0.009 v 0.322 c 0,5.79512 4.69788,10.493 10.493,10.493 h 17.442 z"
       fill="#1c3f6e"
       id="path952"
       style="fill:none;fill-opacity:1;stroke:#000000;stroke-opacity:1"
       sodipodi:nodetypes="ccccccccccccccccccsscc" />
  </g>
  <g
     inkscape:groupmode="layer"
     id="g1402"
     inkscape:label="Layer 4"
     style="display:inline">
    <path
       d="m 418.918,205.7 a 10.493,10.493 0 0 1 -10.493,-10.5 v -57.909 q 0,-49.9 44.536,-49.9 28.638,0 38.321,22.7 a 0.046,0.046 0 0 0 0.087,0 q 9.412,-22.7 38.324,-22.7 44.266,0 44.266,49.9 v 68.361 a 0.045,0.045 0 0 1 -0.045,0.045 h -16.448 a 11.141,11.141 0 0 1 -11.141,-11.14 v -58.875 q 0,-12.879 -5.766,-18.782 a 19.6,19.6 0 0 0 -14.622,-5.9 20.485,20.485 0 0 0 -14.891,5.9 q -6.036,5.907 -6.036,18.782 v 58.852 A 11.163,11.163 0 0 1 493.847,205.7 h -16.426 a 0.045,0.045 0 0 1 -0.045,-0.045 v -69.97 q 0,-12.879 -5.9,-18.782 a 21.4,21.4 0 0 0 -29.511,0 q -5.907,5.907 -5.9,18.782 v 69.97 a 0.045,0.045 0 0 1 -0.045,0.045 z"
       id="path1394"
       style="fill:none;fill-opacity:1;stroke:#000000;stroke-opacity:1" />
  </g>
  <g
     inkscape:groupmode="layer"
     id="g1422"
     inkscape:label="Layer 5"
     style="display:inline">
    <path
       id="path1416"
       d="m 628.224,205.547 a 17.900999,17.900999 0 0 1 -17.901,17.901 17.900999,17.900999 0 0 1 -17.901,-17.901 17.900999,17.900999 0 0 1 17.901,-17.901 17.900999,17.900999 0 0 1 17.901,17.901 z"
       style="fill:none;stroke:#000000;stroke-opacity:1" />
  </g>
  <g
     inkscape:groupmode="layer"
     id="g1442"
     inkscape:label="Layer 6-in"
     style="display:inline">
    <path
       d="m 701.96,159.128 c -1.2506,4.21361 -3.26432,8.16175 -5.941,11.648 -2.70735,3.47326 -6.12173,6.3317 -10.017,8.386 -8.81066,4.30816 -19.10758,4.35125 -27.954,0.117 -3.97076,-2.04013 -7.49481,-4.85162 -10.366,-8.27 -2.87088,-3.40644 -5.08286,-7.31734 -6.523,-11.533 -1.45841,-4.15455 -2.2072,-8.52492 -2.215,-12.928 0.0148,-4.44033 0.7632,-8.84769 2.215,-13.044 1.42309,-4.25806 3.63606,-8.20971 6.523,-11.648 2.89019,-3.42979 6.40848,-6.27639 10.366,-8.387 4.23514,-2.22225 8.96093,-3.3443 13.743,-3.263 4.92186,-0.11635 9.79842,0.96356 14.211,3.147 3.90494,1.98849 7.32472,4.81151 10.017,8.269 2.65866,3.45522 4.6713,7.36228 5.941,11.533 1.3054,4.18515 1.97322,8.543 1.981,12.927 -0.0113,4.42242 -0.67754,8.81879 -1.977,13.046 z"
       fill="#1c3f6e"
       id="path1440"
       style="fill:none;fill-opacity:1;stroke:#000000;stroke-opacity:1"
       sodipodi:nodetypes="ccccccccccccccccc" />
  </g>
  <g
     inkscape:groupmode="layer"
     id="g1033"
     inkscape:label="Layer 6-out"
     style="display:inline">
    <path
       d="m 728.4,123.021 c -2.48387,-6.87911 -6.28168,-13.20959 -11.182,-18.639 -10.024,-10.989164 -24.26277,-17.176059 -39.136,-17.005 -4.74996,-0.04269 -9.49187,0.399598 -14.152,1.32 -3.72994,0.751791 -7.38369,1.841623 -10.916,3.256 -2.8141,1.131562 -5.50593,2.546162 -8.034,4.222 -1.96414,1.303354 -3.81081,2.775604 -5.519,4.4 h -0.719 V 62.8 c 5.5e-4,-6.152681 -4.98732,-11.140552 -11.14,-11.14 H 610.8 v 117.89 c 13.822,0.183 26.972,8.448 32.355,21.212 2.00402,4.73379 5.49221,8.68806 9.939,11.267 5.2,2.878 12.668,3.216 17.573,3.523 3.05251,0.22549 6.11749,0.22549 9.17,0 3.32048,-0.32952 6.59436,-1.02508 9.762,-2.074 0.318,-0.10067 0.63467,-0.204 0.95,-0.31 8.98591,-2.85779 17.22331,-7.67931 24.115,-14.115 5.51977,-5.32316 9.91491,-11.70011 12.925,-18.753 3.25431,-7.65473 4.8801,-15.9029 4.774,-24.22 0.0614,-7.8609 -1.28064,-15.66966 -3.963,-23.059 z"
       fill="#1c3f6e"
       id="path1031"
       style="fill:none;fill-opacity:1;stroke:#000000;stroke-opacity:1"
       sodipodi:nodetypes="cccccccccccccccccccccc" />
  </g>
  <g
     inkscape:groupmode="layer"
     id="g1462"
     inkscape:label="Layer 7"
     style="display:inline">
    <path
       d="M 778.715,205.7 H 761.91 A 11.139,11.139 0 0 1 750.77,194.56 V 62.8 a 11.14,11.14 0 0 1 11.14,-11.141 h 16.805 z"
       id="path1448"
       style="fill:none;fill-opacity:1;stroke:#000000;stroke-opacity:1" />
  </g>
  <g
     inkscape:groupmode="layer"
     id="g1482"
     inkscape:label="Layer 8"
     style="display:inline">
    <path
       d="m 824.765,87.463 v 63.158 q 0,30.628 26.33,30.628 26.063,0 26.061,-30.628 V 87.463 h 27.674 v 63.158 q 0,24.987 -13.165,40.032 -13.165,15.045 -40.565,15.047 -27.67,0 -40.7,-15.046 -13.03,-15.046 -13.04,-40.033 V 98.6 A 11.14,11.14 0 0 1 808.5,87.46 Z"
       id="path1406"
       style="display:inline;fill:none;fill-opacity:1;stroke:#000000;stroke-opacity:1" />
  </g>
  <g
     inkscape:groupmode="layer"
     id="g1502"
     inkscape:label="Layer 9-in"
     style="display:inline">
    <path
       d="m 1008.366,135.4 c 0.014,-3.46993 -0.4961,-6.92208 -1.512,-10.24 -1.949,-6.5546 -6.7316,-11.89155 -13.034,-14.545 -3.7202,-1.54758 -7.72274,-2.30068 -11.751,-2.211 -8.37867,0 -15.477,2.52133 -21.295,7.564 -5.73921,4.88562 -9.229,11.90713 -9.658,19.432 z"
       id="path1492"
       style="fill:none;fill-opacity:1;stroke:#000000;stroke-opacity:1"
       sodipodi:nodetypes="ccccccc" />
  </g>
  <g
     inkscape:groupmode="layer"
     id="g1115"
     inkscape:label="Layer 9-out"
     style="display:inline">
    <path
       d="m 1036.293,151.691 c 0,1.24501 -0.081,2.48872 -0.236,3.724 h -84.941 c 0.26115,3.8647 1.33235,7.63125 3.144,11.055 1.76629,3.31616 4.18072,6.24373 7.1,8.609 3.00037,2.43613 6.38122,4.36186 10.007,5.7 3.71911,1.39592 7.66056,2.10574 11.633,2.095 6.982,0 12.877,-1.27933 17.685,-3.838 2.0296,-1.07663 3.9436,-2.35832 5.712,-3.825 4.0173,-3.48778 9.9406,-3.64655 14.139,-0.379 l 10.635,8.507 c -11.0173,14.896 -26.9967,22.343 -47.938,22.341 -8.16922,0.0881 -16.28794,-1.29072 -23.97,-4.071 -7.02102,-2.54783 -13.46654,-6.46382 -18.963,-11.521 -5.45658,-5.1119 -9.7432,-11.3433 -12.566,-18.267 -3.13806,-7.79857 -4.68145,-16.14695 -4.539,-24.552 -0.11253,-8.40221 1.42978,-16.74442 4.539,-24.551 5.60885,-14.22354 16.91733,-25.448608 31.182,-30.952 7.45107,-2.910729 15.38988,-4.370256 23.389,-4.3 7.35139,-0.07324 14.65172,1.228098 21.525,3.837 6.4774,2.485133 12.3204,6.381021 17.105,11.405 5.0376,5.42568 8.8825,11.84661 11.287,18.849 2.7107,7.52667 4.0687,16.331 4.0725,26.4115 z"
       id="path1113"
       style="fill:none;fill-opacity:1;stroke:#000000;stroke-opacity:1"
       sodipodi:nodetypes="cccccccccccccccccccccccc" />
  </g>
</svg>
