999
"DXF R12 Output" (www.mydxf.blogspot.com)
 0 
SECTION
 2 
HEADER
 9 
$ACADVER
 1 
AC1009
 9 
$EXTMIN
 10 
 0 
 20 
 0 
 9 
$EXTMAX
 10 
 8.5 
 20 
 11 
 0 
ENDSEC
 0 
SECTION
 2 
ENTITIES
0
LINE
8
Layer 1
10
29.752400
20
25.033100
11
28.450251
21
24.843077
0
LINE
8
Layer 1
10
28.450251
20
24.843077
11
27.062085
21
24.823339
0
LINE
8
Layer 1
10
27.062085
20
24.823339
11
25.809331
21
25.037386
0
LINE
8
Layer 1
10
25.809331
20
25.037386
11
24.913420
21
25.548720
0
LINE
8
Layer 1
10
24.913420
20
25.548720
11
24.350268
21
26.400351
0
LINE
8
Layer 1
10
24.350268
20
26.400351
11
23.948116
21
27.592924
0
LINE
8
Layer 1
10
23.948116
20
27.592924
11
23.706883
21
29.126385
0
LINE
8
Layer 1
10
23.706883
20
29.126385
11
23.626490
21
31.000680
0
LINE
8
Layer 1
10
23.626490
20
31.000680
11
23.626500
21
45.136600
0
LINE
8
Layer 1
10
23.626500
20
45.136600
11
32.462600
21
45.136600
0
LINE
8
Layer 1
10
32.462600
20
45.136600
11
32.462600
21
51.119700
0
LINE
8
Layer 1
10
32.462600
20
51.119700
11
23.626500
21
51.119700
0
LINE
8
Layer 1
10
23.626500
20
51.119700
11
23.626500
21
58.066400
0
LINE
8
Layer 1
10
23.626500
20
58.066400
11
23.378994
21
59.290752
0
LINE
8
Layer 1
10
23.378994
20
59.290752
11
22.704678
21
60.290515
0
LINE
8
Layer 1
10
22.704678
20
60.290515
11
21.704723
21
60.964545
0
LINE
8
Layer 1
10
21.704723
20
60.964545
11
20.480300
21
61.211700
0
LINE
8
Layer 1
10
20.480300
20
61.211700
11
15.827600
21
61.211700
0
LINE
8
Layer 1
10
15.827600
20
61.211700
11
15.827600
21
32.060700
0
LINE
8
Layer 1
10
15.827600
20
32.060700
11
16.000338
21
28.598191
0
LINE
8
Layer 1
10
16.000338
20
28.598191
11
16.518550
21
25.633105
0
LINE
8
Layer 1
10
16.518550
20
25.633105
11
17.382237
21
23.165441
0
LINE
8
Layer 1
10
17.382237
20
23.165441
11
18.591400
21
21.195200
0
LINE
8
Layer 1
10
18.591400
20
21.195200
11
19.490042
21
20.258121
0
LINE
8
Layer 1
10
19.490042
20
20.258121
11
20.511183
21
19.467599
0
LINE
8
Layer 1
10
20.511183
20
19.467599
11
21.637186
21
18.835323
0
LINE
8
Layer 1
10
21.637186
20
18.835323
11
22.850410
21
18.372980
0
LINE
8
Layer 1
10
22.850410
20
18.372980
11
24.465269
21
17.974540
0
LINE
8
Layer 1
10
24.465269
20
17.974540
11
26.110229
21
17.771412
0
LINE
8
Layer 1
10
26.110229
20
17.771412
11
27.767669
21
17.764717
0
LINE
8
Layer 1
10
27.767669
20
17.764717
11
29.419970
21
17.955574
0
LINE
8
Layer 1
10
29.419970
20
17.955574
11
30.255629
21
18.124907
0
LINE
8
Layer 1
10
30.255629
20
18.124907
11
31.195627
21
18.371569
0
LINE
8
Layer 1
10
31.195627
20
18.371569
11
32.068339
21
18.799135
0
LINE
8
Layer 1
10
32.068339
20
18.799135
11
32.787440
21
19.543948
0
LINE
8
Layer 1
10
32.787440
20
19.543948
11
33.229679
21
20.480045
0
LINE
8
Layer 1
10
33.229679
20
20.480045
11
33.429858
21
21.523857
0
LINE
8
Layer 1
10
33.429858
20
21.523857
11
33.408714
21
22.650721
0
LINE
8
Layer 1
10
33.408714
20
22.650721
11
33.113831
21
23.716995
0
LINE
8
Layer 1
10
33.113831
20
23.716995
11
32.492797
21
24.579035
0
LINE
8
Layer 1
10
32.492797
20
24.579035
11
31.879233
21
24.957526
0
LINE
8
Layer 1
10
31.879233
20
24.957526
11
31.188330
21
25.128768
0
LINE
8
Layer 1
10
31.188330
20
25.128768
11
29.752417
21
25.033130
0
LINE
8
Layer 1
10
29.752417
20
25.033130
11
29.752400
21
25.033100
0
LINE
8
Layer 2-in
10
62.675300
20
37.583000
11
62.571030
21
39.043912
0
LINE
8
Layer 2-in
10
62.571030
20
39.043912
11
62.248863
21
40.472670
0
LINE
8
Layer 2-in
10
62.248863
20
40.472670
11
61.692265
21
41.788676
0
LINE
8
Layer 2-in
10
61.692265
20
41.788676
11
60.870685
21
42.937101
0
LINE
8
Layer 2-in
10
60.870685
20
42.937101
11
59.818856
21
43.879188
0
LINE
8
Layer 2-in
10
59.818856
20
43.879188
11
58.571513
21
44.576180
0
LINE
8
Layer 2-in
10
58.571513
20
44.576180
11
56.945906
21
45.061309
0
LINE
8
Layer 2-in
10
56.945906
20
45.061309
11
55.255123
21
45.199891
0
LINE
8
Layer 2-in
10
55.255123
20
45.199891
11
53.549388
21
45.066471
0
LINE
8
Layer 2-in
10
53.549388
20
45.066471
11
51.979158
21
44.666209
0
LINE
8
Layer 2-in
10
51.979158
20
44.666209
11
50.544430
21
43.999106
0
LINE
8
Layer 2-in
10
50.544430
20
43.999106
11
49.245203
21
43.065161
0
LINE
8
Layer 2-in
10
49.245203
20
43.065161
11
48.152988
21
41.925332
0
LINE
8
Layer 2-in
10
48.152988
20
41.925332
11
47.320360
21
40.602602
0
LINE
8
Layer 2-in
10
47.320360
20
40.602602
11
46.768800
21
39.140186
0
LINE
8
Layer 2-in
10
46.768800
20
39.140186
11
46.519783
21
37.581301
0
LINE
8
Layer 2-in
10
46.519783
20
37.581301
11
62.675300
21
37.583000
0
LINE
8
Layer 2-out
10
70.558300
20
32.985000
11
70.491978
21
31.934010
0
LINE
8
Layer 2-out
10
70.491978
20
31.934010
11
46.519800
21
31.934000
0
LINE
8
Layer 2-out
10
46.519800
20
31.934000
11
46.799358
21
30.327351
0
LINE
8
Layer 2-out
10
46.799358
20
30.327351
11
47.407106
21
28.814040
0
LINE
8
Layer 2-out
10
47.407106
20
28.814040
11
48.286846
21
27.498478
0
LINE
8
Layer 2-out
10
48.286846
20
27.498478
11
49.410886
21
26.384390
0
LINE
8
Layer 2-out
10
49.410886
20
26.384390
11
50.756795
21
25.463854
0
LINE
8
Layer 2-out
10
50.756795
20
25.463854
11
52.235086
21
24.775720
0
LINE
8
Layer 2-out
10
52.235086
20
24.775720
11
53.850365
21
24.331143
0
LINE
8
Layer 2-out
10
53.850365
20
24.331143
11
55.519306
21
24.184747
0
LINE
8
Layer 2-out
10
55.519306
20
24.184747
11
58.244791
21
24.455539
0
LINE
8
Layer 2-out
10
58.244791
20
24.455539
11
59.435082
21
24.794029
0
LINE
8
Layer 2-out
10
59.435082
20
24.794029
11
60.510406
21
25.267917
0
LINE
8
Layer 2-out
10
60.510406
20
25.267917
11
62.122176
21
26.347417
0
LINE
8
Layer 2-out
10
62.122176
20
26.347417
11
63.057434
21
26.909036
0
LINE
8
Layer 2-out
10
63.057434
20
26.909036
11
64.098323
21
27.115786
0
LINE
8
Layer 2-out
10
64.098323
20
27.115786
11
65.148794
21
26.965092
0
LINE
8
Layer 2-out
10
65.148794
20
26.965092
11
66.112796
21
26.454379
0
LINE
8
Layer 2-out
10
66.112796
20
26.454379
11
69.114226
21
24.053239
0
LINE
8
Layer 2-out
10
69.114226
20
24.053239
11
67.882517
21
22.575357
0
LINE
8
Layer 2-out
10
67.882517
20
22.575357
11
66.519531
21
21.294555
0
LINE
8
Layer 2-out
10
66.519531
20
21.294555
11
65.025268
21
20.210832
0
LINE
8
Layer 2-out
10
65.025268
20
20.210832
11
63.399728
21
19.324188
0
LINE
8
Layer 2-out
10
63.399728
20
19.324188
11
61.642914
21
18.634622
0
LINE
8
Layer 2-out
10
61.642914
20
18.634622
11
59.754825
21
18.142136
0
LINE
8
Layer 2-out
10
59.754825
20
18.142136
11
57.735462
21
17.846728
0
LINE
8
Layer 2-out
10
57.735462
20
17.846728
11
55.584826
21
17.748399
0
LINE
8
Layer 2-out
10
55.584826
20
17.748399
11
53.860053
21
17.807090
0
LINE
8
Layer 2-out
10
53.860053
20
17.807090
11
52.150841
21
18.019301
0
LINE
8
Layer 2-out
10
52.150841
20
18.019301
11
50.467406
21
18.383293
0
LINE
8
Layer 2-out
10
50.467406
20
18.383293
11
48.819966
21
18.897329
0
LINE
8
Layer 2-out
10
48.819966
20
18.897329
11
47.365792
21
19.507986
0
LINE
8
Layer 2-out
10
47.365792
20
19.507986
11
45.982376
21
20.257404
0
LINE
8
Layer 2-out
10
45.982376
20
20.257404
11
44.679600
21
21.139585
0
LINE
8
Layer 2-out
10
44.679600
20
21.139585
11
43.467346
21
22.148529
0
LINE
8
Layer 2-out
10
43.467346
20
22.148529
11
42.375307
21
23.287947
0
LINE
8
Layer 2-out
10
42.375307
20
23.287947
11
41.414855
21
24.534558
0
LINE
8
Layer 2-out
10
41.414855
20
24.534558
11
40.593766
21
25.877062
0
LINE
8
Layer 2-out
10
40.593766
20
25.877062
11
39.919816
21
27.304159
0
LINE
8
Layer 2-out
10
39.919816
20
27.304159
11
39.340442
21
28.981789
0
LINE
8
Layer 2-out
10
39.340442
20
28.981789
11
38.932207
21
30.704544
0
LINE
8
Layer 2-out
10
38.932207
20
30.704544
11
38.697525
21
32.459384
0
LINE
8
Layer 2-out
10
38.697525
20
32.459384
11
38.638806
21
34.233269
0
LINE
8
Layer 2-out
10
38.638806
20
34.233269
11
38.702242
21
36.006386
0
LINE
8
Layer 2-out
10
38.702242
20
36.006386
11
38.938439
21
37.760566
0
LINE
8
Layer 2-out
10
38.938439
20
37.760566
11
39.345072
21
39.483236
0
LINE
8
Layer 2-out
10
39.345072
20
39.483236
11
39.919816
21
41.161819
0
LINE
8
Layer 2-out
10
39.919816
20
41.161819
11
40.587341
21
42.626012
0
LINE
8
Layer 2-out
10
40.587341
20
42.626012
11
41.396596
21
44.001864
0
LINE
8
Layer 2-out
10
41.396596
20
44.001864
11
42.338507
21
45.280367
0
LINE
8
Layer 2-out
10
42.338507
20
45.280367
11
43.404001
21
46.452515
0
LINE
8
Layer 2-out
10
43.404001
20
46.452515
11
44.584005
21
47.509303
0
LINE
8
Layer 2-out
10
44.584005
20
47.509303
11
45.869446
21
48.441724
0
LINE
8
Layer 2-out
10
45.869446
20
48.441724
11
47.251251
21
49.240771
0
LINE
8
Layer 2-out
10
47.251251
20
49.240771
11
48.720346
21
49.897439
0
LINE
8
Layer 2-out
10
48.720346
20
49.897439
11
50.321355
21
50.436342
0
LINE
8
Layer 2-out
10
50.321355
20
50.436342
11
51.962661
21
50.819620
0
LINE
8
Layer 2-out
10
51.962661
20
50.819620
11
53.632962
21
51.045195
0
LINE
8
Layer 2-out
10
53.632962
20
51.045195
11
55.320956
21
51.110989
0
LINE
8
Layer 2-out
10
55.320956
20
51.110989
11
58.409000
21
50.853365
0
LINE
8
Layer 2-out
10
58.409000
20
50.853365
11
61.395786
21
50.027819
0
LINE
8
Layer 2-out
10
61.395786
20
50.027819
11
62.730986
21
49.428682
0
LINE
8
Layer 2-out
10
62.730986
20
49.428682
11
63.987860
21
48.687764
0
LINE
8
Layer 2-out
10
63.987860
20
48.687764
11
65.155197
21
47.812541
0
LINE
8
Layer 2-out
10
65.155197
20
47.812541
11
66.221786
21
46.810489
0
LINE
8
Layer 2-out
10
66.221786
20
46.810489
11
67.223940
21
45.611228
0
LINE
8
Layer 2-out
10
67.223940
20
45.611228
11
68.093316
21
44.317575
0
LINE
8
Layer 2-out
10
68.093316
20
44.317575
11
68.823357
21
42.940479
0
LINE
8
Layer 2-out
10
68.823357
20
42.940479
11
69.407506
21
41.490889
0
LINE
8
Layer 2-out
10
69.407506
20
41.490889
11
69.909678
21
39.830115
0
LINE
8
Layer 2-out
10
69.909678
20
39.830115
11
70.268724
21
38.034059
0
LINE
8
Layer 2-out
10
70.268724
20
38.034059
11
70.484711
21
36.102696
0
LINE
8
Layer 2-out
10
70.484711
20
36.102696
11
70.557706
21
34.035999
0
LINE
8
Layer 2-out
10
70.557706
20
34.035999
11
70.558300
21
32.985000
0
LINE
8
Layer 3-in
10
101.497000
20
30.750400
11
100.731392
21
29.020240
0
LINE
8
Layer 3-in
10
100.731392
20
29.020240
11
99.656350
21
27.463360
0
LINE
8
Layer 3-in
10
99.656350
20
27.463360
11
98.306117
21
26.140039
0
LINE
8
Layer 3-in
10
98.306117
20
26.140039
11
96.729710
21
25.096360
0
LINE
8
Layer 3-in
10
96.729710
20
25.096360
11
94.848301
21
24.392263
0
LINE
8
Layer 3-in
10
94.848301
20
24.392263
11
92.851130
21
24.176034
0
LINE
8
Layer 3-in
10
92.851130
20
24.176034
11
90.792170
21
24.376643
0
LINE
8
Layer 3-in
10
90.792170
20
24.376643
11
88.840760
21
25.063340
0
LINE
8
Layer 3-in
10
88.840760
20
25.063340
11
87.299185
21
26.075376
0
LINE
8
Layer 3-in
10
87.299185
20
26.075376
11
86.014020
21
27.397880
0
LINE
8
Layer 3-in
10
86.014020
20
27.397880
11
85.028524
21
28.948921
0
LINE
8
Layer 3-in
10
85.028524
20
28.948921
11
84.337340
21
30.651620
0
LINE
8
Layer 3-in
10
84.337340
20
30.651620
11
83.920224
21
32.455121
0
LINE
8
Layer 3-in
10
83.920224
20
32.455121
11
83.777976
21
34.300750
0
LINE
8
Layer 3-in
10
83.777976
20
34.300750
11
83.921226
21
36.162415
0
LINE
8
Layer 3-in
10
83.921226
20
36.162415
11
84.337340
21
37.982620
0
LINE
8
Layer 3-in
10
84.337340
20
37.982620
11
85.024571
21
39.703486
0
LINE
8
Layer 3-in
10
85.024571
20
39.703486
11
86.014020
21
41.270220
0
LINE
8
Layer 3-in
10
86.014020
20
41.270220
11
87.301846
21
42.603399
0
LINE
8
Layer 3-in
10
87.301846
20
42.603399
11
88.840760
21
43.636650
0
LINE
8
Layer 3-in
10
88.840760
20
43.636650
11
90.771342
21
44.322980
0
LINE
8
Layer 3-in
10
90.771342
20
44.322980
11
92.781561
21
44.557527
0
LINE
8
Layer 3-in
10
92.781561
20
44.557527
11
94.793688
21
44.339960
0
LINE
8
Layer 3-in
10
94.793688
20
44.339960
11
96.729990
21
43.669952
0
LINE
8
Layer 3-in
10
96.729990
20
43.669952
11
98.309508
21
42.648506
0
LINE
8
Layer 3-in
10
98.309508
20
42.648506
11
99.656630
21
41.335692
0
LINE
8
Layer 3-in
10
99.656630
20
41.335692
11
100.728218
21
39.794094
0
LINE
8
Layer 3-in
10
100.728218
20
39.794094
11
101.497280
21
38.081392
0
LINE
8
Layer 3-in
10
101.497280
20
38.081392
11
101.962953
21
36.282948
0
LINE
8
Layer 3-in
10
101.962953
20
36.282948
11
102.121555
21
34.431982
0
LINE
8
Layer 3-in
10
102.121555
20
34.431982
11
101.961350
21
32.565387
0
LINE
8
Layer 3-in
10
101.961350
20
32.565387
11
101.496998
21
30.750392
0
LINE
8
Layer 3-in
10
101.496998
20
30.750392
11
101.497000
21
30.750400
0
LINE
8
Layer 3-out
10
110.060000
20
34.300700
11
109.991238
21
36.055158
0
LINE
8
Layer 3-out
10
109.991238
20
36.055158
11
109.741843
21
37.788427
0
LINE
8
Layer 3-out
10
109.741843
20
37.788427
11
109.314554
21
39.486615
0
LINE
8
Layer 3-out
10
109.314554
20
39.486615
11
108.712110
21
41.135830
0
LINE
8
Layer 3-out
10
108.712110
20
41.135830
11
108.002955
21
42.591195
0
LINE
8
Layer 3-out
10
108.002955
20
42.591195
11
107.153967
21
43.964937
0
LINE
8
Layer 3-out
10
107.153967
20
43.964937
11
106.172050
21
45.247041
0
LINE
8
Layer 3-out
10
106.172050
20
45.247041
11
105.064110
21
46.427490
0
LINE
8
Layer 3-out
10
105.064110
20
46.427490
11
103.831892
21
47.487508
0
LINE
8
Layer 3-out
10
103.831892
20
47.487508
11
102.505334
21
48.420110
0
LINE
8
Layer 3-out
10
102.505334
20
48.420110
11
101.094256
21
49.219085
0
LINE
8
Layer 3-out
10
101.094256
20
49.219085
11
99.608480
21
49.878220
0
LINE
8
Layer 3-out
10
99.608480
20
49.878220
11
97.970690
21
50.424463
0
LINE
8
Layer 3-out
10
97.970690
20
50.424463
11
96.300201
21
50.814636
0
LINE
8
Layer 3-out
10
96.300201
20
50.814636
11
94.607911
21
51.048740
0
LINE
8
Layer 3-out
10
94.607911
20
51.048740
11
92.904722
21
51.126775
0
LINE
8
Layer 3-out
10
92.904722
20
51.126775
11
91.201535
21
51.048740
0
LINE
8
Layer 3-out
10
91.201535
20
51.048740
11
89.509248
21
50.814636
0
LINE
8
Layer 3-out
10
89.509248
20
50.814636
11
87.838763
21
50.424463
0
LINE
8
Layer 3-out
10
87.838763
20
50.424463
11
86.200980
21
49.878220
0
LINE
8
Layer 3-out
10
86.200980
20
49.878220
11
84.715413
21
49.218824
0
LINE
8
Layer 3-out
10
84.715413
20
49.218824
11
83.304469
21
48.419773
0
LINE
8
Layer 3-out
10
83.304469
20
48.419773
11
81.977942
21
47.487263
0
LINE
8
Layer 3-out
10
81.977942
20
47.487263
11
80.745630
21
46.427490
0
LINE
8
Layer 3-out
10
80.745630
20
46.427490
11
79.638104
21
45.246725
0
LINE
8
Layer 3-out
10
79.638104
20
45.246725
11
78.656344
21
43.964544
0
LINE
8
Layer 3-out
10
78.656344
20
43.964544
11
77.807227
21
42.590921
0
LINE
8
Layer 3-out
10
77.807227
20
42.590921
11
77.097630
21
41.135830
0
LINE
8
Layer 3-out
10
77.097630
20
41.135830
11
76.495557
21
39.486525
0
LINE
8
Layer 3-out
10
76.495557
20
39.486525
11
76.068442
21
37.788330
0
LINE
8
Layer 3-out
10
76.068442
20
37.788330
11
75.819019
21
36.055102
0
LINE
8
Layer 3-out
10
75.819019
20
36.055102
11
75.750020
21
34.300700
0
LINE
8
Layer 3-out
10
75.750020
20
34.300700
11
76.018499
21
30.996612
0
LINE
8
Layer 3-out
10
76.018499
20
30.996612
11
76.868180
21
27.792380
0
LINE
8
Layer 3-out
10
76.868180
20
27.792380
11
77.462341
21
26.366807
0
LINE
8
Layer 3-out
10
77.462341
20
26.366807
11
78.190150
21
25.008706
0
LINE
8
Layer 3-out
10
78.190150
20
25.008706
11
79.045996
21
23.727430
0
LINE
8
Layer 3-out
10
79.045996
20
23.727430
11
80.024270
21
22.532330
0
LINE
8
Layer 3-out
10
80.024270
20
22.532330
11
81.138834
21
21.433686
0
LINE
8
Layer 3-out
10
81.138834
20
21.433686
11
82.353107
21
20.467296
0
LINE
8
Layer 3-out
10
82.353107
20
20.467296
11
83.655241
21
19.638308
0
LINE
8
Layer 3-out
10
83.655241
20
19.638308
11
85.033385
21
18.951869
0
LINE
8
Layer 3-out
10
85.033385
20
18.951869
11
86.475690
21
18.413127
0
LINE
8
Layer 3-out
10
86.475690
20
18.413127
11
87.970305
21
18.027230
0
LINE
8
Layer 3-out
10
87.970305
20
18.027230
11
89.505382
21
17.799325
0
LINE
8
Layer 3-out
10
89.505382
20
17.799325
11
91.069070
21
17.734560
0
LINE
8
Layer 3-out
10
91.069070
20
17.734560
11
93.078993
21
17.832017
0
LINE
8
Layer 3-out
10
93.078993
20
17.832017
11
95.063640
21
18.164384
0
LINE
8
Layer 3-out
10
95.063640
20
18.164384
11
96.630844
21
18.616330
0
LINE
8
Layer 3-out
10
96.630844
20
18.616330
11
98.143530
21
19.226384
0
LINE
8
Layer 3-out
10
98.143530
20
19.226384
11
100.411470
21
20.603914
0
LINE
8
Layer 3-out
10
100.411470
20
20.603914
11
101.968770
21
22.039294
0
LINE
8
Layer 3-out
10
101.968770
20
22.039294
11
102.172000
21
22.039300
0
LINE
8
Layer 3-out
10
102.172000
20
22.039300
11
102.172000
21
21.710800
0
LINE
8
Layer 3-out
10
102.172000
20
21.710800
11
102.174000
21
21.710800
0
LINE
8
Layer 3-out
10
102.174000
20
21.710800
11
102.174000
21
21.619900
0
LINE
8
Layer 3-out
10
102.174000
20
21.619900
11
102.406719
21
20.467207
0
LINE
8
Layer 3-out
10
102.406719
20
20.467207
11
103.041364
21
19.525904
0
LINE
8
Layer 3-out
10
103.041364
20
19.525904
11
103.982667
21
18.891259
0
LINE
8
Layer 3-out
10
103.982667
20
18.891259
11
105.135360
21
18.658540
0
LINE
8
Layer 3-out
10
105.135360
20
18.658540
11
110.058000
21
18.658600
0
LINE
8
Layer 3-out
10
110.058000
20
18.658600
11
110.060000
21
34.300700
0
LINE
8
Layer 4
10
118.228000
20
17.736800
11
117.094281
21
17.962408
0
LINE
8
Layer 4
10
117.094281
20
17.962408
11
116.133305
21
18.604859
0
LINE
8
Layer 4
10
116.133305
20
18.604859
11
115.491494
21
19.566262
0
LINE
8
Layer 4
10
115.491494
20
19.566262
11
115.266640
21
20.700130
0
LINE
8
Layer 4
10
115.266640
20
20.700130
11
115.267000
21
37.043400
0
LINE
8
Layer 4
10
115.267000
20
37.043400
11
115.463391
21
40.344080
0
LINE
8
Layer 4
10
115.463391
20
40.344080
11
116.052562
21
43.204669
0
LINE
8
Layer 4
10
116.052562
20
43.204669
11
117.034516
21
45.625167
0
LINE
8
Layer 4
10
117.034516
20
45.625167
11
118.409250
21
47.605575
0
LINE
8
Layer 4
10
118.409250
20
47.605575
11
120.176766
21
49.145892
0
LINE
8
Layer 4
10
120.176766
20
49.145892
11
122.337063
21
50.246119
0
LINE
8
Layer 4
10
122.337063
20
50.246119
11
124.890141
21
50.906255
0
LINE
8
Layer 4
10
124.890141
20
50.906255
11
127.836000
21
51.126300
0
LINE
8
Layer 4
10
127.836000
20
51.126300
11
129.772981
21
51.026199
0
LINE
8
Layer 4
10
129.772981
20
51.026199
11
131.542789
21
50.725898
0
LINE
8
Layer 4
10
131.542789
20
50.725898
11
133.145423
21
50.225394
0
LINE
8
Layer 4
10
133.145423
20
50.225394
11
134.580885
21
49.524690
0
LINE
8
Layer 4
10
134.580885
20
49.524690
11
135.849173
21
48.623784
0
LINE
8
Layer 4
10
135.849173
20
48.623784
11
136.950289
21
47.522678
0
LINE
8
Layer 4
10
136.950289
20
47.522678
11
137.884231
21
46.221369
0
LINE
8
Layer 4
10
137.884231
20
46.221369
11
138.651000
21
44.719860
0
LINE
8
Layer 4
10
138.651000
20
44.719860
11
138.663277
21
44.711099
0
LINE
8
Layer 4
10
138.663277
20
44.711099
11
138.675553
21
44.719860
0
LINE
8
Layer 4
10
138.675553
20
44.719860
11
139.425611
21
46.221369
0
LINE
8
Layer 4
10
139.425611
20
46.221369
11
140.347648
21
47.522678
0
LINE
8
Layer 4
10
140.347648
20
47.522678
11
141.441666
21
48.623784
0
LINE
8
Layer 4
10
141.441666
20
48.623784
11
142.707663
21
49.524690
0
LINE
8
Layer 4
10
142.707663
20
49.524690
11
144.145641
21
50.225394
0
LINE
8
Layer 4
10
144.145641
20
50.225394
11
145.755598
21
50.725898
0
LINE
8
Layer 4
10
145.755598
20
50.725898
11
147.537536
21
51.026199
0
LINE
8
Layer 4
10
147.537536
20
51.026199
11
149.491453
21
51.126300
0
LINE
8
Layer 4
10
149.491453
20
51.126300
11
152.419453
21
50.906255
0
LINE
8
Layer 4
10
152.419453
20
50.906255
11
154.957053
21
50.246119
0
LINE
8
Layer 4
10
154.957053
20
50.246119
11
157.104253
21
49.145892
0
LINE
8
Layer 4
10
157.104253
20
49.145892
11
158.861053
21
47.605575
0
LINE
8
Layer 4
10
158.861053
20
47.605575
11
160.227453
21
45.625167
0
LINE
8
Layer 4
10
160.227453
20
45.625167
11
161.203453
21
43.204669
0
LINE
8
Layer 4
10
161.203453
20
43.204669
11
161.789053
21
40.344080
0
LINE
8
Layer 4
10
161.789053
20
40.344080
11
161.984253
21
37.043400
0
LINE
8
Layer 4
10
161.984253
20
37.043400
11
161.984000
21
17.750400
0
LINE
8
Layer 4
10
161.984000
20
17.750400
11
161.980280
21
17.741420
0
LINE
8
Layer 4
10
161.980280
20
17.741420
11
161.971300
21
17.737700
0
LINE
8
Layer 4
10
161.971300
20
17.737700
11
157.329000
21
17.737700
0
LINE
8
Layer 4
10
157.329000
20
17.737700
11
156.105190
21
17.984761
0
LINE
8
Layer 4
10
156.105190
20
17.984761
11
155.105789
21
18.658524
0
LINE
8
Layer 4
10
155.105789
20
18.658524
11
154.431933
21
19.657863
0
LINE
8
Layer 4
10
154.431933
20
19.657863
11
154.184760
21
20.881650
0
LINE
8
Layer 4
10
154.184760
20
20.881650
11
154.185000
21
37.497500
0
LINE
8
Layer 4
10
154.185000
20
37.497500
11
154.083294
21
39.191821
0
LINE
8
Layer 4
10
154.083294
20
39.191821
11
153.778177
21
40.640042
0
LINE
8
Layer 4
10
153.778177
20
40.640042
11
153.269649
21
41.842166
0
LINE
8
Layer 4
10
153.269649
20
41.842166
11
152.557710
21
42.798190
0
LINE
8
Layer 4
10
152.557710
20
42.798190
11
151.674223
21
43.532532
0
LINE
8
Layer 4
10
151.674223
20
43.532532
11
150.669208
21
44.064009
0
LINE
8
Layer 4
10
150.669208
20
44.064009
11
149.576781
21
44.378854
0
LINE
8
Layer 4
10
149.576781
20
44.378854
11
148.431060
21
44.463300
0
LINE
8
Layer 4
10
148.431060
20
44.463300
11
147.269629
21
44.374321
0
LINE
8
Layer 4
10
147.269629
20
44.374321
11
146.160286
21
44.058517
0
LINE
8
Layer 4
10
146.160286
20
44.058517
11
145.135688
21
43.528827
0
LINE
8
Layer 4
10
145.135688
20
43.528827
11
144.228490
21
42.798190
0
LINE
8
Layer 4
10
144.228490
20
42.798190
11
143.483213
21
41.841738
0
LINE
8
Layer 4
10
143.483213
20
41.841738
11
142.950873
21
40.639472
0
LINE
8
Layer 4
10
142.950873
20
40.639472
11
142.631468
21
39.191393
0
LINE
8
Layer 4
10
142.631468
20
39.191393
11
142.525000
21
37.497500
0
LINE
8
Layer 4
10
142.525000
20
37.497500
11
142.525000
21
20.888100
0
LINE
8
Layer 4
10
142.525000
20
20.888100
11
142.285380
21
19.682085
0
LINE
8
Layer 4
10
142.285380
20
19.682085
11
141.602364
21
18.659649
0
LINE
8
Layer 4
10
141.602364
20
18.659649
11
140.579992
21
17.976534
0
LINE
8
Layer 4
10
140.579992
20
17.976534
11
139.374000
21
17.736800
0
LINE
8
Layer 4
10
139.374000
20
17.736800
11
134.739000
21
17.736800
0
LINE
8
Layer 4
10
134.739000
20
17.736800
11
134.730020
21
17.740520
0
LINE
8
Layer 4
10
134.730020
20
17.740520
11
134.726300
21
17.749500
0
LINE
8
Layer 4
10
134.726300
20
17.749500
11
134.726000
21
37.496600
0
LINE
8
Layer 4
10
134.726000
20
37.496600
11
134.621931
21
39.190921
0
LINE
8
Layer 4
10
134.621931
20
39.190921
11
134.309722
21
40.639142
0
LINE
8
Layer 4
10
134.309722
20
40.639142
11
133.789376
21
41.841266
0
LINE
8
Layer 4
10
133.789376
20
41.841266
11
133.060890
21
42.797290
0
LINE
8
Layer 4
10
133.060890
20
42.797290
11
132.129058
21
43.525834
0
LINE
8
Layer 4
10
132.129058
20
43.525834
11
131.103584
21
44.046222
0
LINE
8
Layer 4
10
131.103584
20
44.046222
11
130.015682
21
44.358455
0
LINE
8
Layer 4
10
130.015682
20
44.358455
11
128.896565
21
44.462533
0
LINE
8
Layer 4
10
128.896565
20
44.462533
11
127.777448
21
44.358455
0
LINE
8
Layer 4
10
127.777448
20
44.358455
11
126.689546
21
44.046222
0
LINE
8
Layer 4
10
126.689546
20
44.046222
11
125.664072
21
43.525834
0
LINE
8
Layer 4
10
125.664072
20
43.525834
11
124.732240
21
42.797290
0
LINE
8
Layer 4
10
124.732240
20
42.797290
11
124.003012
21
41.840838
0
LINE
8
Layer 4
10
124.003012
20
41.840838
11
123.482418
21
40.638572
0
LINE
8
Layer 4
10
123.482418
20
40.638572
11
123.170457
21
39.190493
0
LINE
8
Layer 4
10
123.170457
20
39.190493
11
123.067130
21
37.496600
0
LINE
8
Layer 4
10
123.067130
20
37.496600
11
123.067000
21
17.749500
0
LINE
8
Layer 4
10
123.067000
20
17.749500
11
123.063280
21
17.740520
0
LINE
8
Layer 4
10
123.063280
20
17.740520
11
123.054300
21
17.736800
0
LINE
8
Layer 4
10
123.054300
20
17.736800
11
118.228000
21
17.736800
0
LINE
8
Layer 5
10
177.299000
20
17.780000
11
177.201029
21
16.789789
0
LINE
8
Layer 5
10
177.201029
20
16.789789
11
176.914435
21
15.846660
0
LINE
8
Layer 5
10
176.914435
20
15.846660
11
176.450195
21
14.977115
0
LINE
8
Layer 5
10
176.450195
20
14.977115
11
175.819286
21
14.207654
0
LINE
8
Layer 5
10
175.819286
20
14.207654
11
175.049825
21
13.576745
0
LINE
8
Layer 5
10
175.049825
20
13.576745
11
174.180280
21
13.112505
0
LINE
8
Layer 5
10
174.180280
20
13.112505
11
173.237151
21
12.825911
0
LINE
8
Layer 5
10
173.237151
20
12.825911
11
172.246940
21
12.727940
0
LINE
8
Layer 5
10
172.246940
20
12.727940
11
171.256729
21
12.825911
0
LINE
8
Layer 5
10
171.256729
20
12.825911
11
170.313600
21
13.112505
0
LINE
8
Layer 5
10
170.313600
20
13.112505
11
169.444055
21
13.576745
0
LINE
8
Layer 5
10
169.444055
20
13.576745
11
168.674594
21
14.207654
0
LINE
8
Layer 5
10
168.674594
20
14.207654
11
168.043685
21
14.977115
0
LINE
8
Layer 5
10
168.043685
20
14.977115
11
167.579445
21
15.846660
0
LINE
8
Layer 5
10
167.579445
20
15.846660
11
167.292851
21
16.789789
0
LINE
8
Layer 5
10
167.292851
20
16.789789
11
167.194880
21
17.780000
0
LINE
8
Layer 5
10
167.194880
20
17.780000
11
167.292851
21
18.770211
0
LINE
8
Layer 5
10
167.292851
20
18.770211
11
167.579445
21
19.713340
0
LINE
8
Layer 5
10
167.579445
20
19.713340
11
168.043685
21
20.582885
0
LINE
8
Layer 5
10
168.043685
20
20.582885
11
168.674594
21
21.352346
0
LINE
8
Layer 5
10
168.674594
20
21.352346
11
169.444055
21
21.983255
0
LINE
8
Layer 5
10
169.444055
20
21.983255
11
170.313600
21
22.447495
0
LINE
8
Layer 5
10
170.313600
20
22.447495
11
171.256729
21
22.734089
0
LINE
8
Layer 5
10
171.256729
20
22.734089
11
172.246940
21
22.832060
0
LINE
8
Layer 5
10
172.246940
20
22.832060
11
173.237151
21
22.734089
0
LINE
8
Layer 5
10
173.237151
20
22.734089
11
174.180280
21
22.447495
0
LINE
8
Layer 5
10
174.180280
20
22.447495
11
175.049825
21
21.983255
0
LINE
8
Layer 5
10
175.049825
20
21.983255
11
175.819286
21
21.352346
0
LINE
8
Layer 5
10
175.819286
20
21.352346
11
176.450195
21
20.582885
0
LINE
8
Layer 5
10
176.450195
20
20.582885
11
176.914435
21
19.713340
0
LINE
8
Layer 5
10
176.914435
20
19.713340
11
177.201029
21
18.770211
0
LINE
8
Layer 5
10
177.201029
20
18.770211
11
177.299000
21
17.780000
0
LINE
8
Layer 5
10
177.299000
20
17.780000
11
177.299000
21
17.780000
0
LINE
8
Layer 6-in
10
198.109000
20
30.880500
11
197.421586
21
29.159860
0
LINE
8
Layer 6-in
10
197.421586
20
29.159860
11
196.432320
21
27.593180
0
LINE
8
Layer 6-in
10
196.432320
20
27.593180
11
195.144531
21
26.259649
0
LINE
8
Layer 6-in
10
195.144531
20
26.259649
11
193.605300
21
25.226470
0
LINE
8
Layer 6-in
10
193.605300
20
25.226470
11
191.674682
21
24.540323
0
LINE
8
Layer 6-in
10
191.674682
20
24.540323
11
189.664469
21
24.305887
0
LINE
8
Layer 6-in
10
189.664469
20
24.305887
11
187.652364
21
24.523488
0
LINE
8
Layer 6-in
10
187.652364
20
24.523488
11
185.716070
21
25.193450
0
LINE
8
Layer 6-in
10
185.716070
20
25.193450
11
184.136941
21
26.214572
0
LINE
8
Layer 6-in
10
184.136941
20
26.214572
11
182.790560
21
27.527430
0
LINE
8
Layer 6-in
10
182.790560
20
27.527430
11
181.718676
21
29.069220
0
LINE
8
Layer 6-in
10
181.718676
20
29.069220
11
180.949630
21
30.782300
0
LINE
8
Layer 6-in
10
180.949630
20
30.782300
11
180.483547
21
32.580282
0
LINE
8
Layer 6-in
10
180.483547
20
32.580282
11
180.324508
21
34.430870
0
LINE
8
Layer 6-in
10
180.324508
20
34.430870
11
180.484987
21
36.297346
0
LINE
8
Layer 6-in
10
180.484987
20
36.297346
11
180.949630
21
38.112170
0
LINE
8
Layer 6-in
10
180.949630
20
38.112170
11
181.715174
21
39.842590
0
LINE
8
Layer 6-in
10
181.715174
20
39.842590
11
182.790560
21
41.399490
0
LINE
8
Layer 6-in
10
182.790560
20
41.399490
11
184.140356
21
42.722603
0
LINE
8
Layer 6-in
10
184.140356
20
42.722603
11
185.716070
21
43.766490
0
LINE
8
Layer 6-in
10
185.716070
20
43.766490
11
187.597475
21
44.470727
0
LINE
8
Layer 6-in
10
187.597475
20
44.470727
11
189.594650
21
44.687380
0
LINE
8
Layer 6-in
10
189.594650
20
44.687380
11
191.653879
21
44.486698
0
LINE
8
Layer 6-in
10
191.653879
20
44.486698
11
193.605310
21
43.799227
0
LINE
8
Layer 6-in
10
193.605310
20
43.799227
11
195.147160
21
42.787851
0
LINE
8
Layer 6-in
10
195.147160
20
42.787851
11
196.432330
21
41.465537
0
LINE
8
Layer 6-in
10
196.432330
20
41.465537
11
197.417667
21
39.913826
0
LINE
8
Layer 6-in
10
197.417667
20
39.913826
11
198.109010
21
38.210667
0
LINE
8
Layer 6-in
10
198.109010
20
38.210667
11
198.525882
21
36.407572
0
LINE
8
Layer 6-in
10
198.525882
20
36.407572
11
198.668092
21
34.562387
0
LINE
8
Layer 6-in
10
198.668092
20
34.562387
11
198.525446
21
32.700793
0
LINE
8
Layer 6-in
10
198.525446
20
32.700793
11
198.110139
21
30.880517
0
LINE
8
Layer 6-in
10
198.110139
20
30.880517
11
198.109000
21
30.880500
0
LINE
8
Layer 6-out
10
205.571000
20
41.070700
11
204.248836
21
43.854298
0
LINE
8
Layer 6-out
10
204.248836
20
43.854298
11
202.415190
21
46.331040
0
LINE
8
Layer 6-out
10
202.415190
20
46.331040
11
201.300534
21
47.429670
0
LINE
8
Layer 6-out
10
201.300534
20
47.429670
11
200.086203
21
48.396096
0
LINE
8
Layer 6-out
10
200.086203
20
48.396096
11
198.784040
21
49.225172
0
LINE
8
Layer 6-out
10
198.784040
20
49.225172
11
197.405885
21
49.911754
0
LINE
8
Layer 6-out
10
197.405885
20
49.911754
11
195.963581
21
50.450695
0
LINE
8
Layer 6-out
10
195.963581
20
50.450695
11
194.468969
21
50.836852
0
LINE
8
Layer 6-out
10
194.468969
20
50.836852
11
192.933892
21
51.065079
0
LINE
8
Layer 6-out
10
192.933892
20
51.065079
11
191.370190
21
51.130230
0
LINE
8
Layer 6-out
10
191.370190
20
51.130230
11
189.363683
21
51.045891
0
LINE
8
Layer 6-out
10
189.363683
20
51.045891
11
187.376180
21
50.757697
0
LINE
8
Layer 6-out
10
187.376180
20
50.757697
11
184.295440
21
49.838782
0
LINE
8
Layer 6-out
10
184.295440
20
49.838782
11
182.028070
21
48.647242
0
LINE
8
Layer 6-out
10
182.028070
20
48.647242
11
180.470490
21
47.405462
0
LINE
8
Layer 6-out
10
180.470490
20
47.405462
11
180.267000
21
47.405400
0
LINE
8
Layer 6-out
10
180.267000
20
47.405400
11
180.267000
21
58.066400
0
LINE
8
Layer 6-out
10
180.267000
20
58.066400
11
180.020007
21
59.290217
0
LINE
8
Layer 6-out
10
180.020007
20
59.290217
11
179.346241
21
60.289592
0
LINE
8
Layer 6-out
10
179.346241
20
60.289592
11
178.346866
21
60.963359
0
LINE
8
Layer 6-out
10
178.346866
20
60.963359
11
177.123050
21
61.210350
0
LINE
8
Layer 6-out
10
177.123050
20
61.210350
11
172.381000
21
61.210300
0
LINE
8
Layer 6-out
10
172.381000
20
61.210300
11
172.381000
21
27.939200
0
LINE
8
Layer 6-out
10
172.381000
20
27.939200
11
173.831026
21
27.814890
0
LINE
8
Layer 6-out
10
173.831026
20
27.814890
11
175.239806
21
27.488593
0
LINE
8
Layer 6-out
10
175.239806
20
27.488593
11
176.583876
21
26.972161
0
LINE
8
Layer 6-out
10
176.583876
20
26.972161
11
177.839771
21
26.277443
0
LINE
8
Layer 6-out
10
177.839771
20
26.277443
11
178.984025
21
25.416288
0
LINE
8
Layer 6-out
10
178.984025
20
25.416288
11
179.993173
21
24.400548
0
LINE
8
Layer 6-out
10
179.993173
20
24.400548
11
180.843750
21
23.242072
0
LINE
8
Layer 6-out
10
180.843750
20
23.242072
11
181.512290
21
21.952710
0
LINE
8
Layer 6-out
10
181.512290
20
21.952710
11
182.012693
21
20.994602
0
LINE
8
Layer 6-out
10
182.012693
20
20.994602
11
182.656265
21
20.134757
0
LINE
8
Layer 6-out
10
182.656265
20
20.134757
11
183.429099
21
19.388939
0
LINE
8
Layer 6-out
10
183.429099
20
19.388939
11
184.317290
21
18.772910
0
LINE
8
Layer 6-out
10
184.317290
20
18.772910
11
185.516666
21
18.287078
0
LINE
8
Layer 6-out
10
185.516666
20
18.287078
11
186.828254
21
18.003679
0
LINE
8
Layer 6-out
10
186.828254
20
18.003679
11
189.276780
21
17.778642
0
LINE
8
Layer 6-out
10
189.276780
20
17.778642
11
191.864760
21
17.778642
0
LINE
8
Layer 6-out
10
191.864760
20
17.778642
11
193.258460
21
17.995170
0
LINE
8
Layer 6-out
10
193.258460
20
17.995170
11
194.619810
21
18.363970
0
LINE
8
Layer 6-out
10
194.619810
20
18.363970
11
194.887921
21
18.451459
0
LINE
8
Layer 6-out
10
194.887921
20
18.451459
11
196.747695
21
19.158730
0
LINE
8
Layer 6-out
10
196.747695
20
19.158730
11
198.512451
21
20.064579
0
LINE
8
Layer 6-out
10
198.512451
20
20.064579
11
200.166387
21
21.159759
0
LINE
8
Layer 6-out
10
200.166387
20
21.159759
11
201.693701
21
22.435019
0
LINE
8
Layer 6-out
10
201.693701
20
22.435019
11
202.801392
21
23.615849
0
LINE
8
Layer 6-out
10
202.801392
20
23.615849
11
203.783170
21
24.898210
0
LINE
8
Layer 6-out
10
203.783170
20
24.898210
11
204.632143
21
26.272103
0
LINE
8
Layer 6-out
10
204.632143
20
26.272103
11
205.341421
21
27.727529
0
LINE
8
Layer 6-out
10
205.341421
20
27.727529
11
205.943618
21
29.376868
0
LINE
8
Layer 6-out
10
205.943618
20
29.376868
11
206.370728
21
31.075136
0
LINE
8
Layer 6-out
10
206.370728
20
31.075136
11
206.620017
21
32.808456
0
LINE
8
Layer 6-out
10
206.620017
20
32.808456
11
206.688751
21
34.562949
0
LINE
8
Layer 6-out
10
206.688751
20
34.562949
11
206.419909
21
37.866734
0
LINE
8
Layer 6-out
10
206.419909
20
37.866734
11
205.570301
21
41.070709
0
LINE
8
Layer 6-out
10
205.570301
20
41.070709
11
205.571000
21
41.070700
0
LINE
8
Layer 7
10
219.771000
20
17.736800
11
215.028000
21
17.736800
0
LINE
8
Layer 7
10
215.028000
20
17.736800
11
213.824792
21
17.976034
0
LINE
8
Layer 7
10
213.824792
20
17.976034
11
212.804760
21
18.657560
0
LINE
8
Layer 7
10
212.804760
20
18.657560
11
212.123234
21
19.677592
0
LINE
8
Layer 7
10
212.123234
20
19.677592
11
211.884000
21
20.880800
0
LINE
8
Layer 7
10
211.884000
20
20.880800
11
211.884000
21
58.066400
0
LINE
8
Layer 7
10
211.884000
20
58.066400
11
212.123236
21
59.269627
0
LINE
8
Layer 7
10
212.123236
20
59.269627
11
212.804739
21
60.289696
0
LINE
8
Layer 7
10
212.804739
20
60.289696
11
213.824745
21
60.971293
0
LINE
8
Layer 7
10
213.824745
20
60.971293
11
215.027950
21
61.210640
0
LINE
8
Layer 7
10
215.027950
20
61.210640
11
219.771000
21
61.210600
0
LINE
8
Layer 7
10
219.771000
20
61.210600
11
219.771000
21
17.736800
0
LINE
8
Layer 8
10
232.767000
20
51.105900
11
232.767000
21
33.281300
0
LINE
8
Layer 8
10
232.767000
20
33.281300
11
232.883108
21
31.255386
0
LINE
8
Layer 8
10
232.883108
20
31.255386
11
233.231432
21
29.499594
0
LINE
8
Layer 8
10
233.231432
20
29.499594
11
233.811972
21
28.013923
0
LINE
8
Layer 8
10
233.811972
20
28.013923
11
234.624727
21
26.798375
0
LINE
8
Layer 8
10
234.624727
20
26.798375
11
235.669699
21
25.852948
0
LINE
8
Layer 8
10
235.669699
20
25.852948
11
236.946887
21
25.177644
0
LINE
8
Layer 8
10
236.946887
20
25.177644
11
238.456290
21
24.772461
0
LINE
8
Layer 8
10
238.456290
20
24.772461
11
240.197910
21
24.637400
0
LINE
8
Layer 8
10
240.197910
20
24.637400
11
241.921858
21
24.772461
0
LINE
8
Layer 8
10
241.921858
20
24.772461
11
243.415928
21
25.177644
0
LINE
8
Layer 8
10
243.415928
20
25.177644
11
244.680120
21
25.852948
0
LINE
8
Layer 8
10
244.680120
20
25.852948
11
245.714433
21
26.798375
0
LINE
8
Layer 8
10
245.714433
20
26.798375
11
246.518867
21
28.013923
0
LINE
8
Layer 8
10
246.518867
20
28.013923
11
247.093423
21
29.499594
0
LINE
8
Layer 8
10
247.093423
20
29.499594
11
247.438101
21
31.255386
0
LINE
8
Layer 8
10
247.438101
20
31.255386
11
247.552900
21
33.281300
0
LINE
8
Layer 8
10
247.552900
20
33.281300
11
247.553000
21
51.105900
0
LINE
8
Layer 8
10
247.553000
20
51.105900
11
255.363000
21
51.105900
0
LINE
8
Layer 8
10
255.363000
20
51.105900
11
255.363000
21
33.281300
0
LINE
8
Layer 8
10
255.363000
20
33.281300
11
255.130784
21
29.930726
0
LINE
8
Layer 8
10
255.130784
20
29.930726
11
254.434137
21
26.930885
0
LINE
8
Layer 8
10
254.434137
20
26.930885
11
253.273059
21
24.281776
0
LINE
8
Layer 8
10
253.273059
20
24.281776
11
251.647550
21
21.983400
0
LINE
8
Layer 8
10
251.647550
20
21.983400
11
250.655916
21
20.988228
0
LINE
8
Layer 8
10
250.655916
20
20.988228
11
249.538737
21
20.125727
0
LINE
8
Layer 8
10
249.538737
20
20.125727
11
248.296016
21
19.395897
0
LINE
8
Layer 8
10
248.296016
20
19.395897
11
246.927750
21
18.798738
0
LINE
8
Layer 8
10
246.927750
20
18.798738
11
245.433941
21
18.334249
0
LINE
8
Layer 8
10
245.433941
20
18.334249
11
243.814587
21
18.002432
0
LINE
8
Layer 8
10
243.814587
20
18.002432
11
240.199250
21
17.736810
0
LINE
8
Layer 8
10
240.199250
20
17.736810
11
236.552945
21
18.002204
0
LINE
8
Layer 8
10
236.552945
20
18.002204
11
234.923469
21
18.333947
0
LINE
8
Layer 8
10
234.923469
20
18.333947
11
233.423110
21
18.798388
0
LINE
8
Layer 8
10
233.423110
20
18.798388
11
232.051869
21
19.395525
0
LINE
8
Layer 8
10
232.051869
20
19.395525
11
230.809745
21
20.125359
0
LINE
8
Layer 8
10
230.809745
20
20.125359
11
229.696739
21
20.987891
0
LINE
8
Layer 8
10
229.696739
20
20.987891
11
228.712850
21
21.983120
0
LINE
8
Layer 8
10
228.712850
20
21.983120
11
227.103833
21
24.281624
0
LINE
8
Layer 8
10
227.103833
20
24.281624
11
225.954133
21
26.930825
0
LINE
8
Layer 8
10
225.954133
20
26.930825
11
225.263748
21
29.930724
0
LINE
8
Layer 8
10
225.263748
20
29.930724
11
225.032680
21
33.281320
0
LINE
8
Layer 8
10
225.032680
20
33.281320
11
225.033000
21
47.962800
0
LINE
8
Layer 8
10
225.033000
20
47.962800
11
225.279956
21
49.186353
0
LINE
8
Layer 8
10
225.279956
20
49.186353
11
225.953488
21
50.185605
0
LINE
8
Layer 8
10
225.953488
20
50.185605
11
226.952526
21
50.859454
0
LINE
8
Layer 8
10
226.952526
20
50.859454
11
228.176000
21
51.106800
0
LINE
8
Layer 8
10
228.176000
20
51.106800
11
232.767000
21
51.105900
0
LINE
8
Layer 9-in
10
284.583000
20
37.577000
11
284.478638
21
39.038063
0
LINE
8
Layer 9-in
10
284.478638
20
39.038063
11
284.156280
21
40.466950
0
LINE
8
Layer 9-in
10
284.156280
20
40.466950
11
283.599590
21
41.783441
0
LINE
8
Layer 9-in
10
283.599590
20
41.783441
11
282.777772
21
42.932281
0
LINE
8
Layer 9-in
10
282.777772
20
42.932281
11
281.725588
21
43.874686
0
LINE
8
Layer 9-in
10
281.725588
20
43.874686
11
280.477800
21
44.571870
0
LINE
8
Layer 9-in
10
280.477800
20
44.571870
11
278.852208
21
45.057143
0
LINE
8
Layer 9-in
10
278.852208
20
45.057143
11
277.161410
21
45.195863
0
LINE
8
Layer 9-in
10
277.161410
20
45.195863
11
275.455675
21
45.062443
0
LINE
8
Layer 9-in
10
275.455675
20
45.062443
11
273.885445
21
44.662181
0
LINE
8
Layer 9-in
10
273.885445
20
44.662181
11
272.450717
21
43.995078
0
LINE
8
Layer 9-in
10
272.450717
20
43.995078
11
271.151490
21
43.061133
0
LINE
8
Layer 9-in
10
271.151490
20
43.061133
11
270.059301
21
41.921186
0
LINE
8
Layer 9-in
10
270.059301
20
41.921186
11
269.226643
21
40.598385
0
LINE
8
Layer 9-in
10
269.226643
20
40.598385
11
268.674983
21
39.135924
0
LINE
8
Layer 9-in
10
268.674983
20
39.135924
11
268.425790
21
37.576993
0
LINE
8
Layer 9-in
10
268.425790
20
37.576993
11
284.583000
21
37.577000
0
LINE
8
Layer 9-out
10
292.465000
20
32.979400
11
292.398396
21
31.928410
0
LINE
8
Layer 9-out
10
292.398396
20
31.928410
11
268.426000
21
31.928400
0
LINE
8
Layer 9-out
10
268.426000
20
31.928400
11
268.705558
21
30.321751
0
LINE
8
Layer 9-out
10
268.705558
20
30.321751
11
269.313306
21
28.808440
0
LINE
8
Layer 9-out
10
269.313306
20
28.808440
11
270.193170
21
27.492979
0
LINE
8
Layer 9-out
10
270.193170
20
27.492979
11
271.317086
21
26.378790
0
LINE
8
Layer 9-out
10
271.317086
20
26.378790
11
272.662995
21
25.458254
0
LINE
8
Layer 9-out
10
272.662995
20
25.458254
11
274.141286
21
24.770120
0
LINE
8
Layer 9-out
10
274.141286
20
24.770120
11
275.756018
21
24.325621
0
LINE
8
Layer 9-out
10
275.756018
20
24.325621
11
277.424376
21
24.178865
0
LINE
8
Layer 9-out
10
277.424376
20
24.178865
11
280.150004
21
24.449657
0
LINE
8
Layer 9-out
10
280.150004
20
24.449657
11
281.340259
21
24.788147
0
LINE
8
Layer 9-out
10
281.340259
20
24.788147
11
282.415476
21
25.262035
0
LINE
8
Layer 9-out
10
282.415476
20
25.262035
11
284.027526
21
26.341535
0
LINE
8
Layer 9-out
10
284.027526
20
26.341535
11
284.962702
21
26.903192
0
LINE
8
Layer 9-out
10
284.962702
20
26.903192
11
286.003530
21
27.109956
0
LINE
8
Layer 9-out
10
286.003530
20
27.109956
11
287.053941
21
26.959249
0
LINE
8
Layer 9-out
10
287.053941
20
26.959249
11
288.017866
21
26.448497
0
LINE
8
Layer 9-out
10
288.017866
20
26.448497
11
291.019296
21
24.047637
0
LINE
8
Layer 9-out
10
291.019296
20
24.047637
11
289.787656
21
22.569688
0
LINE
8
Layer 9-out
10
289.787656
20
22.569688
11
288.424728
21
21.288828
0
LINE
8
Layer 9-out
10
288.424728
20
21.288828
11
286.930510
21
20.205055
0
LINE
8
Layer 9-out
10
286.930510
20
20.205055
11
285.305004
21
19.318371
0
LINE
8
Layer 9-out
10
285.305004
20
19.318371
11
283.548209
21
18.628775
0
LINE
8
Layer 9-out
10
283.548209
20
18.628775
11
281.660126
21
18.136267
0
LINE
8
Layer 9-out
10
281.660126
20
18.136267
11
279.640755
21
17.840848
0
LINE
8
Layer 9-out
10
279.640755
20
17.840848
11
277.490096
21
17.742517
0
LINE
8
Layer 9-out
10
277.490096
20
17.742517
11
275.765322
21
17.801205
0
LINE
8
Layer 9-out
10
275.765322
20
17.801205
11
274.056107
21
18.013411
0
LINE
8
Layer 9-out
10
274.056107
20
18.013411
11
272.372672
21
18.377402
0
LINE
8
Layer 9-out
10
272.372672
20
18.377402
11
270.725236
21
18.891447
0
LINE
8
Layer 9-out
10
270.725236
20
18.891447
11
269.271221
21
19.502135
0
LINE
8
Layer 9-out
10
269.271221
20
19.502135
11
267.887999
21
20.251613
0
LINE
8
Layer 9-out
10
267.887999
20
20.251613
11
266.585450
21
21.133879
0
LINE
8
Layer 9-out
10
266.585450
20
21.133879
11
265.373456
21
22.142927
0
LINE
8
Layer 9-out
10
265.373456
20
22.142927
11
264.281685
21
23.282301
0
LINE
8
Layer 9-out
10
264.281685
20
23.282301
11
263.321511
21
24.528853
0
LINE
8
Layer 9-out
10
263.321511
20
24.528853
11
262.500709
21
25.871280
0
LINE
8
Layer 9-out
10
262.500709
20
25.871280
11
261.827056
21
27.298277
0
LINE
8
Layer 9-out
10
261.827056
20
27.298277
11
261.247620
21
28.975893
0
LINE
8
Layer 9-out
10
261.247620
20
28.975893
11
260.839365
21
30.698647
0
LINE
8
Layer 9-out
10
260.839365
20
30.698647
11
260.604703
21
32.453494
0
LINE
8
Layer 9-out
10
260.604703
20
32.453494
11
260.546046
21
34.227387
0
LINE
8
Layer 9-out
10
260.546046
20
34.227387
11
260.609408
21
36.000581
0
LINE
8
Layer 9-out
10
260.609408
20
36.000581
11
260.845581
21
37.754840
0
LINE
8
Layer 9-out
10
260.845581
20
37.754840
11
261.252239
21
39.477579
0
LINE
8
Layer 9-out
10
261.252239
20
39.477579
11
261.827056
21
41.156217
0
LINE
8
Layer 9-out
10
261.827056
20
41.156217
11
262.494548
21
42.620373
0
LINE
8
Layer 9-out
10
262.494548
20
42.620373
11
263.303768
21
43.996189
0
LINE
8
Layer 9-out
10
263.303768
20
43.996189
11
264.245645
21
45.274656
0
LINE
8
Layer 9-out
10
264.245645
20
45.274656
11
265.311105
21
46.446769
0
LINE
8
Layer 9-out
10
265.311105
20
46.446769
11
266.491074
21
47.503523
0
LINE
8
Layer 9-out
10
266.491074
20
47.503523
11
267.776479
21
48.435909
0
LINE
8
Layer 9-out
10
267.776479
20
48.435909
11
269.158248
21
49.234923
0
LINE
8
Layer 9-out
10
269.158248
20
49.234923
11
270.627306
21
49.891557
0
LINE
8
Layer 9-out
10
270.627306
20
49.891557
11
272.228374
21
50.430521
0
LINE
8
Layer 9-out
10
272.228374
20
50.430521
11
273.869750
21
50.813820
0
LINE
8
Layer 9-out
10
273.869750
20
50.813820
11
275.540126
21
51.039375
0
LINE
8
Layer 9-out
10
275.540126
20
51.039375
11
277.228196
21
51.105107
0
LINE
8
Layer 9-out
10
277.228196
20
51.105107
11
280.316210
21
50.847523
0
LINE
8
Layer 9-out
10
280.316210
20
50.847523
11
283.303026
21
50.022217
0
LINE
8
Layer 9-out
10
283.303026
20
50.022217
11
284.638633
21
49.422792
0
LINE
8
Layer 9-out
10
284.638633
20
49.422792
11
285.895884
21
48.681542
0
LINE
8
Layer 9-out
10
285.895884
20
48.681542
11
287.063558
21
47.805945
0
LINE
8
Layer 9-out
10
287.063558
20
47.805945
11
288.130436
21
46.803477
0
LINE
8
Layer 9-out
10
288.130436
20
46.803477
11
289.132521
21
45.604201
0
LINE
8
Layer 9-out
10
289.132521
20
45.604201
11
290.001826
21
44.310545
0
LINE
8
Layer 9-out
10
290.001826
20
44.310545
11
290.731796
21
42.933455
0
LINE
8
Layer 9-out
10
290.731796
20
42.933455
11
291.315876
21
41.483877
0
LINE
8
Layer 9-out
10
291.315876
20
41.483877
11
291.818054
21
39.823131
0
LINE
8
Layer 9-out
10
291.818054
20
39.823131
11
292.177032
21
38.027203
0
LINE
8
Layer 9-out
10
292.177032
20
38.027203
11
292.392769
21
36.096135
0
LINE
8
Layer 9-out
10
292.392769
20
36.096135
11
292.465226
21
34.029967
0
LINE
8
Layer 9-out
10
292.465226
20
34.029967
11
292.465000
21
32.979400
 0 
ENDSEC
 0 
EOF