999
"DXF R12 Output" (www.mydxf.blogspot.com)
 0 
SECTION
 2 
HEADER
 9 
$ACADVER
 1 
AC1009
 9 
$EXTMIN
 10 
 0 
 20 
 0 
 9 
$EXTMAX
 10 
 8.5 
 20 
 11 
 0 
ENDSEC
 0 
SECTION
 2 
ENTITIES
0
LINE
8
Layer 1
10
261.529000
20
248.268000
11
258.342030
21
251.325478
0
LINE
8
Layer 1
10
258.342030
20
251.325478
11
255.140557
21
254.145405
0
LINE
8
Layer 1
10
255.140557
20
254.145405
11
251.927675
21
256.734234
0
LINE
8
Layer 1
10
251.927675
20
256.734234
11
248.706475
21
259.098424
0
LINE
8
Layer 1
10
248.706475
20
259.098424
11
245.480050
21
261.244428
0
LINE
8
Layer 1
10
245.480050
20
261.244428
11
242.251494
21
263.178704
0
LINE
8
Layer 1
10
242.251494
20
263.178704
11
239.023900
21
264.907706
0
LINE
8
Layer 1
10
239.023900
20
264.907706
11
235.800359
21
266.437891
0
LINE
8
Layer 1
10
235.800359
20
266.437891
11
232.583966
21
267.775713
0
LINE
8
Layer 1
10
232.583966
20
267.775713
11
229.377812
21
268.927630
0
LINE
8
Layer 1
10
229.377812
20
268.927630
11
226.184991
21
269.900097
0
LINE
8
Layer 1
10
226.184991
20
269.900097
11
223.008596
21
270.699568
0
LINE
8
Layer 1
10
223.008596
20
270.699568
11
219.851718
21
271.332501
0
LINE
8
Layer 1
10
219.851718
20
271.332501
11
216.717452
21
271.805351
0
LINE
8
Layer 1
10
216.717452
20
271.805351
11
210.529125
21
272.296625
0
LINE
8
Layer 1
10
210.529125
20
272.296625
11
204.468356
21
272.225035
0
LINE
8
Layer 1
10
204.468356
20
272.225035
11
198.559889
21
271.642229
0
LINE
8
Layer 1
10
198.559889
20
271.642229
11
192.828465
21
270.599850
0
LINE
8
Layer 1
10
192.828465
20
270.599850
11
187.298828
21
269.149547
0
LINE
8
Layer 1
10
187.298828
20
269.149547
11
181.995720
21
267.342964
0
LINE
8
Layer 1
10
181.995720
20
267.342964
11
176.943885
21
265.231748
0
LINE
8
Layer 1
10
176.943885
20
265.231748
11
172.168064
21
262.867545
0
LINE
8
Layer 1
10
172.168064
20
262.867545
11
167.693000
21
260.302000
0
LINE
8
Layer 1
10
167.693000
20
260.302000
11
163.948181
21
257.819861
0
LINE
8
Layer 1
10
163.948181
20
257.819861
11
160.562154
21
255.218291
0
LINE
8
Layer 1
10
160.562154
20
255.218291
11
157.517562
21
252.530252
0
LINE
8
Layer 1
10
157.517562
20
252.530252
11
154.797047
21
249.788703
0
LINE
8
Layer 1
10
154.797047
20
249.788703
11
152.383253
21
247.026606
0
LINE
8
Layer 1
10
152.383253
20
247.026606
11
150.258822
21
244.276920
0
LINE
8
Layer 1
10
150.258822
20
244.276920
11
148.406399
21
241.572606
0
LINE
8
Layer 1
10
148.406399
20
241.572606
11
146.808625
21
238.946625
0
LINE
8
Layer 1
10
146.808625
20
238.946625
11
144.307600
21
234.061502
0
LINE
8
Layer 1
10
144.307600
20
234.061502
11
142.616891
21
229.885234
0
LINE
8
Layer 1
10
142.616891
20
229.885234
11
141.597643
21
226.681506
0
LINE
8
Layer 1
10
141.597643
20
226.681506
11
141.111000
21
224.714000
0
LINE
8
Layer 1
10
141.111000
20
224.714000
11
140.624300
21
226.681544
0
LINE
8
Layer 1
10
140.624300
20
226.681544
11
139.604994
21
229.885318
0
LINE
8
Layer 1
10
139.604994
20
229.885318
11
137.914176
21
234.061631
0
LINE
8
Layer 1
10
137.914176
20
234.061631
11
135.412940
21
238.946796
0
LINE
8
Layer 1
10
135.412940
20
238.946796
11
133.815008
21
241.572795
0
LINE
8
Layer 1
10
133.815008
20
241.572795
11
131.962381
21
244.277124
0
LINE
8
Layer 1
10
131.962381
20
244.277124
11
129.837697
21
247.026822
0
LINE
8
Layer 1
10
129.837697
20
247.026822
11
127.423592
21
249.788927
0
LINE
8
Layer 1
10
127.423592
20
249.788927
11
124.702703
21
252.530478
0
LINE
8
Layer 1
10
124.702703
20
252.530478
11
121.657667
21
255.218515
0
LINE
8
Layer 1
10
121.657667
20
255.218515
11
118.271120
21
257.820076
0
LINE
8
Layer 1
10
118.271120
20
257.820076
11
114.525700
21
260.302200
0
LINE
8
Layer 1
10
114.525700
20
260.302200
11
110.050655
21
262.867709
0
LINE
8
Layer 1
10
110.050655
20
262.867709
11
105.274854
21
265.231882
0
LINE
8
Layer 1
10
105.274854
20
265.231882
11
100.223044
21
267.343071
0
LINE
8
Layer 1
10
100.223044
20
267.343071
11
94.919972
21
269.149631
0
LINE
8
Layer 1
10
94.919972
20
269.149631
11
89.390385
21
270.599915
0
LINE
8
Layer 1
10
89.390385
20
270.599915
11
83.659029
21
271.642277
0
LINE
8
Layer 1
10
83.659029
20
271.642277
11
77.750652
21
272.225071
0
LINE
8
Layer 1
10
77.750652
20
272.225071
11
71.690000
21
272.296650
0
LINE
8
Layer 1
10
71.690000
20
272.296650
11
65.501820
21
271.805368
0
LINE
8
Layer 1
10
65.501820
20
271.805368
11
62.367640
21
271.332515
0
LINE
8
Layer 1
10
62.367640
20
271.332515
11
59.210858
21
270.699579
0
LINE
8
Layer 1
10
59.210858
20
270.699579
11
56.034568
21
269.900105
0
LINE
8
Layer 1
10
56.034568
20
269.900105
11
52.841862
21
268.927636
0
LINE
8
Layer 1
10
52.841862
20
268.927636
11
49.635834
21
267.775718
0
LINE
8
Layer 1
10
49.635834
20
267.775718
11
46.419578
21
266.437894
0
LINE
8
Layer 1
10
46.419578
20
266.437894
11
43.196187
21
264.907708
0
LINE
8
Layer 1
10
43.196187
20
264.907708
11
39.968753
21
263.178705
0
LINE
8
Layer 1
10
39.968753
20
263.178705
11
36.740371
21
261.244429
0
LINE
8
Layer 1
10
36.740371
20
261.244429
11
33.514134
21
259.098424
0
LINE
8
Layer 1
10
33.514134
20
259.098424
11
30.293135
21
256.734235
0
LINE
8
Layer 1
10
30.293135
20
256.734235
11
27.080467
21
254.145405
0
LINE
8
Layer 1
10
27.080467
20
254.145405
11
23.879225
21
251.325478
0
LINE
8
Layer 1
10
23.879225
20
251.325478
11
20.692500
21
248.268000
0
LINE
8
Layer 1
10
20.692500
20
248.268000
11
18.658487
21
246.083753
0
LINE
8
Layer 1
10
18.658487
20
246.083753
11
16.682427
21
243.657206
0
LINE
8
Layer 1
10
16.682427
20
243.657206
11
14.773160
21
240.996616
0
LINE
8
Layer 1
10
14.773160
20
240.996616
11
12.939525
21
238.110241
0
LINE
8
Layer 1
10
12.939525
20
238.110241
11
11.190362
21
235.006339
0
LINE
8
Layer 1
10
11.190362
20
235.006339
11
9.534512
21
231.693168
0
LINE
8
Layer 1
10
9.534512
20
231.693168
11
7.980813
21
228.178986
0
LINE
8
Layer 1
10
7.980813
20
228.178986
11
6.538106
21
224.472052
0
LINE
8
Layer 1
10
6.538106
20
224.472052
11
5.215230
21
220.580622
0
LINE
8
Layer 1
10
5.215230
20
220.580622
11
4.021025
21
216.512954
0
LINE
8
Layer 1
10
4.021025
20
216.512954
11
2.964331
21
212.277308
0
LINE
8
Layer 1
10
2.964331
20
212.277308
11
2.053988
21
207.881940
0
LINE
8
Layer 1
10
2.053988
20
207.881940
11
1.298835
21
203.335108
0
LINE
8
Layer 1
10
1.298835
20
203.335108
11
0.707712
21
198.645071
0
LINE
8
Layer 1
10
0.707712
20
198.645071
11
0.289459
21
193.820087
0
LINE
8
Layer 1
10
0.289459
20
193.820087
11
0.052916
21
188.868412
0
LINE
8
Layer 1
10
0.052916
20
188.868412
11
0.006923
21
183.798307
0
LINE
8
Layer 1
10
0.006923
20
183.798307
11
0.160318
21
178.618027
0
LINE
8
Layer 1
10
0.160318
20
178.618027
11
0.521943
21
173.335831
0
LINE
8
Layer 1
10
0.521943
20
173.335831
11
1.100636
21
167.959978
0
LINE
8
Layer 1
10
1.100636
20
167.959978
11
1.905238
21
162.498724
0
LINE
8
Layer 1
10
1.905238
20
162.498724
11
2.944589
21
156.960328
0
LINE
8
Layer 1
10
2.944589
20
156.960328
11
4.227527
21
151.353048
0
LINE
8
Layer 1
10
4.227527
20
151.353048
11
5.762894
21
145.685142
0
LINE
8
Layer 1
10
5.762894
20
145.685142
11
7.559528
21
139.964868
0
LINE
8
Layer 1
10
7.559528
20
139.964868
11
9.626269
21
134.200483
0
LINE
8
Layer 1
10
9.626269
20
134.200483
11
11.971958
21
128.400246
0
LINE
8
Layer 1
10
11.971958
20
128.400246
11
14.605433
21
122.572414
0
LINE
8
Layer 1
10
14.605433
20
122.572414
11
17.535535
21
116.725245
0
LINE
8
Layer 1
10
17.535535
20
116.725245
11
20.771104
21
110.866998
0
LINE
8
Layer 1
10
20.771104
20
110.866998
11
24.320979
21
105.005931
0
LINE
8
Layer 1
10
24.320979
20
105.005931
11
28.194000
21
99.150300
0
LINE
8
Layer 1
10
28.194000
20
99.150300
11
32.628599
21
92.882036
0
LINE
8
Layer 1
10
32.628599
20
92.882036
11
37.106943
21
86.852770
0
LINE
8
Layer 1
10
37.106943
20
86.852770
11
41.618687
21
81.059106
0
LINE
8
Layer 1
10
41.618687
20
81.059106
11
46.153487
21
75.497650
0
LINE
8
Layer 1
10
46.153487
20
75.497650
11
50.700995
21
70.165007
0
LINE
8
Layer 1
10
50.700995
20
70.165007
11
55.250869
21
65.057782
0
LINE
8
Layer 1
10
55.250869
20
65.057782
11
64.316330
21
55.506011
0
LINE
8
Layer 1
10
64.316330
20
55.506011
11
73.267108
21
46.815178
0
LINE
8
Layer 1
10
73.267108
20
46.815178
11
82.020442
21
38.958126
0
LINE
8
Layer 1
10
82.020442
20
38.958126
11
90.493573
21
31.907698
0
LINE
8
Layer 1
10
90.493573
20
31.907698
11
98.603737
21
25.636736
0
LINE
8
Layer 1
10
98.603737
20
25.636736
11
106.268176
21
20.118085
0
LINE
8
Layer 1
10
106.268176
20
20.118085
11
113.404128
21
15.324586
0
LINE
8
Layer 1
10
113.404128
20
15.324586
11
119.928832
21
11.229082
0
LINE
8
Layer 1
10
119.928832
20
11.229082
11
125.759527
21
7.804417
0
LINE
8
Layer 1
10
125.759527
20
7.804417
11
130.813452
21
5.023432
0
LINE
8
Layer 1
10
130.813452
20
5.023432
11
135.007846
21
2.858971
0
LINE
8
Layer 1
10
135.007846
20
2.858971
11
140.487000
21
0.270992
0
LINE
8
Layer 1
10
140.487000
20
0.270992
11
141.110711
21
-0.011230
0
LINE
8
Layer 1
10
141.110711
20
-0.011230
11
141.734422
21
0.270992
0
LINE
8
Layer 1
10
141.734422
20
0.270992
11
147.212847
21
2.858976
0
LINE
8
Layer 1
10
147.212847
20
2.858976
11
151.407038
21
5.023441
0
LINE
8
Layer 1
10
151.407038
20
5.023441
11
156.460849
21
7.804431
0
LINE
8
Layer 1
10
156.460849
20
7.804431
11
162.291508
21
11.229102
0
LINE
8
Layer 1
10
162.291508
20
11.229102
11
168.816239
21
15.324611
0
LINE
8
Layer 1
10
168.816239
20
15.324611
11
175.952271
21
20.118115
0
LINE
8
Layer 1
10
175.952271
20
20.118115
11
183.616829
21
25.636771
0
LINE
8
Layer 1
10
183.616829
20
25.636771
11
191.727141
21
31.907735
0
LINE
8
Layer 1
10
191.727141
20
31.907735
11
200.200431
21
38.958165
0
LINE
8
Layer 1
10
200.200431
20
38.958165
11
208.953927
21
46.815216
0
LINE
8
Layer 1
10
208.953927
20
46.815216
11
217.904856
21
55.506047
0
LINE
8
Layer 1
10
217.904856
20
55.506047
11
226.970443
21
65.057813
0
LINE
8
Layer 1
10
226.970443
20
65.057813
11
231.520367
21
70.165033
0
LINE
8
Layer 1
10
231.520367
20
70.165033
11
236.067916
21
75.497671
0
LINE
8
Layer 1
10
236.067916
20
75.497671
11
240.602742
21
81.059121
0
LINE
8
Layer 1
10
240.602742
20
81.059121
11
245.114500
21
86.852778
0
LINE
8
Layer 1
10
245.114500
20
86.852778
11
249.592842
21
92.882037
0
LINE
8
Layer 1
10
249.592842
20
92.882037
11
254.027422
21
99.150292
0
LINE
8
Layer 1
10
254.027422
20
99.150292
11
257.900486
21
105.005923
0
LINE
8
Layer 1
10
257.900486
20
105.005923
11
261.450400
21
110.866992
0
LINE
8
Layer 1
10
261.450400
20
110.866992
11
264.686004
21
116.725240
0
LINE
8
Layer 1
10
264.686004
20
116.725240
11
267.616138
21
122.572409
0
LINE
8
Layer 1
10
267.616138
20
122.572409
11
270.249642
21
128.400241
0
LINE
8
Layer 1
10
270.249642
20
128.400241
11
272.595356
21
134.200479
0
LINE
8
Layer 1
10
272.595356
20
134.200479
11
274.662119
21
139.964864
0
LINE
8
Layer 1
10
274.662119
20
139.964864
11
276.458772
21
145.685139
0
LINE
8
Layer 1
10
276.458772
20
145.685139
11
277.994154
21
151.353045
0
LINE
8
Layer 1
10
277.994154
20
151.353045
11
279.277105
21
156.960326
0
LINE
8
Layer 1
10
279.277105
20
156.960326
11
280.316466
21
162.498722
0
LINE
8
Layer 1
10
280.316466
20
162.498722
11
281.121076
21
167.959976
0
LINE
8
Layer 1
10
281.121076
20
167.959976
11
281.699774
21
173.335829
0
LINE
8
Layer 1
10
281.699774
20
173.335829
11
282.061402
21
178.618025
0
LINE
8
Layer 1
10
282.061402
20
178.618025
11
282.214798
21
183.798305
0
LINE
8
Layer 1
10
282.214798
20
183.798305
11
282.168803
21
188.868411
0
LINE
8
Layer 1
10
282.168803
20
188.868411
11
281.932256
21
193.820086
0
LINE
8
Layer 1
10
281.932256
20
193.820086
11
281.513998
21
198.645071
0
LINE
8
Layer 1
10
281.513998
20
198.645071
11
280.922868
21
203.335108
0
LINE
8
Layer 1
10
280.922868
20
203.335108
11
280.167706
21
207.881939
0
LINE
8
Layer 1
10
280.167706
20
207.881939
11
279.257352
21
212.277307
0
LINE
8
Layer 1
10
279.257352
20
212.277307
11
278.200646
21
216.512954
0
LINE
8
Layer 1
10
278.200646
20
216.512954
11
277.006428
21
220.580621
0
LINE
8
Layer 1
10
277.006428
20
220.580621
11
275.683538
21
224.472051
0
LINE
8
Layer 1
10
275.683538
20
224.472051
11
274.240815
21
228.178986
0
LINE
8
Layer 1
10
274.240815
20
228.178986
11
272.687100
21
231.693168
0
LINE
8
Layer 1
10
272.687100
20
231.693168
11
271.031232
21
235.006339
0
LINE
8
Layer 1
10
271.031232
20
235.006339
11
269.282052
21
238.110241
0
LINE
8
Layer 1
10
269.282052
20
238.110241
11
267.448398
21
240.996616
0
LINE
8
Layer 1
10
267.448398
20
240.996616
11
265.539112
21
243.657206
0
LINE
8
Layer 1
10
265.539112
20
243.657206
11
263.563033
21
246.083753
0
LINE
8
Layer 1
10
263.563033
20
246.083753
11
261.529000
21
248.268000
0
LINE
8
Layer 1
10
261.529000
20
248.268000
11
261.529000
21
248.268000
 0 
ENDSEC
 0 
EOF