999
"DXF R12 Output" (www.mydxf.blogspot.com)
 0 
SECTION
 2 
HEADER
 9 
$ACADVER
 1 
AC1009
 9 
$EXTMIN
 10 
 0 
 20 
 0 
 9 
$EXTMAX
 10 
 8.5 
 20 
 11 
 0 
ENDSEC
 0 
SECTION
 2 
ENTITIES
0
LINE
8
Layer 1
10
261.529000
20
248.268000
11
258.342030
21
251.325478
0
LINE
8
Layer 1
10
258.342030
20
251.325478
11
255.140557
21
254.145405
0
LINE
8
Layer 1
10
255.140557
20
254.145405
11
251.927675
21
256.734234
0
LINE
8
Layer 1
10
251.927675
20
256.734234
11
248.706475
21
259.098424
0
LINE
8
Layer 1
10
248.706475
20
259.098424
11
245.480050
21
261.244428
0
LINE
8
Layer 1
10
245.480050
20
261.244428
11
242.251494
21
263.178704
0
LINE
8
Layer 1
10
242.251494
20
263.178704
11
239.023900
21
264.907706
0
LINE
8
Layer 1
10
239.023900
20
264.907706
11
235.800359
21
266.437891
0
LINE
8
Layer 1
10
235.800359
20
266.437891
11
232.583966
21
267.775713
0
LINE
8
Layer 1
10
232.583966
20
267.775713
11
229.377812
21
268.927630
0
LINE
8
Layer 1
10
229.377812
20
268.927630
11
226.184991
21
269.900097
0
LINE
8
Layer 1
10
226.184991
20
269.900097
11
223.008596
21
270.699568
0
LINE
8
Layer 1
10
223.008596
20
270.699568
11
219.851718
21
271.332501
0
LINE
8
Layer 1
10
219.851718
20
271.332501
11
216.717452
21
271.805351
0
LINE
8
Layer 1
10
216.717452
20
271.805351
11
210.529125
21
272.296625
0
LINE
8
Layer 1
10
210.529125
20
272.296625
11
204.468356
21
272.225035
0
LINE
8
Layer 1
10
204.468356
20
272.225035
11
198.559889
21
271.642229
0
LINE
8
Layer 1
10
198.559889
20
271.642229
11
192.828465
21
270.599850
0
LINE
8
Layer 1
10
192.828465
20
270.599850
11
187.298828
21
269.149547
0
LINE
8
Layer 1
10
187.298828
20
269.149547
11
181.995720
21
267.342964
0
LINE
8
Layer 1
10
181.995720
20
267.342964
11
176.943885
21
265.231748
0
LINE
8
Layer 1
10
176.943885
20
265.231748
11
172.168064
21
262.867545
0
LINE
8
Layer 1
10
172.168064
20
262.867545
11
167.693000
21
260.302000
0
LINE
8
Layer 1
10
167.693000
20
260.302000
11
163.948181
21
257.819861
0
LINE
8
Layer 1
10
163.948181
20
257.819861
11
160.562154
21
255.218291
0
LINE
8
Layer 1
10
160.562154
20
255.218291
11
157.517562
21
252.530252
0
LINE
8
Layer 1
10
157.517562
20
252.530252
11
154.797047
21
249.788703
0
LINE
8
Layer 1
10
154.797047
20
249.788703
11
152.383253
21
247.026606
0
LINE
8
Layer 1
10
152.383253
20
247.026606
11
150.258822
21
244.276920
0
LINE
8
Layer 1
10
150.258822
20
244.276920
11
148.406399
21
241.572606
0
LINE
8
Layer 1
10
148.406399
20
241.572606
11
146.808625
21
238.946625
0
LINE
8
Layer 1
10
146.808625
20
238.946625
11
144.307600
21
234.061502
0
LINE
8
Layer 1
10
144.307600
20
234.061502
11
142.616891
21
229.885234
0
LINE
8
Layer 1
10
142.616891
20
229.885234
11
141.597643
21
226.681506
0
LINE
8
Layer 1
10
141.597643
20
226.681506
11
141.111000
21
224.714000
0
LINE
8
Layer 1
10
141.111000
20
224.714000
11
140.624352
21
226.681506
0
LINE
8
Layer 1
10
140.624352
20
226.681506
11
139.605063
21
229.885234
0
LINE
8
Layer 1
10
139.605063
20
229.885234
11
137.914242
21
234.061502
0
LINE
8
Layer 1
10
137.914242
20
234.061502
11
135.413000
21
238.946625
0
LINE
8
Layer 1
10
135.413000
20
238.946625
11
133.815067
21
241.572606
0
LINE
8
Layer 1
10
133.815067
20
241.572606
11
131.962445
21
244.276920
0
LINE
8
Layer 1
10
131.962445
20
244.276920
11
129.837772
21
247.026606
0
LINE
8
Layer 1
10
129.837772
20
247.026606
11
127.423687
21
249.788703
0
LINE
8
Layer 1
10
127.423687
20
249.788703
11
124.702829
21
252.530252
0
LINE
8
Layer 1
10
124.702829
20
252.530252
11
121.657836
21
255.218291
0
LINE
8
Layer 1
10
121.657836
20
255.218291
11
118.271347
21
257.819861
0
LINE
8
Layer 1
10
118.271347
20
257.819861
11
114.526000
21
260.302000
0
LINE
8
Layer 1
10
114.526000
20
260.302000
11
110.050902
21
262.867545
0
LINE
8
Layer 1
10
110.050902
20
262.867545
11
105.275054
21
265.231748
0
LINE
8
Layer 1
10
105.275054
20
265.231748
11
100.223205
21
267.342964
0
LINE
8
Layer 1
10
100.223205
20
267.342964
11
94.920098
21
269.149547
0
LINE
8
Layer 1
10
94.920098
20
269.149547
11
89.390482
21
270.599850
0
LINE
8
Layer 1
10
89.390482
20
270.599850
11
83.659103
21
271.642229
0
LINE
8
Layer 1
10
83.659103
20
271.642229
11
77.750705
21
272.225035
0
LINE
8
Layer 1
10
77.750705
20
272.225035
11
71.690037
21
272.296625
0
LINE
8
Layer 1
10
71.690037
20
272.296625
11
65.501845
21
271.805351
0
LINE
8
Layer 1
10
65.501845
20
271.805351
11
62.367660
21
271.332501
0
LINE
8
Layer 1
10
62.367660
20
271.332501
11
59.210874
21
270.699568
0
LINE
8
Layer 1
10
59.210874
20
270.699568
11
56.034580
21
269.900097
0
LINE
8
Layer 1
10
56.034580
20
269.900097
11
52.841871
21
268.927630
0
LINE
8
Layer 1
10
52.841871
20
268.927630
11
49.635841
21
267.775713
0
LINE
8
Layer 1
10
49.635841
20
267.775713
11
46.419583
21
266.437891
0
LINE
8
Layer 1
10
46.419583
20
266.437891
11
43.196190
21
264.907706
0
LINE
8
Layer 1
10
43.196190
20
264.907706
11
39.968755
21
263.178704
0
LINE
8
Layer 1
10
39.968755
20
263.178704
11
36.740372
21
261.244428
0
LINE
8
Layer 1
10
36.740372
20
261.244428
11
33.514135
21
259.098424
0
LINE
8
Layer 1
10
33.514135
20
259.098424
11
30.293135
21
256.734234
0
LINE
8
Layer 1
10
30.293135
20
256.734234
11
27.080467
21
254.145405
0
LINE
8
Layer 1
10
27.080467
20
254.145405
11
23.879225
21
251.325478
0
LINE
8
Layer 1
10
23.879225
20
251.325478
11
20.692500
21
248.268000
0
LINE
8
Layer 1
10
20.692500
20
248.268000
11
18.658487
21
246.083753
0
LINE
8
Layer 1
10
18.658487
20
246.083753
11
16.682427
21
243.657206
0
LINE
8
Layer 1
10
16.682427
20
243.657206
11
14.773160
21
240.996616
0
LINE
8
Layer 1
10
14.773160
20
240.996616
11
12.939525
21
238.110241
0
LINE
8
Layer 1
10
12.939525
20
238.110241
11
11.190362
21
235.006339
0
LINE
8
Layer 1
10
11.190362
20
235.006339
11
9.534512
21
231.693168
0
LINE
8
Layer 1
10
9.534512
20
231.693168
11
7.980813
21
228.178986
0
LINE
8
Layer 1
10
7.980813
20
228.178986
11
6.538106
21
224.472052
0
LINE
8
Layer 1
10
6.538106
20
224.472052
11
5.215230
21
220.580622
0
LINE
8
Layer 1
10
5.215230
20
220.580622
11
4.021025
21
216.512954
0
LINE
8
Layer 1
10
4.021025
20
216.512954
11
2.964331
21
212.277308
0
LINE
8
Layer 1
10
2.964331
20
212.277308
11
2.053988
21
207.881940
0
LINE
8
Layer 1
10
2.053988
20
207.881940
11
1.298835
21
203.335108
0
LINE
8
Layer 1
10
1.298835
20
203.335108
11
0.707712
21
198.645071
0
LINE
8
Layer 1
10
0.707712
20
198.645071
11
0.289459
21
193.820087
0
LINE
8
Layer 1
10
0.289459
20
193.820087
11
0.052916
21
188.868412
0
LINE
8
Layer 1
10
0.052916
20
188.868412
11
0.006923
21
183.798307
0
LINE
8
Layer 1
10
0.006923
20
183.798307
11
0.160318
21
178.618027
0
LINE
8
Layer 1
10
0.160318
20
178.618027
11
0.521943
21
173.335831
0
LINE
8
Layer 1
10
0.521943
20
173.335831
11
1.100636
21
167.959978
0
LINE
8
Layer 1
10
1.100636
20
167.959978
11
1.905238
21
162.498724
0
LINE
8
Layer 1
10
1.905238
20
162.498724
11
2.944589
21
156.960328
0
LINE
8
Layer 1
10
2.944589
20
156.960328
11
4.227527
21
151.353048
0
LINE
8
Layer 1
10
4.227527
20
151.353048
11
5.762894
21
145.685142
0
LINE
8
Layer 1
10
5.762894
20
145.685142
11
7.559528
21
139.964868
0
LINE
8
Layer 1
10
7.559528
20
139.964868
11
9.626269
21
134.200483
0
LINE
8
Layer 1
10
9.626269
20
134.200483
11
11.971958
21
128.400246
0
LINE
8
Layer 1
10
11.971958
20
128.400246
11
14.605433
21
122.572414
0
LINE
8
Layer 1
10
14.605433
20
122.572414
11
17.535535
21
116.725245
0
LINE
8
Layer 1
10
17.535535
20
116.725245
11
20.771104
21
110.866998
0
LINE
8
Layer 1
10
20.771104
20
110.866998
11
24.320979
21
105.005931
0
LINE
8
Layer 1
10
24.320979
20
105.005931
11
28.194000
21
99.150300
0
LINE
8
Layer 1
10
28.194000
20
99.150300
11
32.628599
21
92.882036
0
LINE
8
Layer 1
10
32.628599
20
92.882036
11
37.106943
21
86.852770
0
LINE
8
Layer 1
10
37.106943
20
86.852770
11
41.618687
21
81.059106
0
LINE
8
Layer 1
10
41.618687
20
81.059106
11
46.153487
21
75.497650
0
LINE
8
Layer 1
10
46.153487
20
75.497650
11
50.700995
21
70.165007
0
LINE
8
Layer 1
10
50.700995
20
70.165007
11
55.250869
21
65.057782
0
LINE
8
Layer 1
10
55.250869
20
65.057782
11
64.316330
21
55.506011
0
LINE
8
Layer 1
10
64.316330
20
55.506011
11
73.267108
21
46.815178
0
LINE
8
Layer 1
10
73.267108
20
46.815178
11
82.020442
21
38.958126
0
LINE
8
Layer 1
10
82.020442
20
38.958126
11
90.493573
21
31.907698
0
LINE
8
Layer 1
10
90.493573
20
31.907698
11
98.603737
21
25.636736
0
LINE
8
Layer 1
10
98.603737
20
25.636736
11
106.268176
21
20.118085
0
LINE
8
Layer 1
10
106.268176
20
20.118085
11
113.404128
21
15.324586
0
LINE
8
Layer 1
10
113.404128
20
15.324586
11
119.928832
21
11.229082
0
LINE
8
Layer 1
10
119.928832
20
11.229082
11
125.759527
21
7.804417
0
LINE
8
Layer 1
10
125.759527
20
7.804417
11
130.813452
21
5.023432
0
LINE
8
Layer 1
10
130.813452
20
5.023432
11
135.007846
21
2.858971
0
LINE
8
Layer 1
10
135.007846
20
2.858971
11
140.487000
21
0.270992
0
LINE
8
Layer 1
10
140.487000
20
0.270992
11
141.110711
21
-0.011230
0
LINE
8
Layer 1
10
141.110711
20
-0.011230
11
141.734422
21
0.270992
0
LINE
8
Layer 1
10
141.734422
20
0.270992
11
147.212917
21
2.858971
0
LINE
8
Layer 1
10
147.212917
20
2.858971
11
151.407150
21
5.023432
0
LINE
8
Layer 1
10
151.407150
20
5.023432
11
156.461006
21
7.804417
0
LINE
8
Layer 1
10
156.461006
20
7.804417
11
162.291712
21
11.229082
0
LINE
8
Layer 1
10
162.291712
20
11.229082
11
168.816492
21
15.324586
0
LINE
8
Layer 1
10
168.816492
20
15.324586
11
175.952572
21
20.118085
0
LINE
8
Layer 1
10
175.952572
20
20.118085
11
183.617178
21
25.636736
0
LINE
8
Layer 1
10
183.617178
20
25.636736
11
191.727535
21
31.907698
0
LINE
8
Layer 1
10
191.727535
20
31.907698
11
200.200868
21
38.958126
0
LINE
8
Layer 1
10
200.200868
20
38.958126
11
208.954403
21
46.815178
0
LINE
8
Layer 1
10
208.954403
20
46.815178
11
217.905366
21
55.506011
0
LINE
8
Layer 1
10
217.905366
20
55.506011
11
226.970982
21
65.057782
0
LINE
8
Layer 1
10
226.970982
20
65.057782
11
231.520917
21
70.165007
0
LINE
8
Layer 1
10
231.520917
20
70.165007
11
236.068475
21
75.497650
0
LINE
8
Layer 1
10
236.068475
20
75.497650
11
240.603310
21
81.059106
0
LINE
8
Layer 1
10
240.603310
20
81.059106
11
245.115073
21
86.852770
0
LINE
8
Layer 1
10
245.115073
20
86.852770
11
249.593419
21
92.882036
0
LINE
8
Layer 1
10
249.593419
20
92.882036
11
254.028000
21
99.150300
0
LINE
8
Layer 1
10
254.028000
20
99.150300
11
257.901011
21
105.005931
0
LINE
8
Layer 1
10
257.901011
20
105.005931
11
261.450876
21
110.866998
0
LINE
8
Layer 1
10
261.450876
20
110.866998
11
264.686434
21
116.725245
0
LINE
8
Layer 1
10
264.686434
20
116.725245
11
267.616525
21
122.572414
0
LINE
8
Layer 1
10
267.616525
20
122.572414
11
270.249989
21
128.400246
0
LINE
8
Layer 1
10
270.249989
20
128.400246
11
272.595666
21
134.200483
0
LINE
8
Layer 1
10
272.595666
20
134.200483
11
274.662395
21
139.964868
0
LINE
8
Layer 1
10
274.662395
20
139.964868
11
276.459016
21
145.685142
0
LINE
8
Layer 1
10
276.459016
20
145.685142
11
277.994369
21
151.353048
0
LINE
8
Layer 1
10
277.994369
20
151.353048
11
279.277293
21
156.960328
0
LINE
8
Layer 1
10
279.277293
20
156.960328
11
280.316629
21
162.498724
0
LINE
8
Layer 1
10
280.316629
20
162.498724
11
281.121217
21
167.959978
0
LINE
8
Layer 1
10
281.121217
20
167.959978
11
281.699895
21
173.335831
0
LINE
8
Layer 1
10
281.699895
20
173.335831
11
282.061505
21
178.618027
0
LINE
8
Layer 1
10
282.061505
20
178.618027
11
282.214885
21
183.798307
0
LINE
8
Layer 1
10
282.214885
20
183.798307
11
282.168875
21
188.868412
0
LINE
8
Layer 1
10
282.168875
20
188.868412
11
281.932316
21
193.820087
0
LINE
8
Layer 1
10
281.932316
20
193.820087
11
281.514046
21
198.645071
0
LINE
8
Layer 1
10
281.514046
20
198.645071
11
280.922906
21
203.335108
0
LINE
8
Layer 1
10
280.922906
20
203.335108
11
280.167736
21
207.881940
0
LINE
8
Layer 1
10
280.167736
20
207.881940
11
279.257376
21
212.277308
0
LINE
8
Layer 1
10
279.257376
20
212.277308
11
278.200664
21
216.512954
0
LINE
8
Layer 1
10
278.200664
20
216.512954
11
277.006441
21
220.580622
0
LINE
8
Layer 1
10
277.006441
20
220.580622
11
275.683547
21
224.472052
0
LINE
8
Layer 1
10
275.683547
20
224.472052
11
274.240821
21
228.178986
0
LINE
8
Layer 1
10
274.240821
20
228.178986
11
272.687104
21
231.693168
0
LINE
8
Layer 1
10
272.687104
20
231.693168
11
271.031234
21
235.006339
0
LINE
8
Layer 1
10
271.031234
20
235.006339
11
269.282053
21
238.110241
0
LINE
8
Layer 1
10
269.282053
20
238.110241
11
267.448399
21
240.996616
0
LINE
8
Layer 1
10
267.448399
20
240.996616
11
265.539112
21
243.657206
0
LINE
8
Layer 1
10
265.539112
20
243.657206
11
263.563033
21
246.083753
0
LINE
8
Layer 1
10
263.563033
20
246.083753
11
261.529000
21
248.268000
0
LINE
8
Layer 1
10
261.529000
20
248.268000
11
261.529000
21
248.268000
 0 
ENDSEC
 0 
EOF