<?xml version="1.0" encoding="UTF-8"?>
<svg width="752pt" height="752pt" version="1.1" viewBox="0 0 752 752" xmlns="http://www.w3.org/2000/svg">
 <g fill-rule="evenodd">
  <path d="m407.53 239.81c0 4.207-6.3086 4.207-6.3086 0 0-4.2031 6.3086-4.2031 6.3086 0"/>
  <path d="m418.88 239.81c0 4.207-6.3086 4.207-6.3086 0 0-4.2031 6.3086-4.2031 6.3086 0"/>
  <path d="m430.23 239.81c0 4.207-6.3086 4.207-6.3086 0 0-4.2031 6.3086-4.2031 6.3086 0"/>
  <path d="m441.58 239.81c0 4.207-6.3086 4.207-6.3086 0 0-4.2031 6.3086-4.2031 6.3086 0"/>
  <path d="m214.59 251.16c0 4.207-6.3047 4.207-6.3047 0s6.3047-4.207 6.3047 0"/>
  <path d="m225.95 251.16c0 4.207-6.3086 4.207-6.3086 0s6.3086-4.207 6.3086 0"/>
  <path d="m237.29 251.16c0 4.207-6.3086 4.207-6.3086 0s6.3086-4.207 6.3086 0"/>
  <path d="m248.64 251.16c0 4.207-6.3047 4.207-6.3047 0s6.3047-4.207 6.3047 0"/>
  <path d="m259.99 251.16c0 4.207-6.3086 4.207-6.3086 0s6.3086-4.207 6.3086 0"/>
  <path d="m373.49 251.16c0 4.207-6.3086 4.207-6.3086 0s6.3086-4.207 6.3086 0"/>
  <path d="m384.83 251.16c0 4.207-6.3047 4.207-6.3047 0s6.3047-4.207 6.3047 0"/>
  <path d="m396.18 251.16c0 4.207-6.3047 4.207-6.3047 0s6.3047-4.207 6.3047 0"/>
  <path d="m407.53 251.16c0 4.207-6.3086 4.207-6.3086 0s6.3086-4.207 6.3086 0"/>
  <path d="m418.88 251.16c0 4.207-6.3086 4.207-6.3086 0s6.3086-4.207 6.3086 0"/>
  <path d="m430.23 251.16c0 4.207-6.3086 4.207-6.3086 0s6.3086-4.207 6.3086 0"/>
  <path d="m441.58 251.16c0 4.207-6.3086 4.207-6.3086 0s6.3086-4.207 6.3086 0"/>
  <path d="m452.93 251.16c0 4.207-6.3086 4.207-6.3086 0s6.3086-4.207 6.3086 0"/>
  <path d="m203.24 262.51c0 4.207-6.3047 4.207-6.3047 0 0-4.207 6.3047-4.207 6.3047 0"/>
  <path d="m214.59 262.51c0 4.207-6.3047 4.207-6.3047 0 0-4.207 6.3047-4.207 6.3047 0"/>
  <path d="m225.95 262.51c0 4.207-6.3086 4.207-6.3086 0 0-4.207 6.3086-4.207 6.3086 0"/>
  <path d="m237.29 262.51c0 4.207-6.3086 4.207-6.3086 0 0-4.207 6.3086-4.207 6.3086 0"/>
  <path d="m248.64 262.51c0 4.207-6.3047 4.207-6.3047 0 0-4.207 6.3047-4.207 6.3047 0"/>
  <path d="m259.99 262.51c0 4.207-6.3086 4.207-6.3086 0 0-4.207 6.3086-4.207 6.3086 0"/>
  <path d="m271.34 262.51c0 4.207-6.3086 4.207-6.3086 0 0-4.207 6.3086-4.207 6.3086 0"/>
  <path d="m282.69 262.51c0 4.207-6.3086 4.207-6.3086 0 0-4.207 6.3086-4.207 6.3086 0"/>
  <path d="m294.04 262.51c0 4.207-6.3086 4.207-6.3086 0 0-4.207 6.3086-4.207 6.3086 0"/>
  <path d="m305.39 262.51c0 4.207-6.3086 4.207-6.3086 0 0-4.207 6.3086-4.207 6.3086 0"/>
  <path d="m316.73 262.51c0 4.207-6.3086 4.207-6.3086 0 0-4.207 6.3086-4.207 6.3086 0"/>
  <path d="m328.09 262.51c0 4.207-6.3086 4.207-6.3086 0 0-4.207 6.3086-4.207 6.3086 0"/>
  <path d="m362.14 262.51c0 4.207-6.3086 4.207-6.3086 0 0-4.207 6.3086-4.207 6.3086 0"/>
  <path d="m373.49 262.51c0 4.207-6.3086 4.207-6.3086 0 0-4.207 6.3086-4.207 6.3086 0"/>
  <path d="m384.83 262.51c0 4.207-6.3047 4.207-6.3047 0 0-4.207 6.3047-4.207 6.3047 0"/>
  <path d="m396.18 262.51c0 4.207-6.3047 4.207-6.3047 0 0-4.207 6.3047-4.207 6.3047 0"/>
  <path d="m407.53 262.51c0 4.207-6.3086 4.207-6.3086 0 0-4.207 6.3086-4.207 6.3086 0"/>
  <path d="m418.88 262.51c0 4.207-6.3086 4.207-6.3086 0 0-4.207 6.3086-4.207 6.3086 0"/>
  <path d="m430.23 262.51c0 4.207-6.3086 4.207-6.3086 0 0-4.207 6.3086-4.207 6.3086 0"/>
  <path d="m441.58 262.51c0 4.207-6.3086 4.207-6.3086 0 0-4.207 6.3086-4.207 6.3086 0"/>
  <path d="m203.24 273.86c0 4.207-6.3047 4.207-6.3047 0s6.3047-4.207 6.3047 0"/>
  <path d="m214.59 273.86c0 4.207-6.3047 4.207-6.3047 0s6.3047-4.207 6.3047 0"/>
  <path d="m225.95 273.86c0 4.207-6.3086 4.207-6.3086 0s6.3086-4.207 6.3086 0"/>
  <path d="m237.29 273.86c0 4.207-6.3086 4.207-6.3086 0s6.3086-4.207 6.3086 0"/>
  <path d="m248.64 273.86c0 4.207-6.3047 4.207-6.3047 0s6.3047-4.207 6.3047 0"/>
  <path d="m259.99 273.86c0 4.207-6.3086 4.207-6.3086 0s6.3086-4.207 6.3086 0"/>
  <path d="m271.34 273.86c0 4.207-6.3086 4.207-6.3086 0s6.3086-4.207 6.3086 0"/>
  <path d="m282.69 273.86c0 4.207-6.3086 4.207-6.3086 0s6.3086-4.207 6.3086 0"/>
  <path d="m294.04 273.86c0 4.207-6.3086 4.207-6.3086 0s6.3086-4.207 6.3086 0"/>
  <path d="m305.39 273.86c0 4.207-6.3086 4.207-6.3086 0s6.3086-4.207 6.3086 0"/>
  <path d="m316.73 273.86c0 4.207-6.3086 4.207-6.3086 0s6.3086-4.207 6.3086 0"/>
  <path d="m328.09 273.86c0 4.207-6.3086 4.207-6.3086 0s6.3086-4.207 6.3086 0"/>
  <path d="m339.44 273.86c0 4.207-6.3086 4.207-6.3086 0s6.3086-4.207 6.3086 0"/>
  <path d="m350.79 273.86c0 4.207-6.3086 4.207-6.3086 0s6.3086-4.207 6.3086 0"/>
  <path d="m362.14 273.86c0 4.207-6.3086 4.207-6.3086 0s6.3086-4.207 6.3086 0"/>
  <path d="m373.49 273.86c0 4.207-6.3086 4.207-6.3086 0s6.3086-4.207 6.3086 0"/>
  <path d="m384.83 273.86c0 4.207-6.3047 4.207-6.3047 0s6.3047-4.207 6.3047 0"/>
  <path d="m396.18 273.86c0 4.207-6.3047 4.207-6.3047 0s6.3047-4.207 6.3047 0"/>
  <path d="m407.53 273.86c0 4.207-6.3086 4.207-6.3086 0s6.3086-4.207 6.3086 0"/>
  <path d="m418.88 273.86c0 4.207-6.3086 4.207-6.3086 0s6.3086-4.207 6.3086 0"/>
  <path d="m430.23 273.86c0 4.207-6.3086 4.207-6.3086 0s6.3086-4.207 6.3086 0"/>
  <path d="m441.58 273.86c0 4.207-6.3086 4.207-6.3086 0s6.3086-4.207 6.3086 0"/>
  <path d="m452.93 273.86c0 4.207-6.3086 4.207-6.3086 0s6.3086-4.207 6.3086 0"/>
  <path d="m214.59 285.21c0 4.2031-6.3047 4.2031-6.3047 0 0-4.207 6.3047-4.207 6.3047 0"/>
  <path d="m225.95 285.21c0 4.2031-6.3086 4.2031-6.3086 0 0-4.207 6.3086-4.207 6.3086 0"/>
  <path d="m237.29 285.21c0 4.2031-6.3086 4.2031-6.3086 0 0-4.207 6.3086-4.207 6.3086 0"/>
  <path d="m248.64 285.21c0 4.2031-6.3047 4.2031-6.3047 0 0-4.207 6.3047-4.207 6.3047 0"/>
  <path d="m259.99 285.21c0 4.2031-6.3086 4.2031-6.3086 0 0-4.207 6.3086-4.207 6.3086 0"/>
  <path d="m271.34 285.21c0 4.2031-6.3086 4.2031-6.3086 0 0-4.207 6.3086-4.207 6.3086 0"/>
  <path d="m282.69 285.21c0 4.2031-6.3086 4.2031-6.3086 0 0-4.207 6.3086-4.207 6.3086 0"/>
  <path d="m294.04 285.21c0 4.2031-6.3086 4.2031-6.3086 0 0-4.207 6.3086-4.207 6.3086 0"/>
  <path d="m305.39 285.21c0 4.2031-6.3086 4.2031-6.3086 0 0-4.207 6.3086-4.207 6.3086 0"/>
  <path d="m316.73 285.21c0 4.2031-6.3086 4.2031-6.3086 0 0-4.207 6.3086-4.207 6.3086 0"/>
  <path d="m328.09 285.21c0 4.2031-6.3086 4.2031-6.3086 0 0-4.207 6.3086-4.207 6.3086 0"/>
  <path d="m339.44 285.21c0 4.2031-6.3086 4.2031-6.3086 0 0-4.207 6.3086-4.207 6.3086 0"/>
  <path d="m350.79 285.21c0 4.2031-6.3086 4.2031-6.3086 0 0-4.207 6.3086-4.207 6.3086 0"/>
  <path d="m362.14 285.21c0 4.2031-6.3086 4.2031-6.3086 0 0-4.207 6.3086-4.207 6.3086 0"/>
  <path d="m373.49 285.21c0 4.2031-6.3086 4.2031-6.3086 0 0-4.207 6.3086-4.207 6.3086 0"/>
  <path d="m384.83 285.21c0 4.2031-6.3047 4.2031-6.3047 0 0-4.207 6.3047-4.207 6.3047 0"/>
  <path d="m396.18 285.21c0 4.2031-6.3047 4.2031-6.3047 0 0-4.207 6.3047-4.207 6.3047 0"/>
  <path d="m407.53 285.21c0 4.2031-6.3086 4.2031-6.3086 0 0-4.207 6.3086-4.207 6.3086 0"/>
  <path d="m418.88 285.21c0 4.2031-6.3086 4.2031-6.3086 0 0-4.207 6.3086-4.207 6.3086 0"/>
  <path d="m430.23 285.21c0 4.2031-6.3086 4.2031-6.3086 0 0-4.207 6.3086-4.207 6.3086 0"/>
  <path d="m441.58 285.21c0 4.2031-6.3086 4.2031-6.3086 0 0-4.207 6.3086-4.207 6.3086 0"/>
  <path d="m452.93 285.21c0 4.2031-6.3086 4.2031-6.3086 0 0-4.207 6.3086-4.207 6.3086 0"/>
  <path d="m464.27 285.21c0 4.2031-6.3086 4.2031-6.3086 0 0-4.207 6.3086-4.207 6.3086 0"/>
  <path d="m475.62 285.21c0 4.2031-6.3086 4.2031-6.3086 0 0-4.207 6.3086-4.207 6.3086 0"/>
  <path d="m214.59 296.56c0 4.2031-6.3047 4.2031-6.3047 0 0-4.207 6.3047-4.207 6.3047 0"/>
  <path d="m225.95 296.56c0 4.2031-6.3086 4.2031-6.3086 0 0-4.207 6.3086-4.207 6.3086 0"/>
  <path d="m237.29 296.56c0 4.2031-6.3086 4.2031-6.3086 0 0-4.207 6.3086-4.207 6.3086 0"/>
  <path d="m248.64 296.56c0 4.2031-6.3047 4.2031-6.3047 0 0-4.207 6.3047-4.207 6.3047 0"/>
  <path d="m259.99 296.56c0 4.2031-6.3086 4.2031-6.3086 0 0-4.207 6.3086-4.207 6.3086 0"/>
  <path d="m271.34 296.56c0 4.2031-6.3086 4.2031-6.3086 0 0-4.207 6.3086-4.207 6.3086 0"/>
  <path d="m282.69 296.56c0 4.2031-6.3086 4.2031-6.3086 0 0-4.207 6.3086-4.207 6.3086 0"/>
  <path d="m294.04 296.56c0 4.2031-6.3086 4.2031-6.3086 0 0-4.207 6.3086-4.207 6.3086 0"/>
  <path d="m305.39 296.56c0 4.2031-6.3086 4.2031-6.3086 0 0-4.207 6.3086-4.207 6.3086 0"/>
  <path d="m316.73 296.56c0 4.2031-6.3086 4.2031-6.3086 0 0-4.207 6.3086-4.207 6.3086 0"/>
  <path d="m328.09 296.56c0 4.2031-6.3086 4.2031-6.3086 0 0-4.207 6.3086-4.207 6.3086 0"/>
  <path d="m339.44 296.56c0 4.2031-6.3086 4.2031-6.3086 0 0-4.207 6.3086-4.207 6.3086 0"/>
  <path d="m350.79 296.56c0 4.2031-6.3086 4.2031-6.3086 0 0-4.207 6.3086-4.207 6.3086 0"/>
  <path d="m362.14 296.56c0 4.2031-6.3086 4.2031-6.3086 0 0-4.207 6.3086-4.207 6.3086 0"/>
  <path d="m373.49 296.56c0 4.2031-6.3086 4.2031-6.3086 0 0-4.207 6.3086-4.207 6.3086 0"/>
  <path d="m384.83 296.56c0 4.2031-6.3047 4.2031-6.3047 0 0-4.207 6.3047-4.207 6.3047 0"/>
  <path d="m396.18 296.56c0 4.2031-6.3047 4.2031-6.3047 0 0-4.207 6.3047-4.207 6.3047 0"/>
  <path d="m407.53 296.56c0 4.2031-6.3086 4.2031-6.3086 0 0-4.207 6.3086-4.207 6.3086 0"/>
  <path d="m418.88 296.56c0 4.2031-6.3086 4.2031-6.3086 0 0-4.207 6.3086-4.207 6.3086 0"/>
  <path d="m430.23 296.56c0 4.2031-6.3086 4.2031-6.3086 0 0-4.207 6.3086-4.207 6.3086 0"/>
  <path d="m441.58 296.56c0 4.2031-6.3086 4.2031-6.3086 0 0-4.207 6.3086-4.207 6.3086 0"/>
  <path d="m452.93 296.56c0 4.2031-6.3086 4.2031-6.3086 0 0-4.207 6.3086-4.207 6.3086 0"/>
  <path d="m464.27 296.56c0 4.2031-6.3086 4.2031-6.3086 0 0-4.207 6.3086-4.207 6.3086 0"/>
  <path d="m475.62 296.56c0 4.2031-6.3086 4.2031-6.3086 0 0-4.207 6.3086-4.207 6.3086 0"/>
  <path d="m203.24 307.9c0 4.2031-6.3047 4.2031-6.3047 0 0-4.207 6.3047-4.207 6.3047 0"/>
  <path d="m214.59 307.9c0 4.2031-6.3047 4.2031-6.3047 0 0-4.207 6.3047-4.207 6.3047 0"/>
  <path d="m225.95 307.9c0 4.2031-6.3086 4.2031-6.3086 0 0-4.207 6.3086-4.207 6.3086 0"/>
  <path d="m237.29 307.9c0 4.2031-6.3086 4.2031-6.3086 0 0-4.207 6.3086-4.207 6.3086 0"/>
  <path d="m248.64 307.9c0 4.2031-6.3047 4.2031-6.3047 0 0-4.207 6.3047-4.207 6.3047 0"/>
  <path d="m259.99 307.9c0 4.2031-6.3086 4.2031-6.3086 0 0-4.207 6.3086-4.207 6.3086 0"/>
  <path d="m271.34 307.9c0 4.2031-6.3086 4.2031-6.3086 0 0-4.207 6.3086-4.207 6.3086 0"/>
  <path d="m282.69 307.9c0 4.2031-6.3086 4.2031-6.3086 0 0-4.207 6.3086-4.207 6.3086 0"/>
  <path d="m294.04 307.9c0 4.2031-6.3086 4.2031-6.3086 0 0-4.207 6.3086-4.207 6.3086 0"/>
  <path d="m305.39 307.9c0 4.2031-6.3086 4.2031-6.3086 0 0-4.207 6.3086-4.207 6.3086 0"/>
  <path d="m316.73 307.9c0 4.2031-6.3086 4.2031-6.3086 0 0-4.207 6.3086-4.207 6.3086 0"/>
  <path d="m328.09 307.9c0 4.2031-6.3086 4.2031-6.3086 0 0-4.207 6.3086-4.207 6.3086 0"/>
  <path d="m339.44 307.9c0 4.2031-6.3086 4.2031-6.3086 0 0-4.207 6.3086-4.207 6.3086 0"/>
  <path d="m350.79 307.9c0 4.2031-6.3086 4.2031-6.3086 0 0-4.207 6.3086-4.207 6.3086 0"/>
  <path d="m362.14 307.9c0 4.2031-6.3086 4.2031-6.3086 0 0-4.207 6.3086-4.207 6.3086 0"/>
  <path d="m373.49 307.9c0 4.2031-6.3086 4.2031-6.3086 0 0-4.207 6.3086-4.207 6.3086 0"/>
  <path d="m384.83 307.9c0 4.2031-6.3047 4.2031-6.3047 0 0-4.207 6.3047-4.207 6.3047 0"/>
  <path d="m396.18 307.9c0 4.2031-6.3047 4.2031-6.3047 0 0-4.207 6.3047-4.207 6.3047 0"/>
  <path d="m407.53 307.9c0 4.2031-6.3086 4.2031-6.3086 0 0-4.207 6.3086-4.207 6.3086 0"/>
  <path d="m418.88 307.9c0 4.2031-6.3086 4.2031-6.3086 0 0-4.207 6.3086-4.207 6.3086 0"/>
  <path d="m430.23 307.9c0 4.2031-6.3086 4.2031-6.3086 0 0-4.207 6.3086-4.207 6.3086 0"/>
  <path d="m441.58 307.9c0 4.2031-6.3086 4.2031-6.3086 0 0-4.207 6.3086-4.207 6.3086 0"/>
  <path d="m452.93 307.9c0 4.2031-6.3086 4.2031-6.3086 0 0-4.207 6.3086-4.207 6.3086 0"/>
  <path d="m464.27 307.9c0 4.2031-6.3086 4.2031-6.3086 0 0-4.207 6.3086-4.207 6.3086 0"/>
  <path d="m475.62 307.9c0 4.2031-6.3086 4.2031-6.3086 0 0-4.207 6.3086-4.207 6.3086 0"/>
  <path d="m486.98 307.9c0 4.2031-6.3086 4.2031-6.3086 0 0-4.207 6.3086-4.207 6.3086 0"/>
  <path d="m498.32 307.9c0 4.2031-6.3086 4.2031-6.3086 0 0-4.207 6.3086-4.207 6.3086 0"/>
  <path d="m521.03 307.9c0 4.2031-6.3086 4.2031-6.3086 0 0-4.207 6.3086-4.207 6.3086 0"/>
  <path d="m191.89 319.25c0 4.2031-6.3086 4.2031-6.3086 0 0-4.207 6.3086-4.207 6.3086 0"/>
  <path d="m203.24 319.25c0 4.2031-6.3047 4.2031-6.3047 0 0-4.207 6.3047-4.207 6.3047 0"/>
  <path d="m214.59 319.25c0 4.2031-6.3047 4.2031-6.3047 0 0-4.207 6.3047-4.207 6.3047 0"/>
  <path d="m225.95 319.25c0 4.2031-6.3086 4.2031-6.3086 0 0-4.207 6.3086-4.207 6.3086 0"/>
  <path d="m237.29 319.25c0 4.2031-6.3086 4.2031-6.3086 0 0-4.207 6.3086-4.207 6.3086 0"/>
  <path d="m248.64 319.25c0 4.2031-6.3047 4.2031-6.3047 0 0-4.207 6.3047-4.207 6.3047 0"/>
  <path d="m259.99 319.25c0 4.2031-6.3086 4.2031-6.3086 0 0-4.207 6.3086-4.207 6.3086 0"/>
  <path d="m271.34 319.25c0 4.2031-6.3086 4.2031-6.3086 0 0-4.207 6.3086-4.207 6.3086 0"/>
  <path d="m282.69 319.25c0 4.2031-6.3086 4.2031-6.3086 0 0-4.207 6.3086-4.207 6.3086 0"/>
  <path d="m294.04 319.25c0 4.2031-6.3086 4.2031-6.3086 0 0-4.207 6.3086-4.207 6.3086 0"/>
  <path d="m305.39 319.25c0 4.2031-6.3086 4.2031-6.3086 0 0-4.207 6.3086-4.207 6.3086 0"/>
  <path d="m316.73 319.25c0 4.2031-6.3086 4.2031-6.3086 0 0-4.207 6.3086-4.207 6.3086 0"/>
  <path d="m328.09 319.25c0 4.2031-6.3086 4.2031-6.3086 0 0-4.207 6.3086-4.207 6.3086 0"/>
  <path d="m339.44 319.25c0 4.2031-6.3086 4.2031-6.3086 0 0-4.207 6.3086-4.207 6.3086 0"/>
  <path d="m350.79 319.25c0 4.2031-6.3086 4.2031-6.3086 0 0-4.207 6.3086-4.207 6.3086 0"/>
  <path d="m362.14 319.25c0 4.2031-6.3086 4.2031-6.3086 0 0-4.207 6.3086-4.207 6.3086 0"/>
  <path d="m373.49 319.25c0 4.2031-6.3086 4.2031-6.3086 0 0-4.207 6.3086-4.207 6.3086 0"/>
  <path d="m384.83 319.25c0 4.2031-6.3047 4.2031-6.3047 0 0-4.207 6.3047-4.207 6.3047 0"/>
  <path d="m396.18 319.25c0 4.2031-6.3047 4.2031-6.3047 0 0-4.207 6.3047-4.207 6.3047 0"/>
  <path d="m407.53 319.25c0 4.2031-6.3086 4.2031-6.3086 0 0-4.207 6.3086-4.207 6.3086 0"/>
  <path d="m418.88 319.25c0 4.2031-6.3086 4.2031-6.3086 0 0-4.207 6.3086-4.207 6.3086 0"/>
  <path d="m430.23 319.25c0 4.2031-6.3086 4.2031-6.3086 0 0-4.207 6.3086-4.207 6.3086 0"/>
  <path d="m441.58 319.25c0 4.2031-6.3086 4.2031-6.3086 0 0-4.207 6.3086-4.207 6.3086 0"/>
  <path d="m452.93 319.25c0 4.2031-6.3086 4.2031-6.3086 0 0-4.207 6.3086-4.207 6.3086 0"/>
  <path d="m464.27 319.25c0 4.2031-6.3086 4.2031-6.3086 0 0-4.207 6.3086-4.207 6.3086 0"/>
  <path d="m475.62 319.25c0 4.2031-6.3086 4.2031-6.3086 0 0-4.207 6.3086-4.207 6.3086 0"/>
  <path d="m486.98 319.25c0 4.2031-6.3086 4.2031-6.3086 0 0-4.207 6.3086-4.207 6.3086 0"/>
  <path d="m498.32 319.25c0 4.2031-6.3086 4.2031-6.3086 0 0-4.207 6.3086-4.207 6.3086 0"/>
  <path d="m509.68 319.25c0 4.2031-6.3086 4.2031-6.3086 0 0-4.207 6.3086-4.207 6.3086 0"/>
  <path d="m521.03 319.25c0 4.2031-6.3086 4.2031-6.3086 0 0-4.207 6.3086-4.207 6.3086 0"/>
  <path d="m532.37 319.25c0 4.2031-6.3086 4.2031-6.3086 0 0-4.207 6.3086-4.207 6.3086 0"/>
  <path d="m180.55 330.61c0 4.2031-6.3086 4.2031-6.3086 0 0-4.207 6.3086-4.207 6.3086 0"/>
  <path d="m191.89 330.61c0 4.2031-6.3086 4.2031-6.3086 0 0-4.207 6.3086-4.207 6.3086 0"/>
  <path d="m203.24 330.61c0 4.2031-6.3047 4.2031-6.3047 0 0-4.207 6.3047-4.207 6.3047 0"/>
  <path d="m214.59 330.61c0 4.2031-6.3047 4.2031-6.3047 0 0-4.207 6.3047-4.207 6.3047 0"/>
  <path d="m225.95 330.61c0 4.2031-6.3086 4.2031-6.3086 0 0-4.207 6.3086-4.207 6.3086 0"/>
  <path d="m237.29 330.61c0 4.2031-6.3086 4.2031-6.3086 0 0-4.207 6.3086-4.207 6.3086 0"/>
  <path d="m248.64 330.61c0 4.2031-6.3047 4.2031-6.3047 0 0-4.207 6.3047-4.207 6.3047 0"/>
  <path d="m259.99 330.61c0 4.2031-6.3086 4.2031-6.3086 0 0-4.207 6.3086-4.207 6.3086 0"/>
  <path d="m271.34 330.61c0 4.2031-6.3086 4.2031-6.3086 0 0-4.207 6.3086-4.207 6.3086 0"/>
  <path d="m282.69 330.61c0 4.2031-6.3086 4.2031-6.3086 0 0-4.207 6.3086-4.207 6.3086 0"/>
  <path d="m294.04 330.61c0 4.2031-6.3086 4.2031-6.3086 0 0-4.207 6.3086-4.207 6.3086 0"/>
  <path d="m305.39 330.61c0 4.2031-6.3086 4.2031-6.3086 0 0-4.207 6.3086-4.207 6.3086 0"/>
  <path d="m316.73 330.61c0 4.2031-6.3086 4.2031-6.3086 0 0-4.207 6.3086-4.207 6.3086 0"/>
  <path d="m328.09 330.61c0 4.2031-6.3086 4.2031-6.3086 0 0-4.207 6.3086-4.207 6.3086 0"/>
  <path d="m339.44 330.61c0 4.2031-6.3086 4.2031-6.3086 0 0-4.207 6.3086-4.207 6.3086 0"/>
  <path d="m350.79 330.61c0 4.2031-6.3086 4.2031-6.3086 0 0-4.207 6.3086-4.207 6.3086 0"/>
  <path d="m362.14 330.61c0 4.2031-6.3086 4.2031-6.3086 0 0-4.207 6.3086-4.207 6.3086 0"/>
  <path d="m373.49 330.61c0 4.2031-6.3086 4.2031-6.3086 0 0-4.207 6.3086-4.207 6.3086 0"/>
  <path d="m384.83 330.61c0 4.2031-6.3047 4.2031-6.3047 0 0-4.207 6.3047-4.207 6.3047 0"/>
  <path d="m396.18 330.61c0 4.2031-6.3047 4.2031-6.3047 0 0-4.207 6.3047-4.207 6.3047 0"/>
  <path d="m407.53 330.61c0 4.2031-6.3086 4.2031-6.3086 0 0-4.207 6.3086-4.207 6.3086 0"/>
  <path d="m418.88 330.61c0 4.2031-6.3086 4.2031-6.3086 0 0-4.207 6.3086-4.207 6.3086 0"/>
  <path d="m430.23 330.61c0 4.2031-6.3086 4.2031-6.3086 0 0-4.207 6.3086-4.207 6.3086 0"/>
  <path d="m441.58 330.61c0 4.2031-6.3086 4.2031-6.3086 0 0-4.207 6.3086-4.207 6.3086 0"/>
  <path d="m452.93 330.61c0 4.2031-6.3086 4.2031-6.3086 0 0-4.207 6.3086-4.207 6.3086 0"/>
  <path d="m464.27 330.61c0 4.2031-6.3086 4.2031-6.3086 0 0-4.207 6.3086-4.207 6.3086 0"/>
  <path d="m475.62 330.61c0 4.2031-6.3086 4.2031-6.3086 0 0-4.207 6.3086-4.207 6.3086 0"/>
  <path d="m486.98 330.61c0 4.2031-6.3086 4.2031-6.3086 0 0-4.207 6.3086-4.207 6.3086 0"/>
  <path d="m498.32 330.61c0 4.2031-6.3086 4.2031-6.3086 0 0-4.207 6.3086-4.207 6.3086 0"/>
  <path d="m509.68 330.61c0 4.2031-6.3086 4.2031-6.3086 0 0-4.207 6.3086-4.207 6.3086 0"/>
  <path d="m521.03 330.61c0 4.2031-6.3086 4.2031-6.3086 0 0-4.207 6.3086-4.207 6.3086 0"/>
  <path d="m532.37 330.61c0 4.2031-6.3086 4.2031-6.3086 0 0-4.207 6.3086-4.207 6.3086 0"/>
  <path d="m543.72 330.61c0 4.2031-6.3086 4.2031-6.3086 0 0-4.207 6.3086-4.207 6.3086 0"/>
  <path d="m555.07 330.61c0 4.2031-6.3086 4.2031-6.3086 0 0-4.207 6.3086-4.207 6.3086 0"/>
  <path d="m566.42 330.61c0 4.2031-6.3086 4.2031-6.3086 0 0-4.207 6.3086-4.207 6.3086 0"/>
  <path d="m577.77 330.61c0 4.2031-6.3086 4.2031-6.3086 0 0-4.207 6.3086-4.207 6.3086 0"/>
  <path d="m180.55 341.96c0 4.2031-6.3086 4.2031-6.3086 0 0-4.207 6.3086-4.207 6.3086 0"/>
  <path d="m191.89 341.96c0 4.2031-6.3086 4.2031-6.3086 0 0-4.207 6.3086-4.207 6.3086 0"/>
  <path d="m203.24 341.96c0 4.2031-6.3047 4.2031-6.3047 0 0-4.207 6.3047-4.207 6.3047 0"/>
  <path d="m214.59 341.96c0 4.2031-6.3047 4.2031-6.3047 0 0-4.207 6.3047-4.207 6.3047 0"/>
  <path d="m225.95 341.96c0 4.2031-6.3086 4.2031-6.3086 0 0-4.207 6.3086-4.207 6.3086 0"/>
  <path d="m237.29 341.96c0 4.2031-6.3086 4.2031-6.3086 0 0-4.207 6.3086-4.207 6.3086 0"/>
  <path d="m248.64 341.96c0 4.2031-6.3047 4.2031-6.3047 0 0-4.207 6.3047-4.207 6.3047 0"/>
  <path d="m259.99 341.96c0 4.2031-6.3086 4.2031-6.3086 0 0-4.207 6.3086-4.207 6.3086 0"/>
  <path d="m271.34 341.96c0 4.2031-6.3086 4.2031-6.3086 0 0-4.207 6.3086-4.207 6.3086 0"/>
  <path d="m282.69 341.96c0 4.2031-6.3086 4.2031-6.3086 0 0-4.207 6.3086-4.207 6.3086 0"/>
  <path d="m294.04 341.96c0 4.2031-6.3086 4.2031-6.3086 0 0-4.207 6.3086-4.207 6.3086 0"/>
  <path d="m305.39 341.96c0 4.2031-6.3086 4.2031-6.3086 0 0-4.207 6.3086-4.207 6.3086 0"/>
  <path d="m316.73 341.96c0 4.2031-6.3086 4.2031-6.3086 0 0-4.207 6.3086-4.207 6.3086 0"/>
  <path d="m328.09 341.96c0 4.2031-6.3086 4.2031-6.3086 0 0-4.207 6.3086-4.207 6.3086 0"/>
  <path d="m339.44 341.96c0 4.2031-6.3086 4.2031-6.3086 0 0-4.207 6.3086-4.207 6.3086 0"/>
  <path d="m350.79 341.96c0 4.2031-6.3086 4.2031-6.3086 0 0-4.207 6.3086-4.207 6.3086 0"/>
  <path d="m362.14 341.96c0 4.2031-6.3086 4.2031-6.3086 0 0-4.207 6.3086-4.207 6.3086 0"/>
  <path d="m373.49 341.96c0 4.2031-6.3086 4.2031-6.3086 0 0-4.207 6.3086-4.207 6.3086 0"/>
  <path d="m384.83 341.96c0 4.2031-6.3047 4.2031-6.3047 0 0-4.207 6.3047-4.207 6.3047 0"/>
  <path d="m396.18 341.96c0 4.2031-6.3047 4.2031-6.3047 0 0-4.207 6.3047-4.207 6.3047 0"/>
  <path d="m407.53 341.96c0 4.2031-6.3086 4.2031-6.3086 0 0-4.207 6.3086-4.207 6.3086 0"/>
  <path d="m418.88 341.96c0 4.2031-6.3086 4.2031-6.3086 0 0-4.207 6.3086-4.207 6.3086 0"/>
  <path d="m430.23 341.96c0 4.2031-6.3086 4.2031-6.3086 0 0-4.207 6.3086-4.207 6.3086 0"/>
  <path d="m441.58 341.96c0 4.2031-6.3086 4.2031-6.3086 0 0-4.207 6.3086-4.207 6.3086 0"/>
  <path d="m452.93 341.96c0 4.2031-6.3086 4.2031-6.3086 0 0-4.207 6.3086-4.207 6.3086 0"/>
  <path d="m464.27 341.96c0 4.2031-6.3086 4.2031-6.3086 0 0-4.207 6.3086-4.207 6.3086 0"/>
  <path d="m475.62 341.96c0 4.2031-6.3086 4.2031-6.3086 0 0-4.207 6.3086-4.207 6.3086 0"/>
  <path d="m486.98 341.96c0 4.2031-6.3086 4.2031-6.3086 0 0-4.207 6.3086-4.207 6.3086 0"/>
  <path d="m498.32 341.96c0 4.2031-6.3086 4.2031-6.3086 0 0-4.207 6.3086-4.207 6.3086 0"/>
  <path d="m509.68 341.96c0 4.2031-6.3086 4.2031-6.3086 0 0-4.207 6.3086-4.207 6.3086 0"/>
  <path d="m521.03 341.96c0 4.2031-6.3086 4.2031-6.3086 0 0-4.207 6.3086-4.207 6.3086 0"/>
  <path d="m532.37 341.96c0 4.2031-6.3086 4.2031-6.3086 0 0-4.207 6.3086-4.207 6.3086 0"/>
  <path d="m543.72 341.96c0 4.2031-6.3086 4.2031-6.3086 0 0-4.207 6.3086-4.207 6.3086 0"/>
  <path d="m555.07 341.96c0 4.2031-6.3086 4.2031-6.3086 0 0-4.207 6.3086-4.207 6.3086 0"/>
  <path d="m566.42 341.96c0 4.2031-6.3086 4.2031-6.3086 0 0-4.207 6.3086-4.207 6.3086 0"/>
  <path d="m577.77 341.96c0 4.2031-6.3086 4.2031-6.3086 0 0-4.207 6.3086-4.207 6.3086 0"/>
  <path d="m589.11 341.96c0 4.2031-6.3086 4.2031-6.3086 0 0-4.207 6.3086-4.207 6.3086 0"/>
  <path d="m180.55 353.3c0 4.207-6.3086 4.207-6.3086 0 0-4.2031 6.3086-4.2031 6.3086 0"/>
  <path d="m191.89 353.3c0 4.207-6.3086 4.207-6.3086 0 0-4.2031 6.3086-4.2031 6.3086 0"/>
  <path d="m203.24 353.3c0 4.207-6.3047 4.207-6.3047 0 0-4.2031 6.3047-4.2031 6.3047 0"/>
  <path d="m214.59 353.3c0 4.207-6.3047 4.207-6.3047 0 0-4.2031 6.3047-4.2031 6.3047 0"/>
  <path d="m225.95 353.3c0 4.207-6.3086 4.207-6.3086 0 0-4.2031 6.3086-4.2031 6.3086 0"/>
  <path d="m237.29 353.3c0 4.207-6.3086 4.207-6.3086 0 0-4.2031 6.3086-4.2031 6.3086 0"/>
  <path d="m248.64 353.3c0 4.207-6.3047 4.207-6.3047 0 0-4.2031 6.3047-4.2031 6.3047 0"/>
  <path d="m259.99 353.3c0 4.207-6.3086 4.207-6.3086 0 0-4.2031 6.3086-4.2031 6.3086 0"/>
  <path d="m271.34 353.3c0 4.207-6.3086 4.207-6.3086 0 0-4.2031 6.3086-4.2031 6.3086 0"/>
  <path d="m282.69 353.3c0 4.207-6.3086 4.207-6.3086 0 0-4.2031 6.3086-4.2031 6.3086 0"/>
  <path d="m294.04 353.3c0 4.207-6.3086 4.207-6.3086 0 0-4.2031 6.3086-4.2031 6.3086 0"/>
  <path d="m305.39 353.3c0 4.207-6.3086 4.207-6.3086 0 0-4.2031 6.3086-4.2031 6.3086 0"/>
  <path d="m316.73 353.3c0 4.207-6.3086 4.207-6.3086 0 0-4.2031 6.3086-4.2031 6.3086 0"/>
  <path d="m328.09 353.3c0 4.207-6.3086 4.207-6.3086 0 0-4.2031 6.3086-4.2031 6.3086 0"/>
  <path d="m339.44 353.3c0 4.207-6.3086 4.207-6.3086 0 0-4.2031 6.3086-4.2031 6.3086 0"/>
  <path d="m350.79 353.3c0 4.207-6.3086 4.207-6.3086 0 0-4.2031 6.3086-4.2031 6.3086 0"/>
  <path d="m362.14 353.3c0 4.207-6.3086 4.207-6.3086 0 0-4.2031 6.3086-4.2031 6.3086 0"/>
  <path d="m373.49 353.3c0 4.207-6.3086 4.207-6.3086 0 0-4.2031 6.3086-4.2031 6.3086 0"/>
  <path d="m384.83 353.3c0 4.207-6.3047 4.207-6.3047 0 0-4.2031 6.3047-4.2031 6.3047 0"/>
  <path d="m396.18 353.3c0 4.207-6.3047 4.207-6.3047 0 0-4.2031 6.3047-4.2031 6.3047 0"/>
  <path d="m407.53 353.3c0 4.207-6.3086 4.207-6.3086 0 0-4.2031 6.3086-4.2031 6.3086 0"/>
  <path d="m418.88 353.3c0 4.207-6.3086 4.207-6.3086 0 0-4.2031 6.3086-4.2031 6.3086 0"/>
  <path d="m430.23 353.3c0 4.207-6.3086 4.207-6.3086 0 0-4.2031 6.3086-4.2031 6.3086 0"/>
  <path d="m441.58 353.3c0 4.207-6.3086 4.207-6.3086 0 0-4.2031 6.3086-4.2031 6.3086 0"/>
  <path d="m452.93 353.3c0 4.207-6.3086 4.207-6.3086 0 0-4.2031 6.3086-4.2031 6.3086 0"/>
  <path d="m464.27 353.3c0 4.207-6.3086 4.207-6.3086 0 0-4.2031 6.3086-4.2031 6.3086 0"/>
  <path d="m475.62 353.3c0 4.207-6.3086 4.207-6.3086 0 0-4.2031 6.3086-4.2031 6.3086 0"/>
  <path d="m486.98 353.3c0 4.207-6.3086 4.207-6.3086 0 0-4.2031 6.3086-4.2031 6.3086 0"/>
  <path d="m498.32 353.3c0 4.207-6.3086 4.207-6.3086 0 0-4.2031 6.3086-4.2031 6.3086 0"/>
  <path d="m509.68 353.3c0 4.207-6.3086 4.207-6.3086 0 0-4.2031 6.3086-4.2031 6.3086 0"/>
  <path d="m521.03 353.3c0 4.207-6.3086 4.207-6.3086 0 0-4.2031 6.3086-4.2031 6.3086 0"/>
  <path d="m532.37 353.3c0 4.207-6.3086 4.207-6.3086 0 0-4.2031 6.3086-4.2031 6.3086 0"/>
  <path d="m543.72 353.3c0 4.207-6.3086 4.207-6.3086 0 0-4.2031 6.3086-4.2031 6.3086 0"/>
  <path d="m555.07 353.3c0 4.207-6.3086 4.207-6.3086 0 0-4.2031 6.3086-4.2031 6.3086 0"/>
  <path d="m566.42 353.3c0 4.207-6.3086 4.207-6.3086 0 0-4.2031 6.3086-4.2031 6.3086 0"/>
  <path d="m577.77 353.3c0 4.207-6.3086 4.207-6.3086 0 0-4.2031 6.3086-4.2031 6.3086 0"/>
  <path d="m589.11 353.3c0 4.207-6.3086 4.207-6.3086 0 0-4.2031 6.3086-4.2031 6.3086 0"/>
  <path d="m169.2 364.64c0 4.207-6.3086 4.207-6.3086 0 0-4.2031 6.3086-4.2031 6.3086 0"/>
  <path d="m180.55 364.64c0 4.207-6.3086 4.207-6.3086 0 0-4.2031 6.3086-4.2031 6.3086 0"/>
  <path d="m191.89 364.64c0 4.207-6.3086 4.207-6.3086 0 0-4.2031 6.3086-4.2031 6.3086 0"/>
  <path d="m203.24 364.64c0 4.207-6.3047 4.207-6.3047 0 0-4.2031 6.3047-4.2031 6.3047 0"/>
  <path d="m214.59 364.64c0 4.207-6.3047 4.207-6.3047 0 0-4.2031 6.3047-4.2031 6.3047 0"/>
  <path d="m225.95 364.64c0 4.207-6.3086 4.207-6.3086 0 0-4.2031 6.3086-4.2031 6.3086 0"/>
  <path d="m237.29 364.64c0 4.207-6.3086 4.207-6.3086 0 0-4.2031 6.3086-4.2031 6.3086 0"/>
  <path d="m248.64 364.64c0 4.207-6.3047 4.207-6.3047 0 0-4.2031 6.3047-4.2031 6.3047 0"/>
  <path d="m259.99 364.64c0 4.207-6.3086 4.207-6.3086 0 0-4.2031 6.3086-4.2031 6.3086 0"/>
  <path d="m271.34 364.64c0 4.207-6.3086 4.207-6.3086 0 0-4.2031 6.3086-4.2031 6.3086 0"/>
  <path d="m282.69 364.64c0 4.207-6.3086 4.207-6.3086 0 0-4.2031 6.3086-4.2031 6.3086 0"/>
  <path d="m294.04 364.64c0 4.207-6.3086 4.207-6.3086 0 0-4.2031 6.3086-4.2031 6.3086 0"/>
  <path d="m305.39 364.64c0 4.207-6.3086 4.207-6.3086 0 0-4.2031 6.3086-4.2031 6.3086 0"/>
  <path d="m316.73 364.64c0 4.207-6.3086 4.207-6.3086 0 0-4.2031 6.3086-4.2031 6.3086 0"/>
  <path d="m328.09 364.64c0 4.207-6.3086 4.207-6.3086 0 0-4.2031 6.3086-4.2031 6.3086 0"/>
  <path d="m339.44 364.64c0 4.207-6.3086 4.207-6.3086 0 0-4.2031 6.3086-4.2031 6.3086 0"/>
  <path d="m350.79 364.64c0 4.207-6.3086 4.207-6.3086 0 0-4.2031 6.3086-4.2031 6.3086 0"/>
  <path d="m362.14 364.64c0 4.207-6.3086 4.207-6.3086 0 0-4.2031 6.3086-4.2031 6.3086 0"/>
  <path d="m373.49 364.64c0 4.207-6.3086 4.207-6.3086 0 0-4.2031 6.3086-4.2031 6.3086 0"/>
  <path d="m384.83 364.64c0 4.207-6.3047 4.207-6.3047 0 0-4.2031 6.3047-4.2031 6.3047 0"/>
  <path d="m396.18 364.64c0 4.207-6.3047 4.207-6.3047 0 0-4.2031 6.3047-4.2031 6.3047 0"/>
  <path d="m407.53 364.64c0 4.207-6.3086 4.207-6.3086 0 0-4.2031 6.3086-4.2031 6.3086 0"/>
  <path d="m418.88 364.64c0 4.207-6.3086 4.207-6.3086 0 0-4.2031 6.3086-4.2031 6.3086 0"/>
  <path d="m430.23 364.64c0 4.207-6.3086 4.207-6.3086 0 0-4.2031 6.3086-4.2031 6.3086 0"/>
  <path d="m441.58 364.64c0 4.207-6.3086 4.207-6.3086 0 0-4.2031 6.3086-4.2031 6.3086 0"/>
  <path d="m452.93 364.64c0 4.207-6.3086 4.207-6.3086 0 0-4.2031 6.3086-4.2031 6.3086 0"/>
  <path d="m464.27 364.64c0 4.207-6.3086 4.207-6.3086 0 0-4.2031 6.3086-4.2031 6.3086 0"/>
  <path d="m475.62 364.64c0 4.207-6.3086 4.207-6.3086 0 0-4.2031 6.3086-4.2031 6.3086 0"/>
  <path d="m486.98 364.64c0 4.207-6.3086 4.207-6.3086 0 0-4.2031 6.3086-4.2031 6.3086 0"/>
  <path d="m498.32 364.64c0 4.207-6.3086 4.207-6.3086 0 0-4.2031 6.3086-4.2031 6.3086 0"/>
  <path d="m509.68 364.64c0 4.207-6.3086 4.207-6.3086 0 0-4.2031 6.3086-4.2031 6.3086 0"/>
  <path d="m521.03 364.64c0 4.207-6.3086 4.207-6.3086 0 0-4.2031 6.3086-4.2031 6.3086 0"/>
  <path d="m532.37 364.64c0 4.207-6.3086 4.207-6.3086 0 0-4.2031 6.3086-4.2031 6.3086 0"/>
  <path d="m543.72 364.64c0 4.207-6.3086 4.207-6.3086 0 0-4.2031 6.3086-4.2031 6.3086 0"/>
  <path d="m555.07 364.64c0 4.207-6.3086 4.207-6.3086 0 0-4.2031 6.3086-4.2031 6.3086 0"/>
  <path d="m566.42 364.64c0 4.207-6.3086 4.207-6.3086 0 0-4.2031 6.3086-4.2031 6.3086 0"/>
  <path d="m577.77 364.64c0 4.207-6.3086 4.207-6.3086 0 0-4.2031 6.3086-4.2031 6.3086 0"/>
  <path d="m589.11 364.64c0 4.207-6.3086 4.207-6.3086 0 0-4.2031 6.3086-4.2031 6.3086 0"/>
  <path d="m169.2 376c0 4.207-6.3086 4.207-6.3086 0 0-4.2031 6.3086-4.2031 6.3086 0"/>
  <path d="m180.55 376c0 4.207-6.3086 4.207-6.3086 0 0-4.2031 6.3086-4.2031 6.3086 0"/>
  <path d="m191.89 376c0 4.207-6.3086 4.207-6.3086 0 0-4.2031 6.3086-4.2031 6.3086 0"/>
  <path d="m203.24 376c0 4.207-6.3047 4.207-6.3047 0 0-4.2031 6.3047-4.2031 6.3047 0"/>
  <path d="m214.59 376c0 4.207-6.3047 4.207-6.3047 0 0-4.2031 6.3047-4.2031 6.3047 0"/>
  <path d="m225.95 376c0 4.207-6.3086 4.207-6.3086 0 0-4.2031 6.3086-4.2031 6.3086 0"/>
  <path d="m237.29 376c0 4.207-6.3086 4.207-6.3086 0 0-4.2031 6.3086-4.2031 6.3086 0"/>
  <path d="m248.64 376c0 4.207-6.3047 4.207-6.3047 0 0-4.2031 6.3047-4.2031 6.3047 0"/>
  <path d="m259.99 376c0 4.207-6.3086 4.207-6.3086 0 0-4.2031 6.3086-4.2031 6.3086 0"/>
  <path d="m271.34 376c0 4.207-6.3086 4.207-6.3086 0 0-4.2031 6.3086-4.2031 6.3086 0"/>
  <path d="m282.69 376c0 4.207-6.3086 4.207-6.3086 0 0-4.2031 6.3086-4.2031 6.3086 0"/>
  <path d="m294.04 376c0 4.207-6.3086 4.207-6.3086 0 0-4.2031 6.3086-4.2031 6.3086 0"/>
  <path d="m305.39 376c0 4.207-6.3086 4.207-6.3086 0 0-4.2031 6.3086-4.2031 6.3086 0"/>
  <path d="m316.73 376c0 4.207-6.3086 4.207-6.3086 0 0-4.2031 6.3086-4.2031 6.3086 0"/>
  <path d="m328.09 376c0 4.207-6.3086 4.207-6.3086 0 0-4.2031 6.3086-4.2031 6.3086 0"/>
  <path d="m339.44 376c0 4.207-6.3086 4.207-6.3086 0 0-4.2031 6.3086-4.2031 6.3086 0"/>
  <path d="m350.79 376c0 4.207-6.3086 4.207-6.3086 0 0-4.2031 6.3086-4.2031 6.3086 0"/>
  <path d="m362.14 376c0 4.207-6.3086 4.207-6.3086 0 0-4.2031 6.3086-4.2031 6.3086 0"/>
  <path d="m373.49 376c0 4.207-6.3086 4.207-6.3086 0 0-4.2031 6.3086-4.2031 6.3086 0"/>
  <path d="m384.83 376c0 4.207-6.3047 4.207-6.3047 0 0-4.2031 6.3047-4.2031 6.3047 0"/>
  <path d="m396.18 376c0 4.207-6.3047 4.207-6.3047 0 0-4.2031 6.3047-4.2031 6.3047 0"/>
  <path d="m407.53 376c0 4.207-6.3086 4.207-6.3086 0 0-4.2031 6.3086-4.2031 6.3086 0"/>
  <path d="m418.88 376c0 4.207-6.3086 4.207-6.3086 0 0-4.2031 6.3086-4.2031 6.3086 0"/>
  <path d="m430.23 376c0 4.207-6.3086 4.207-6.3086 0 0-4.2031 6.3086-4.2031 6.3086 0"/>
  <path d="m441.58 376c0 4.207-6.3086 4.207-6.3086 0 0-4.2031 6.3086-4.2031 6.3086 0"/>
  <path d="m452.93 376c0 4.207-6.3086 4.207-6.3086 0 0-4.2031 6.3086-4.2031 6.3086 0"/>
  <path d="m464.27 376c0 4.207-6.3086 4.207-6.3086 0 0-4.2031 6.3086-4.2031 6.3086 0"/>
  <path d="m475.62 376c0 4.207-6.3086 4.207-6.3086 0 0-4.2031 6.3086-4.2031 6.3086 0"/>
  <path d="m486.98 376c0 4.207-6.3086 4.207-6.3086 0 0-4.2031 6.3086-4.2031 6.3086 0"/>
  <path d="m498.32 376c0 4.207-6.3086 4.207-6.3086 0 0-4.2031 6.3086-4.2031 6.3086 0"/>
  <path d="m509.68 376c0 4.207-6.3086 4.207-6.3086 0 0-4.2031 6.3086-4.2031 6.3086 0"/>
  <path d="m521.03 376c0 4.207-6.3086 4.207-6.3086 0 0-4.2031 6.3086-4.2031 6.3086 0"/>
  <path d="m532.37 376c0 4.207-6.3086 4.207-6.3086 0 0-4.2031 6.3086-4.2031 6.3086 0"/>
  <path d="m543.72 376c0 4.207-6.3086 4.207-6.3086 0 0-4.2031 6.3086-4.2031 6.3086 0"/>
  <path d="m555.07 376c0 4.207-6.3086 4.207-6.3086 0 0-4.2031 6.3086-4.2031 6.3086 0"/>
  <path d="m566.42 376c0 4.207-6.3086 4.207-6.3086 0 0-4.2031 6.3086-4.2031 6.3086 0"/>
  <path d="m577.77 376c0 4.207-6.3086 4.207-6.3086 0 0-4.2031 6.3086-4.2031 6.3086 0"/>
  <path d="m180.55 387.35c0 4.207-6.3086 4.207-6.3086 0 0-4.2031 6.3086-4.2031 6.3086 0"/>
  <path d="m191.89 387.35c0 4.207-6.3086 4.207-6.3086 0 0-4.2031 6.3086-4.2031 6.3086 0"/>
  <path d="m203.24 387.35c0 4.207-6.3047 4.207-6.3047 0 0-4.2031 6.3047-4.2031 6.3047 0"/>
  <path d="m214.59 387.35c0 4.207-6.3047 4.207-6.3047 0 0-4.2031 6.3047-4.2031 6.3047 0"/>
  <path d="m225.95 387.35c0 4.207-6.3086 4.207-6.3086 0 0-4.2031 6.3086-4.2031 6.3086 0"/>
  <path d="m237.29 387.35c0 4.207-6.3086 4.207-6.3086 0 0-4.2031 6.3086-4.2031 6.3086 0"/>
  <path d="m248.64 387.35c0 4.207-6.3047 4.207-6.3047 0 0-4.2031 6.3047-4.2031 6.3047 0"/>
  <path d="m259.99 387.35c0 4.207-6.3086 4.207-6.3086 0 0-4.2031 6.3086-4.2031 6.3086 0"/>
  <path d="m305.39 387.35c0 4.207-6.3086 4.207-6.3086 0 0-4.2031 6.3086-4.2031 6.3086 0"/>
  <path d="m316.73 387.35c0 4.207-6.3086 4.207-6.3086 0 0-4.2031 6.3086-4.2031 6.3086 0"/>
  <path d="m328.09 387.35c0 4.207-6.3086 4.207-6.3086 0 0-4.2031 6.3086-4.2031 6.3086 0"/>
  <path d="m339.44 387.35c0 4.207-6.3086 4.207-6.3086 0 0-4.2031 6.3086-4.2031 6.3086 0"/>
  <path d="m350.79 387.35c0 4.207-6.3086 4.207-6.3086 0 0-4.2031 6.3086-4.2031 6.3086 0"/>
  <path d="m362.14 387.35c0 4.207-6.3086 4.207-6.3086 0 0-4.2031 6.3086-4.2031 6.3086 0"/>
  <path d="m373.49 387.35c0 4.207-6.3086 4.207-6.3086 0 0-4.2031 6.3086-4.2031 6.3086 0"/>
  <path d="m384.83 387.35c0 4.207-6.3047 4.207-6.3047 0 0-4.2031 6.3047-4.2031 6.3047 0"/>
  <path d="m396.18 387.35c0 4.207-6.3047 4.207-6.3047 0 0-4.2031 6.3047-4.2031 6.3047 0"/>
  <path d="m407.53 387.35c0 4.207-6.3086 4.207-6.3086 0 0-4.2031 6.3086-4.2031 6.3086 0"/>
  <path d="m418.88 387.35c0 4.207-6.3086 4.207-6.3086 0 0-4.2031 6.3086-4.2031 6.3086 0"/>
  <path d="m430.23 387.35c0 4.207-6.3086 4.207-6.3086 0 0-4.2031 6.3086-4.2031 6.3086 0"/>
  <path d="m441.58 387.35c0 4.207-6.3086 4.207-6.3086 0 0-4.2031 6.3086-4.2031 6.3086 0"/>
  <path d="m452.93 387.35c0 4.207-6.3086 4.207-6.3086 0 0-4.2031 6.3086-4.2031 6.3086 0"/>
  <path d="m464.27 387.35c0 4.207-6.3086 4.207-6.3086 0 0-4.2031 6.3086-4.2031 6.3086 0"/>
  <path d="m475.62 387.35c0 4.207-6.3086 4.207-6.3086 0 0-4.2031 6.3086-4.2031 6.3086 0"/>
  <path d="m486.98 387.35c0 4.207-6.3086 4.207-6.3086 0 0-4.2031 6.3086-4.2031 6.3086 0"/>
  <path d="m498.32 387.35c0 4.207-6.3086 4.207-6.3086 0 0-4.2031 6.3086-4.2031 6.3086 0"/>
  <path d="m509.68 387.35c0 4.207-6.3086 4.207-6.3086 0 0-4.2031 6.3086-4.2031 6.3086 0"/>
  <path d="m521.03 387.35c0 4.207-6.3086 4.207-6.3086 0 0-4.2031 6.3086-4.2031 6.3086 0"/>
  <path d="m532.37 387.35c0 4.207-6.3086 4.207-6.3086 0 0-4.2031 6.3086-4.2031 6.3086 0"/>
  <path d="m543.72 387.35c0 4.207-6.3086 4.207-6.3086 0 0-4.2031 6.3086-4.2031 6.3086 0"/>
  <path d="m555.07 387.35c0 4.207-6.3086 4.207-6.3086 0 0-4.2031 6.3086-4.2031 6.3086 0"/>
  <path d="m566.42 387.35c0 4.207-6.3086 4.207-6.3086 0 0-4.2031 6.3086-4.2031 6.3086 0"/>
  <path d="m577.77 387.35c0 4.207-6.3086 4.207-6.3086 0 0-4.2031 6.3086-4.2031 6.3086 0"/>
  <path d="m225.95 398.7c0 4.207-6.3086 4.207-6.3086 0 0-4.207 6.3086-4.207 6.3086 0"/>
  <path d="m339.44 398.7c0 4.207-6.3086 4.207-6.3086 0 0-4.207 6.3086-4.207 6.3086 0"/>
  <path d="m350.79 398.7c0 4.207-6.3086 4.207-6.3086 0 0-4.207 6.3086-4.207 6.3086 0"/>
  <path d="m362.14 398.7c0 4.207-6.3086 4.207-6.3086 0 0-4.207 6.3086-4.207 6.3086 0"/>
  <path d="m373.49 398.7c0 4.207-6.3086 4.207-6.3086 0 0-4.207 6.3086-4.207 6.3086 0"/>
  <path d="m384.83 398.7c0 4.207-6.3047 4.207-6.3047 0 0-4.207 6.3047-4.207 6.3047 0"/>
  <path d="m396.18 398.7c0 4.207-6.3047 4.207-6.3047 0 0-4.207 6.3047-4.207 6.3047 0"/>
  <path d="m407.53 398.7c0 4.207-6.3086 4.207-6.3086 0 0-4.207 6.3086-4.207 6.3086 0"/>
  <path d="m418.88 398.7c0 4.207-6.3086 4.207-6.3086 0 0-4.207 6.3086-4.207 6.3086 0"/>
  <path d="m430.23 398.7c0 4.207-6.3086 4.207-6.3086 0 0-4.207 6.3086-4.207 6.3086 0"/>
  <path d="m441.58 398.7c0 4.207-6.3086 4.207-6.3086 0 0-4.207 6.3086-4.207 6.3086 0"/>
  <path d="m452.93 398.7c0 4.207-6.3086 4.207-6.3086 0 0-4.207 6.3086-4.207 6.3086 0"/>
  <path d="m464.27 398.7c0 4.207-6.3086 4.207-6.3086 0 0-4.207 6.3086-4.207 6.3086 0"/>
  <path d="m475.62 398.7c0 4.207-6.3086 4.207-6.3086 0 0-4.207 6.3086-4.207 6.3086 0"/>
  <path d="m486.98 398.7c0 4.207-6.3086 4.207-6.3086 0 0-4.207 6.3086-4.207 6.3086 0"/>
  <path d="m498.32 398.7c0 4.207-6.3086 4.207-6.3086 0 0-4.207 6.3086-4.207 6.3086 0"/>
  <path d="m509.68 398.7c0 4.207-6.3086 4.207-6.3086 0 0-4.207 6.3086-4.207 6.3086 0"/>
  <path d="m521.03 398.7c0 4.207-6.3086 4.207-6.3086 0 0-4.207 6.3086-4.207 6.3086 0"/>
  <path d="m532.37 398.7c0 4.207-6.3086 4.207-6.3086 0 0-4.207 6.3086-4.207 6.3086 0"/>
  <path d="m543.72 398.7c0 4.207-6.3086 4.207-6.3086 0 0-4.207 6.3086-4.207 6.3086 0"/>
  <path d="m555.07 398.7c0 4.207-6.3086 4.207-6.3086 0 0-4.207 6.3086-4.207 6.3086 0"/>
  <path d="m566.42 398.7c0 4.207-6.3086 4.207-6.3086 0 0-4.207 6.3086-4.207 6.3086 0"/>
  <path d="m577.77 398.7c0 4.207-6.3086 4.207-6.3086 0 0-4.207 6.3086-4.207 6.3086 0"/>
  <path d="m328.09 410.05c0 4.207-6.3086 4.207-6.3086 0s6.3086-4.207 6.3086 0"/>
  <path d="m339.44 410.05c0 4.207-6.3086 4.207-6.3086 0s6.3086-4.207 6.3086 0"/>
  <path d="m350.79 410.05c0 4.207-6.3086 4.207-6.3086 0s6.3086-4.207 6.3086 0"/>
  <path d="m362.14 410.05c0 4.207-6.3086 4.207-6.3086 0s6.3086-4.207 6.3086 0"/>
  <path d="m373.49 410.05c0 4.207-6.3086 4.207-6.3086 0s6.3086-4.207 6.3086 0"/>
  <path d="m384.83 410.05c0 4.207-6.3047 4.207-6.3047 0s6.3047-4.207 6.3047 0"/>
  <path d="m396.18 410.05c0 4.207-6.3047 4.207-6.3047 0s6.3047-4.207 6.3047 0"/>
  <path d="m407.53 410.05c0 4.207-6.3086 4.207-6.3086 0s6.3086-4.207 6.3086 0"/>
  <path d="m418.88 410.05c0 4.207-6.3086 4.207-6.3086 0s6.3086-4.207 6.3086 0"/>
  <path d="m430.23 410.05c0 4.207-6.3086 4.207-6.3086 0s6.3086-4.207 6.3086 0"/>
  <path d="m441.58 410.05c0 4.207-6.3086 4.207-6.3086 0s6.3086-4.207 6.3086 0"/>
  <path d="m452.93 410.05c0 4.207-6.3086 4.207-6.3086 0s6.3086-4.207 6.3086 0"/>
  <path d="m464.27 410.05c0 4.207-6.3086 4.207-6.3086 0s6.3086-4.207 6.3086 0"/>
  <path d="m475.62 410.05c0 4.207-6.3086 4.207-6.3086 0s6.3086-4.207 6.3086 0"/>
  <path d="m486.98 410.05c0 4.207-6.3086 4.207-6.3086 0s6.3086-4.207 6.3086 0"/>
  <path d="m498.32 410.05c0 4.207-6.3086 4.207-6.3086 0s6.3086-4.207 6.3086 0"/>
  <path d="m509.68 410.05c0 4.207-6.3086 4.207-6.3086 0s6.3086-4.207 6.3086 0"/>
  <path d="m521.03 410.05c0 4.207-6.3086 4.207-6.3086 0s6.3086-4.207 6.3086 0"/>
  <path d="m532.37 410.05c0 4.207-6.3086 4.207-6.3086 0s6.3086-4.207 6.3086 0"/>
  <path d="m543.72 410.05c0 4.207-6.3086 4.207-6.3086 0s6.3086-4.207 6.3086 0"/>
  <path d="m339.44 421.4c0 4.207-6.3086 4.207-6.3086 0 0-4.2031 6.3086-4.2031 6.3086 0"/>
  <path d="m350.79 421.4c0 4.207-6.3086 4.207-6.3086 0 0-4.2031 6.3086-4.2031 6.3086 0"/>
  <path d="m362.14 421.4c0 4.207-6.3086 4.207-6.3086 0 0-4.2031 6.3086-4.2031 6.3086 0"/>
  <path d="m373.49 421.4c0 4.207-6.3086 4.207-6.3086 0 0-4.2031 6.3086-4.2031 6.3086 0"/>
  <path d="m384.83 421.4c0 4.207-6.3047 4.207-6.3047 0 0-4.2031 6.3047-4.2031 6.3047 0"/>
  <path d="m396.18 421.4c0 4.207-6.3047 4.207-6.3047 0 0-4.2031 6.3047-4.2031 6.3047 0"/>
  <path d="m407.53 421.4c0 4.207-6.3086 4.207-6.3086 0 0-4.2031 6.3086-4.2031 6.3086 0"/>
  <path d="m418.88 421.4c0 4.207-6.3086 4.207-6.3086 0 0-4.2031 6.3086-4.2031 6.3086 0"/>
  <path d="m430.23 421.4c0 4.207-6.3086 4.207-6.3086 0 0-4.2031 6.3086-4.2031 6.3086 0"/>
  <path d="m441.58 421.4c0 4.207-6.3086 4.207-6.3086 0 0-4.2031 6.3086-4.2031 6.3086 0"/>
  <path d="m452.93 421.4c0 4.207-6.3086 4.207-6.3086 0 0-4.2031 6.3086-4.2031 6.3086 0"/>
  <path d="m464.27 421.4c0 4.207-6.3086 4.207-6.3086 0 0-4.2031 6.3086-4.2031 6.3086 0"/>
  <path d="m475.62 421.4c0 4.207-6.3086 4.207-6.3086 0 0-4.2031 6.3086-4.2031 6.3086 0"/>
  <path d="m486.98 421.4c0 4.207-6.3086 4.207-6.3086 0 0-4.2031 6.3086-4.2031 6.3086 0"/>
  <path d="m498.32 421.4c0 4.207-6.3086 4.207-6.3086 0 0-4.2031 6.3086-4.2031 6.3086 0"/>
  <path d="m509.68 421.4c0 4.207-6.3086 4.207-6.3086 0 0-4.2031 6.3086-4.2031 6.3086 0"/>
  <path d="m521.03 421.4c0 4.207-6.3086 4.207-6.3086 0 0-4.2031 6.3086-4.2031 6.3086 0"/>
  <path d="m532.37 421.4c0 4.207-6.3086 4.207-6.3086 0 0-4.2031 6.3086-4.2031 6.3086 0"/>
  <path d="m543.72 421.4c0 4.207-6.3086 4.207-6.3086 0 0-4.2031 6.3086-4.2031 6.3086 0"/>
  <path d="m350.79 432.74c0 4.2031-6.3086 4.2031-6.3086 0 0-4.207 6.3086-4.207 6.3086 0"/>
  <path d="m362.14 432.74c0 4.2031-6.3086 4.2031-6.3086 0 0-4.207 6.3086-4.207 6.3086 0"/>
  <path d="m373.49 432.74c0 4.2031-6.3086 4.2031-6.3086 0 0-4.207 6.3086-4.207 6.3086 0"/>
  <path d="m384.83 432.74c0 4.2031-6.3047 4.2031-6.3047 0 0-4.207 6.3047-4.207 6.3047 0"/>
  <path d="m396.18 432.74c0 4.2031-6.3047 4.2031-6.3047 0 0-4.207 6.3047-4.207 6.3047 0"/>
  <path d="m407.53 432.74c0 4.2031-6.3086 4.2031-6.3086 0 0-4.207 6.3086-4.207 6.3086 0"/>
  <path d="m418.88 432.74c0 4.2031-6.3086 4.2031-6.3086 0 0-4.207 6.3086-4.207 6.3086 0"/>
  <path d="m430.23 432.74c0 4.2031-6.3086 4.2031-6.3086 0 0-4.207 6.3086-4.207 6.3086 0"/>
  <path d="m441.58 432.74c0 4.2031-6.3086 4.2031-6.3086 0 0-4.207 6.3086-4.207 6.3086 0"/>
  <path d="m452.93 432.74c0 4.2031-6.3086 4.2031-6.3086 0 0-4.207 6.3086-4.207 6.3086 0"/>
  <path d="m464.27 432.74c0 4.2031-6.3086 4.2031-6.3086 0 0-4.207 6.3086-4.207 6.3086 0"/>
  <path d="m475.62 432.74c0 4.2031-6.3086 4.2031-6.3086 0 0-4.207 6.3086-4.207 6.3086 0"/>
  <path d="m486.98 432.74c0 4.2031-6.3086 4.2031-6.3086 0 0-4.207 6.3086-4.207 6.3086 0"/>
  <path d="m498.32 432.74c0 4.2031-6.3086 4.2031-6.3086 0 0-4.207 6.3086-4.207 6.3086 0"/>
  <path d="m509.68 432.74c0 4.2031-6.3086 4.2031-6.3086 0 0-4.207 6.3086-4.207 6.3086 0"/>
  <path d="m521.03 432.74c0 4.2031-6.3086 4.2031-6.3086 0 0-4.207 6.3086-4.207 6.3086 0"/>
  <path d="m350.79 444.09c0 4.2031-6.3086 4.2031-6.3086 0 0-4.207 6.3086-4.207 6.3086 0"/>
  <path d="m362.14 444.09c0 4.2031-6.3086 4.2031-6.3086 0 0-4.207 6.3086-4.207 6.3086 0"/>
  <path d="m373.49 444.09c0 4.2031-6.3086 4.2031-6.3086 0 0-4.207 6.3086-4.207 6.3086 0"/>
  <path d="m407.53 444.09c0 4.2031-6.3086 4.2031-6.3086 0 0-4.207 6.3086-4.207 6.3086 0"/>
  <path d="m418.88 444.09c0 4.2031-6.3086 4.2031-6.3086 0 0-4.207 6.3086-4.207 6.3086 0"/>
  <path d="m430.23 444.09c0 4.2031-6.3086 4.2031-6.3086 0 0-4.207 6.3086-4.207 6.3086 0"/>
  <path d="m441.58 444.09c0 4.2031-6.3086 4.2031-6.3086 0 0-4.207 6.3086-4.207 6.3086 0"/>
  <path d="m452.93 444.09c0 4.2031-6.3086 4.2031-6.3086 0 0-4.207 6.3086-4.207 6.3086 0"/>
  <path d="m464.27 444.09c0 4.2031-6.3086 4.2031-6.3086 0 0-4.207 6.3086-4.207 6.3086 0"/>
  <path d="m475.62 444.09c0 4.2031-6.3086 4.2031-6.3086 0 0-4.207 6.3086-4.207 6.3086 0"/>
  <path d="m486.98 444.09c0 4.2031-6.3086 4.2031-6.3086 0 0-4.207 6.3086-4.207 6.3086 0"/>
  <path d="m328.09 455.45c0 4.2031-6.3086 4.2031-6.3086 0 0-4.207 6.3086-4.207 6.3086 0"/>
  <path d="m339.44 455.45c0 4.2031-6.3086 4.2031-6.3086 0 0-4.207 6.3086-4.207 6.3086 0"/>
  <path d="m350.79 455.45c0 4.2031-6.3086 4.2031-6.3086 0 0-4.207 6.3086-4.207 6.3086 0"/>
  <path d="m362.14 455.45c0 4.2031-6.3086 4.2031-6.3086 0 0-4.207 6.3086-4.207 6.3086 0"/>
  <path d="m396.18 455.45c0 4.2031-6.3047 4.2031-6.3047 0 0-4.207 6.3047-4.207 6.3047 0"/>
  <path d="m407.53 455.45c0 4.2031-6.3086 4.2031-6.3086 0 0-4.207 6.3086-4.207 6.3086 0"/>
  <path d="m418.88 455.45c0 4.2031-6.3086 4.2031-6.3086 0 0-4.207 6.3086-4.207 6.3086 0"/>
  <path d="m430.23 455.45c0 4.2031-6.3086 4.2031-6.3086 0 0-4.207 6.3086-4.207 6.3086 0"/>
  <path d="m441.58 455.45c0 4.2031-6.3086 4.2031-6.3086 0 0-4.207 6.3086-4.207 6.3086 0"/>
  <path d="m452.93 455.45c0 4.2031-6.3086 4.2031-6.3086 0 0-4.207 6.3086-4.207 6.3086 0"/>
  <path d="m464.27 455.45c0 4.2031-6.3086 4.2031-6.3086 0 0-4.207 6.3086-4.207 6.3086 0"/>
  <path d="m475.62 455.45c0 4.2031-6.3086 4.2031-6.3086 0 0-4.207 6.3086-4.207 6.3086 0"/>
  <path d="m328.09 466.79c0 4.2031-6.3086 4.2031-6.3086 0 0-4.207 6.3086-4.207 6.3086 0"/>
  <path d="m339.44 466.79c0 4.2031-6.3086 4.2031-6.3086 0 0-4.207 6.3086-4.207 6.3086 0"/>
  <path d="m350.79 466.79c0 4.2031-6.3086 4.2031-6.3086 0 0-4.207 6.3086-4.207 6.3086 0"/>
  <path d="m441.58 466.79c0 4.2031-6.3086 4.2031-6.3086 0 0-4.207 6.3086-4.207 6.3086 0"/>
  <path d="m452.93 466.79c0 4.2031-6.3086 4.2031-6.3086 0 0-4.207 6.3086-4.207 6.3086 0"/>
  <path d="m316.73 478.14c0 4.2031-6.3086 4.2031-6.3086 0 0-4.207 6.3086-4.207 6.3086 0"/>
  <path d="m328.09 478.14c0 4.2031-6.3086 4.2031-6.3086 0 0-4.207 6.3086-4.207 6.3086 0"/>
  <path d="m339.44 478.14c0 4.2031-6.3086 4.2031-6.3086 0 0-4.207 6.3086-4.207 6.3086 0"/>
  <path d="m418.88 478.14c0 4.2031-6.3086 4.2031-6.3086 0 0-4.207 6.3086-4.207 6.3086 0"/>
  <path d="m430.23 478.14c0 4.2031-6.3086 4.2031-6.3086 0 0-4.207 6.3086-4.207 6.3086 0"/>
  <path d="m441.58 478.14c0 4.2031-6.3086 4.2031-6.3086 0 0-4.207 6.3086-4.207 6.3086 0"/>
  <path d="m452.93 478.14c0 4.2031-6.3086 4.2031-6.3086 0 0-4.207 6.3086-4.207 6.3086 0"/>
  <path d="m464.27 478.14c0 4.2031-6.3086 4.2031-6.3086 0 0-4.207 6.3086-4.207 6.3086 0"/>
  <path d="m316.73 489.5c0 4.2031-6.3086 4.2031-6.3086 0 0-4.207 6.3086-4.207 6.3086 0"/>
  <path d="m430.23 489.5c0 4.2031-6.3086 4.2031-6.3086 0 0-4.207 6.3086-4.207 6.3086 0"/>
  <path d="m441.58 489.5c0 4.2031-6.3086 4.2031-6.3086 0 0-4.207 6.3086-4.207 6.3086 0"/>
  <path d="m452.93 489.5c0 4.2031-6.3086 4.2031-6.3086 0 0-4.207 6.3086-4.207 6.3086 0"/>
  <path d="m464.27 489.5c0 4.2031-6.3086 4.2031-6.3086 0 0-4.207 6.3086-4.207 6.3086 0"/>
  <path d="m475.62 489.5c0 4.2031-6.3086 4.2031-6.3086 0 0-4.207 6.3086-4.207 6.3086 0"/>
  <path d="m486.98 489.5c0 4.2031-6.3086 4.2031-6.3086 0 0-4.207 6.3086-4.207 6.3086 0"/>
  <path d="m498.32 489.5c0 4.2031-6.3086 4.2031-6.3086 0 0-4.207 6.3086-4.207 6.3086 0"/>
  <path d="m441.58 500.84c0 4.207-6.3086 4.207-6.3086 0 0-4.2031 6.3086-4.2031 6.3086 0"/>
  <path d="m452.93 500.84c0 4.207-6.3086 4.207-6.3086 0 0-4.2031 6.3086-4.2031 6.3086 0"/>
  <path d="m464.27 500.84c0 4.207-6.3086 4.207-6.3086 0 0-4.2031 6.3086-4.2031 6.3086 0"/>
  <path d="m475.62 500.84c0 4.207-6.3086 4.207-6.3086 0 0-4.2031 6.3086-4.2031 6.3086 0"/>
  <path d="m441.58 512.19c0 4.207-6.3086 4.207-6.3086 0 0-4.2031 6.3086-4.2031 6.3086 0"/>
  <path d="m452.93 512.19c0 4.207-6.3086 4.207-6.3086 0 0-4.2031 6.3086-4.2031 6.3086 0"/>
 </g>
</svg>
