<?xml version="1.0" encoding="UTF-8" standalone="no"?>
<svg
   xmlns:dc="http://purl.org/dc/elements/1.1/"
   xmlns:cc="http://creativecommons.org/ns#"
   xmlns:rdf="http://www.w3.org/1999/02/22-rdf-syntax-ns#"
   xmlns:svg="http://www.w3.org/2000/svg"
   xmlns="http://www.w3.org/2000/svg"
   xmlns:sodipodi="http://sodipodi.sourceforge.net/DTD/sodipodi-0.dtd"
   xmlns:inkscape="http://www.inkscape.org/namespaces/inkscape"
   height="1000"
   width="1000"
   id="svg85"
   version="1.1"
   viewBox="0 0 1000 999.99998"
   sodipodi:docname="logo_ppl.svg"
   inkscape:version="0.92.4 (5da689c313, 2019-01-14)">
  <sodipodi:namedview
     pagecolor="#ffffff"
     bordercolor="#666666"
     borderopacity="1"
     objecttolerance="10"
     gridtolerance="10"
     guidetolerance="10"
     inkscape:pageopacity="0"
     inkscape:pageshadow="2"
     inkscape:window-width="1920"
     inkscape:window-height="1051"
     id="namedview127"
     showgrid="false"
     inkscape:zoom="0.944"
     inkscape:cx="403.80285"
     inkscape:cy="458.16843"
     inkscape:window-x="-9"
     inkscape:window-y="-9"
     inkscape:window-maximized="1"
     inkscape:current-layer="svg85" />
  <metadata
     id="metadata89">
    <rdf:RDF>
      <cc:Work
         rdf:about="">
        <dc:format>image/svg+xml</dc:format>
        <dc:type
           rdf:resource="http://purl.org/dc/dcmitype/StillImage" />
        <dc:title>Obszar roboczy 1</dc:title>
      </cc:Work>
    </rdf:RDF>
  </metadata>
  <defs
     id="defs4">
    <style
       id="style2">.cls-1{fill:#e92626;}.cls-2{fill:#fff;}</style>
  </defs>
  <title
     id="title6">Obszar roboczy 1</title>
  <g
     transform="translate(0,35.039978)"
     id="g1064"
     style="display:none;opacity:1">
    <polygon
       class="fil0"
       points="132,57 173,57 173,129 132,129 "
       id="polygon10"
       transform="matrix(24.390244,0,0,13.888889,-3219.5122,-826.70666)"
       style="fill:#e9e8e7;fill-opacity:1;image-rendering:optimizeQuality;shape-rendering:geometricPrecision;text-rendering:geometricPrecision" />
    <path
       style="fill:#d4213d;fill-opacity:1"
       id="path986"
       d="m 926.68,67.73008 c -120.14,-120.13 -250.92,-92.7 -332.49,-42.64 -74.27,45.57 -91.67,114.18 -94.19,126.1 -2.52,-11.92 -19.92,-80.53 -94.2,-126.1 -81.57,-50.06 -212.35,-77.49 -332.48,42.64 -77.86,77.87 -126.02,307.26 26.58,528.37 166.65,241.47 366.01,336.36 397.89,350.36 l 2.21,1 2.21,-1 c 31.87,-14 231.24,-108.89 397.89,-350.36 152.6,-221.11 104.44,-450.5 26.58,-528.37 z"
       class="cls-1" />
  </g>
  <path
     inkscape:connector-curvature="0"
     style="fill:#e9e8e7;fill-opacity:1;stroke-width:7.68564272"
     class="cls-2"
     d="m 786.1694,194.78118 -13.44988,-1.2297 -2.84368,58.5646 -11.22104,-0.538 -0.84542,20.2901 12.14331,0.84542 -2.84368,70.63105 c -0.538,19.13725 5.61051,28.97488 19.13725,29.8203 9.60705,0 15.75556,-5.37995 18.29182,-16.90842 l 1.15285,-17.75383 -12.37388,-1.69084 c -1.38342,9.29962 -4.22711,13.7573 -7.68565,13.7573 a 5.4568062,5.4568062 0 0 1 -5.91794,-5.37995 v -5.07253 l 2.84369,-65.86595 18.82982,1.38341 0.84542,-19.44467 -19.13725,-2.53626 z"
     id="path10-6" />
  <path
     inkscape:connector-curvature="0"
     style="fill:#e9e8e7;fill-opacity:1;stroke-width:7.68564272"
     class="cls-2"
     d="m 899.30206,275.01929 a 51.416948,51.416948 0 0 0 -2.22884,-11.83589 20.290096,20.290096 0 0 0 -20.2901,-10.68304 20.059527,20.059527 0 0 0 -20.52066,15.37128 50.95581,50.95581 0 0 0 -2.22884,15.75557 l 13.83416,-0.84542 a 25.36262,25.36262 0 0 1 0.53799,-7.68564 c 1.15285,-5.07253 3.68911,-7.68564 6.99394,-7.68564 5.91794,0 8.4542,8.68477 8.14678,26.20804 a 40.272767,40.272767 0 0 0 -18.59926,5.07252 38.428213,38.428213 0 0 0 -19.13725,35.43081 c -0.53799,15.37129 3.38169,25.90062 10.99047,32.04913 a 23.594922,23.594922 0 0 0 14.37215,4.53453 15.371285,15.371285 0 0 0 15.37129,-13.2193 v 12.37388 h 16.90841 z m -37.96708,56.87376 a 26.361754,26.361754 0 0 1 4.53453,-15.37129 21.519799,21.519799 0 0 1 17.75384,-9.29963 c 0,0 0.53799,8.45421 1.38341,25.36262 0.538,13.21931 -2.84369,20.2901 -10.14505,20.82809 -9.29962,0.0769 -13.83415,-6.91707 -13.52673,-21.51979 z"
     id="path12-3" />
  <path
     inkscape:connector-curvature="0"
     style="fill:#e9e8e7;fill-opacity:1;stroke-width:7.68564272"
     class="cls-2"
     d="m 830.13127,251.88551 h -13.7573 l -0.84542,115.28464 h 16.90842 c -1.15285,-40.27277 -1.15285,-65.32797 -0.538,-74.85816 a 25.746902,25.746902 0 0 1 6.76337,-17.13899 19.598388,19.598388 0 0 1 10.45247,-5.37995 71.015337,71.015337 0 0 0 0.84542,-17.75383 27.053462,27.053462 0 0 0 -19.44467,14.06473 99.913353,99.913353 0 0 1 -0.38429,-14.21844 z"
     id="path14-8" />
  <path
     inkscape:connector-curvature="0"
     style="fill:#e9e8e7;fill-opacity:1;stroke-width:7.68564272"
     class="cls-2"
     d="m 706.085,299.99763 a 105.13959,105.13959 0 0 0 -3.61225,-24.5172 c -4.53453,-16.29356 -11.52846,-24.5172 -21.98094,-24.5172 a 28.129452,28.129452 0 0 0 -25.05519,18.29183 64.789966,64.789966 0 0 0 -6.76337,29.2823 74.089594,74.089594 0 0 0 5.53367,33.35569 c 7.68564,16.06299 24.5172,23.90234 49.80296,23.05692 a 100.98934,100.98934 0 0 0 -1.15285,-19.44467 32.817693,32.817693 0 0 1 -17.9844,-1.69084 c -12.06646,-4.53453 -17.9844,-15.75557 -17.44641,-33.5094 z m -38.42821,-9.60705 c -1.15284,0 -0.53799,-4.22711 1.38342,-12.91188 1.92141,-8.68478 4.7651,-12.68131 8.76163,-12.91188 5.61052,0 8.9922,8.76163 10.14505,25.90061 q -15.29443,0.38429 -20.2901,0 z"
     id="path16-2" />
  <path
     inkscape:connector-curvature="0"
     style="fill:#e9e8e7;fill-opacity:1;stroke-width:7.68564272"
     class="cls-2"
     d="m 752.19886,257.26546 a 27.822026,27.822026 0 0 0 -14.67958,-2.22884 c -9.83762,0.538 -16.29356,7.68564 -18.82982,20.2901 a 43.270167,43.270167 0 0 0 6.45594,30.12772 64.098258,64.098258 0 0 1 10.68304,24.74776 18.214973,18.214973 0 0 1 -11.29789,19.13725 l -11.83589,1.99827 1.07599,18.98354 a 39.11992,39.11992 0 0 0 32.89455,-13.21931 32.433411,32.433411 0 0 0 6.14851,-19.98267 80.929816,80.929816 0 0 0 -11.37475,-35.9688 c -5.91795,-9.83763 -8.14678,-17.75384 -5.91795,-23.05693 2.22884,-5.30309 4.53453,-7.07079 8.45421,-6.76337 a 10.452474,10.452474 0 0 1 5.61052,1.99827 z"
     id="path18-2" />
  <path
     inkscape:connector-curvature="0"
     style="fill:#e9e8e7;fill-opacity:1;stroke-width:7.68564272"
     class="cls-2"
     d="m 808.68833,414.59056 c -4.2271,0 -7.07079,2.22884 -8.9922,7.68564 a 36.737371,36.737371 0 0 0 -1.69084,7.68564 l 1.15284,8.14679 a 10.298761,10.298761 0 0 0 10.68305,8.4542 c 2.84369,0 5.37995,-1.99826 7.68564,-6.45594 a 22.211507,22.211507 0 0 0 2.22884,-10.68304 c -0.61485,-9.76077 -4.30396,-14.83329 -11.06733,-14.83329 z"
     id="path20-1" />
  <path
     inkscape:connector-curvature="0"
     style="fill:#e9e8e7;fill-opacity:1;stroke-width:7.68564272"
     class="cls-2"
     d="m 715.00035,460.16642 a 24.209774,24.209774 0 0 0 -11.22104,-3.68911 20.981804,20.981804 0 0 0 -16.06299,4.53453 40.887618,40.887618 0 0 1 -4.53453,4.7651 v -17.98441 a 49.87982,49.87982 0 0 0 -15.37129,0 l -1.53712,110.05841 a 67.326228,67.326228 0 0 0 17.4464,-0.84543 c 0,-1.69084 0,-24.51719 0.84542,-68.70964 1.15285,-8.14678 5.07253,-12.37388 11.52847,-12.68131 6.45594,-0.30742 8.76163,3.07426 9.83762,9.83762 0.84542,47.57413 1.38342,71.7839 1.69084,72.3219 13.52673,0 20.2901,-0.538 20.82809,-0.538 -0.84542,-46.11385 -1.99826,-72.01447 -3.07425,-76.85642 a 42.34789,42.34789 0 0 0 -10.37562,-20.21324 z"
     id="path22-7" />
  <path
     inkscape:connector-curvature="0"
     style="fill:#e9e8e7;fill-opacity:1;stroke-width:7.68564272"
     class="cls-2"
     d="m 781.09687,473.92372 a 24.901482,24.901482 0 0 0 -16.90841,-7.68564 23.056928,23.056928 0 0 0 -16.29356,6.45594 c -9.60705,7.68564 -14.06473,22.2115 -13.7573,42.80903 q 0.38428,40.11905 24.5172,51.4938 a 51.570661,51.570661 0 0 0 18.59925,3.91968 c 3.91968,0 8.14678,0 13.21931,0 a 143.26038,143.26038 0 0 0 0,-17.98441 37.967074,37.967074 0 0 1 -18.59926,-1.99826 25.900615,25.900615 0 0 1 -18.29183,-27.89889 92.996274,92.996274 0 0 1 21.13552,-1.38341 c 13.7573,-0.538 20.82809,-0.84542 20.82809,-1.15285 -0.61485,-22.05779 -5.37995,-37.27536 -14.44901,-46.57499 z M 756.8871,485.6059 a 15.371285,15.371285 0 0 1 4.53453,-5.37995 c 9.83762,0 15.37128,9.60705 16.90841,28.97487 -17.13898,0.53799 -25.90061,0.84542 -25.90061,0.53799 a 53.799498,53.799498 0 0 1 4.45767,-24.13291 z"
     id="path24-4" />
  <path
     inkscape:connector-curvature="0"
     style="fill:#e9e8e7;fill-opacity:1;stroke-width:7.68564272"
     class="cls-2"
     d="m 819.98623,470.23461 -17.75384,0.84542 3.91968,99.91335 c -0.84542,34.5854 -12.37389,52.64666 -34.58539,53.18465 a 92.22771,92.22771 0 0 0 1.15284,26.20804 46.113855,46.113855 0 0 0 40.96448,-23.59492 76.856425,76.856425 0 0 0 12.06646,-42.80903 c -0.15372,-1.92141 -1.84456,-39.65792 -5.76423,-113.74751 z"
     id="path26-3" />
  <path
     inkscape:connector-curvature="0"
     style="fill:#e9e8e7;fill-opacity:1;stroke-width:7.68564272"
     class="cls-2"
     d="m 625.77004,221.52722 c 0,8.14678 2.22884,12.37388 7.68564,12.37388 3.68911,0 6.22537,-1.99826 7.68564,-6.45594 a 23.056928,23.056928 0 0 0 1.38342,-8.14678 q -0.84542,-9.29962 -8.45421,-9.29962 c -4.84195,0 -7.7625,3.61225 -8.30049,11.52846 z m 4.53453,3.07426 c 0,0 0,0 0,0 a 1.6908414,1.6908414 0 0 0 0,1.15284 2.0751235,2.0751235 0 0 1 0,-1.46027 z"
     id="path28-3" />
  <path
     inkscape:connector-curvature="0"
     style="fill:#e9e8e7;fill-opacity:1;stroke-width:7.68564272"
     class="cls-2"
     d="m 586.34269,189.40123 -14.60272,0.84542 -6.45594,165.77931 15.98614,-1.07599 1.15285,-52.0318 16.06299,51.41695 20.82809,0.538 -28.51373,-60.17858 29.58972,-46.11386 -16.60099,-0.53799 -21.13551,28.7443 z"
     id="path30-08" />
  <path
     inkscape:connector-curvature="0"
     style="fill:#e9e8e7;fill-opacity:1;stroke-width:7.68564272"
     class="cls-2"
     d="m 311.65783,175.95136 h -16.90841 l 2.53626,178.46062 h 16.83156 z"
     id="path32-1" />
  <path
     inkscape:connector-curvature="0"
     style="fill:#e9e8e7;fill-opacity:1;stroke-width:7.68564272"
     class="cls-2"
     d="m 345.47466,173.10767 h -16.90842 l -2.84368,182.91829 h 14.06472 v -39.11992 l 13.21931,39.96534 17.75383,-0.84542 -25.36262,-64.48254 30.74257,-47.88155 h -16.90841 l -16.90842,25.36262 z"
     id="path34-3" />
  <path
     inkscape:connector-curvature="0"
     style="fill:#e9e8e7;fill-opacity:1;stroke-width:7.68564272"
     class="cls-2"
     d="m 387.66884,267.9485 a 10.221905,10.221905 0 0 1 8.14678,-4.53453 c 4.53453,0 7.68564,6.45594 9.29962,19.67525 a 155.78797,155.78797 0 0 0 -20.29009,17.13898 37.967074,37.967074 0 0 0 -5.91795,7.68564 37.505935,37.505935 0 0 0 -5.37995,19.98267 27.284031,27.284031 0 0 0 6.76337,19.67525 15.371285,15.371285 0 0 0 10.68304,4.2271 20.21324,20.21324 0 0 0 20.52067,-17.75383 l 4.53453,16.60098 14.60272,-0.53799 a 637.90833,637.90833 0 0 0 -6.45594,-73.70531 c -2.22884,-17.13899 -7.68565,-28.43688 -14.60272,-33.5094 a 20.21324,20.21324 0 0 0 -12.06646,-2.84369 c -12.37389,0 -20.52067,9.83762 -24.20978,29.82029 l 11.52847,2.53626 z m 14.91014,63.32969 c -3.91968,4.22711 -7.68564,5.37995 -10.68304,3.07426 a 7.6856425,7.6856425 0 0 1 -4.2271,-6.45594 26.131185,26.131185 0 0 1 4.53452,-15.75557 35.738238,35.738238 0 0 1 14.14159,-12.68131 c 0,18.29183 -0.92228,28.97488 -3.76597,31.81856 z"
     id="path36-3" />
  <path
     inkscape:connector-curvature="0"
     style="fill:#e9e8e7;fill-opacity:1;stroke-width:7.68564272"
     class="cls-2"
     d="m 269.46365,254.42177 a 23.056928,23.056928 0 0 0 -23.05692,-6.22537 c -8.99221,2.53626 -15.37129,10.14505 -18.29183,23.05693 a 98.376224,98.376224 0 0 0 -3.07426,20.52066 c 0,2.22884 0,9.83762 1.15285,21.67351 a 43.193311,43.193311 0 0 0 21.13551,36.89109 c 7.07079,4.2271 19.44468,5.37995 36.58366,2.84369 l -2.84369,-22.51894 a 33.278832,33.278832 0 0 1 -25.90061,0.84542 23.056928,23.056928 0 0 1 -10.99047,-15.37128 l -1.99827,-11.52846 a 362.9929,362.9929 0 0 0 39.35049,-3.45854 c -1.61398,-25.0552 -5.84109,-40.50334 -12.06646,-46.72871 z m -11.22103,14.60272 a 41.733039,41.733039 0 0 1 4.76509,11.83589 c 1.69085,5.61052 2.22884,8.45421 1.38342,8.76163 a 104.75531,104.75531 0 0 1 -22.51893,1.99827 49.726107,49.726107 0 0 1 0.84542,-21.21237 c 1.38341,-4.53453 3.68911,-6.76337 6.22537,-7.0708 a 9.6070531,9.6070531 0 0 1 9.29963,5.76424 z"
     id="path38-8" />
  <path
     inkscape:connector-curvature="0"
     style="fill:#e9e8e7;fill-opacity:1;stroke-width:7.68564272"
     class="cls-2"
     d="m 353.08344,406.44378 c -4.2271,0 -6.45594,3.38168 -7.07079,11.22104 a 9.1459146,9.1459146 0 0 0 3.07426,7.07079 8.4542068,8.4542068 0 0 0 5.37995,2.53626 c 5.07252,0 7.68564,-3.68911 7.68564,-10.99047 0,-7.30136 -3.45854,-9.60705 -9.06906,-9.83762 z m 0.84542,7.68564 c 0,0.538 0,1.15285 0,1.69084 a 0.9222771,0.9222771 0 0 1 -0.84542,-0.84542 v 0 c 0,-0.53799 0,-0.84542 0.538,-1.15284 a 0,0 0 0 0 0.30742,0.23056 z"
     id="path40-9" />
  <path
     inkscape:connector-curvature="0"
     style="fill:#e9e8e7;fill-opacity:1;stroke-width:7.68564272"
     class="cls-2"
     d="m 291.06031,465.23894 h -10.29876 l -10.99047,45.57586 -12.91188,-43.34702 -17.9844,1.15285 25.36262,95.68625 h 14.06472 l 8.45421,-56.25891 22.51893,56.25891 h 16.90842 l 14.06472,-101.29677 h -16.90841 l -11.22104,61.94628 z"
     id="path42-3" />
  <path
     inkscape:connector-curvature="0"
     style="fill:#e9e8e7;fill-opacity:1;stroke-width:7.68564272"
     class="cls-2"
     d="m 460.14444,397.14415 h -13.52673 l -0.53799,54.87549 -14.91015,-0.538 v 23.90235 h 15.37129 c -1.38342,46.11386 -2.22884,70.93848 -2.22884,74.32016 q 0,26.20805 17.75383,25.36262 13.52674,-0.46113 19.44468,-18.59925 l 3.07426,-17.9844 h -14.44901 c -1.69084,7.68564 -4.53453,11.52846 -7.68564,11.83589 -3.15112,0.30742 -3.91968,-1.99827 -5.07253,-5.91795 l -1.15284,-5.91794 1.69084,-63.02227 19.13725,-0.84542 -1.53713,-20.90495 -16.29356,-0.538 z"
     id="path44-7" />
  <path
     inkscape:connector-curvature="0"
     style="fill:#e9e8e7;fill-opacity:1;stroke-width:7.68564272"
     class="cls-2"
     d="m 369.68443,484.37619 12.91188,1.69084 1.99827,-5.61051 a 11.067325,11.067325 0 0 1 8.68477,-6.22537 c 8.14679,-0.84543 12.91188,3.91967 14.37216,13.7573 0,1.99826 -1.38342,3.91967 -5.07253,6.45593 -3.68911,2.53627 -8.76163,5.91795 -11.52846,8.14679 a 37.121653,37.121653 0 0 0 -17.13898,30.74257 c 0,12.68131 1.99826,20.82809 5.91794,24.74776 a 23.671779,23.671779 0 0 0 14.06473,4.53453 c 8.9922,0 16.29356,-7.07079 22.2115,-22.2115 l 1.99827,19.67524 17.44641,-0.53799 c -3.68911,-42.80903 -7.07079,-68.0948 -10.14505,-76.85643 a 32.740837,32.740837 0 0 0 -31.81856,-23.05693 21.05866,21.05866 0 0 0 -19.98267,12.37389 29.128585,29.128585 0 0 0 -3.91968,12.37388 z m 28.43688,26.74604 c 5.91794,-4.7651 9.29963,-6.76337 10.45247,-6.45594 l 0.84542,19.98267 a 23.056928,23.056928 0 0 1 -11.52846,18.82982 5.9179447,5.9179447 0 0 1 -8.76163,-1.69084 18.368686,18.368686 0 0 1 -2.22884,-14.06472 29.897149,29.897149 0 0 1 11.22104,-16.60099 z"
     id="path46-8" />
  <path
     inkscape:connector-curvature="0"
     style="fill:#e9e8e7;fill-opacity:1;stroke-width:7.68564272"
     class="cls-2"
     d="m 362.92107,464.39352 h -14.91015 l -4.2271,98.52994 20.29009,0.84542 z"
     id="path48-5" />
  <path
     inkscape:connector-curvature="0"
     style="fill:#e9e8e7;fill-opacity:1;stroke-width:7.68564272"
     class="cls-2"
     d="m 562.74777,269.63934 a 134.88303,134.88303 0 0 0 1.69084,-24.5172 22.057794,22.057794 0 0 0 -16.29356,7.68564 53.799498,53.799498 0 0 1 -6.22537,8.14679 c 0,-6.22537 0,-10.99047 0,-14.37216 l -12.37388,-1.15284 c -1.38342,67.86422 -2.84369,104.14045 -3.91968,109.21298 h 17.44641 v -70.93848 l 4.53453,-6.76337 a 18.368686,18.368686 0 0 1 15.14071,-7.30136 z"
     id="path50-4" />
  <path
     inkscape:connector-curvature="0"
     style="fill:#e9e8e7;fill-opacity:1;stroke-width:7.68564272"
     class="cls-2"
     d="m 508.10285,258.11088 a 19.060393,19.060393 0 0 0 -16.29356,-8.76163 23.056928,23.056928 0 0 0 -12.91188,8.14678 67.556798,67.556798 0 0 0 -15.37128,42.5016 c -1.15285,19.67524 1.69084,34.0474 8.9922,43.65445 a 21.212373,21.212373 0 0 0 16.29356,9.5302 c 17.75383,0.53799 27.05346,-16.29357 28.12945,-50.34096 0.99914,-20.82809 -2.07512,-35.73824 -8.83849,-44.73044 z m -14.60272,9.53019 c 7.68564,0 11.83589,10.99047 11.52847,33.73998 a 52.800364,52.800364 0 0 1 -5.37995,26.74603 11.221038,11.221038 0 0 1 -9.29963,6.76337 c -4.53453,0 -8.14678,-3.68911 -10.68304,-11.52847 a 53.799498,53.799498 0 0 1 -3.07426,-21.13551 q 2.15198,-33.73997 16.90841,-34.5854 z"
     id="path52-1" />
  <path
     inkscape:connector-curvature="0"
     style="fill:#e9e8e7;fill-opacity:1;stroke-width:7.68564272"
     class="cls-2"
     d="m 513.94394,457.09216 a 25.208907,25.208907 0 0 0 -18.59925,9.5302 52.339225,52.339225 0 0 0 -10.14505,38.42821 q 2.07512,46.88242 32.04913,53.18465 a 48.573261,48.573261 0 0 0 29.43601,-3.45854 l -3.91968,-21.36609 c -16.90841,5.61052 -28.66745,3.38169 -35.20024,-6.45594 a 38.428213,38.428213 0 0 1 -4.7651,-19.98267 c 26.43861,-1.69084 40.50334,-2.53626 41.96361,-2.84369 1.38341,-32.12598 -8.76163,-47.88155 -30.81943,-47.03613 z m 4.30396,13.14245 a 9.760766,9.760766 0 0 1 3.91968,1.69084 c 4.2271,3.38169 6.76336,10.68305 8.14678,22.21151 0,0 -4.2271,0.53799 -12.68131,1.15285 -8.45421,0.61485 -13.7573,0.84542 -15.37129,0.84542 0,0 0,-1.15285 0,-3.91968 a 29.897149,29.897149 0 0 1 1.38342,-8.76163 c 2.22884,-8.76164 6.45594,-12.91188 12.91188,-12.91188 z"
     id="path56-4" />
  <path
     inkscape:connector-curvature="0"
     style="fill:#e9e8e7;fill-opacity:1;stroke-width:7.68564272"
     class="cls-2"
     d="m 580.73217,463.24068 c -15.37128,6.45594 -24.51719,21.67351 -26.74603,44.73044 -2.84369,26.43861 2.53626,44.73044 16.29356,55.18291 a 35.353956,35.353956 0 0 0 29.2823,7.07079 c 0,0 -0.538,-7.07079 -2.22884,-20.52067 -17.9844,-1.15284 -26.74603,-12.91187 -25.90061,-36.04566 a 29.820293,29.820293 0 0 1 10.14505,-23.05693 27.898882,27.898882 0 0 1 20.82809,-6.76336 122.35543,122.35543 0 0 0 0.84542,-23.05693 37.736505,37.736505 0 0 0 -22.51894,2.45941 z"
     id="path58-9" />
  <path
     inkscape:connector-curvature="0"
     style="fill:#e9e8e7;fill-opacity:1;stroke-width:7.68564272"
     class="cls-2"
     d="m 614.549,480.68708 a 129.50308,129.50308 0 0 1 23.05693,-0.53799 c 0.53799,0 -8.45421,30.74257 -27.28403,89.53773 10.99047,0.84543 26.13118,1.38342 46.11385,1.38342 a 112.28724,112.28724 0 0 0 1.38342,-16.90841 c -11.52846,0 -18.82983,0 -21.67351,0 -0.538,0 3.38168,-15.75557 11.52846,-47.03614 8.14678,-31.28056 12.37389,-47.2667 11.83589,-47.2667 h -45.65272 a 148.17919,148.17919 0 0 0 0.69171,20.82809 z"
     id="path60-9" />
  <path
     inkscape:connector-curvature="0"
     style="fill:#e9e8e7;fill-opacity:1;stroke-width:7.68564272"
     class="cls-2"
     d="m 203.5977,219.22153 a 4.9188112,4.9188112 0 0 0 5.61052,-1.99827 c 6.45594,-8.45421 4.53453,-14.37215 -5.91795,-17.13898 a 7.6856425,7.6856425 0 0 0 -6.76336,4.7651 c -3.61226,7.91621 -1.38342,12.45074 7.07079,14.37215 z"
     id="path62-0" />
  <path
     inkscape:connector-curvature="0"
     style="fill:#e9e8e7;fill-opacity:1;stroke-width:7.68564272"
     class="cls-2"
     d="M 213.20475,260.64714 H 198.8326 l -2.84369,95.37882 h 19.67525 z"
     id="path64-8" />
  <path
     inkscape:connector-curvature="0"
     style="fill:#e9e8e7;fill-opacity:1;stroke-width:7.68564272"
     class="cls-2"
     d="m 230.03631,395.45331 -17.98441,1.15285 6.76337,29.82029 h 11.22104 z"
     id="path66-3" />
  <path
     inkscape:connector-curvature="0"
     style="fill:#e9e8e7;fill-opacity:1;stroke-width:7.68564272"
     class="cls-2"
     d="m 225.57863,462.16469 a 25.36262,25.36262 0 0 1 8.99221,2.53626 l 3.6891,-16.29356 a 57.949744,57.949744 0 0 0 -19.67524,-1.69085 23.902348,23.902348 0 0 0 -24.20977,19.67525 46.113855,46.113855 0 0 0 7.68564,32.89455 59.486873,59.486873 0 0 1 10.45247,30.74257 21.135517,21.135517 0 0 1 -13.68044,18.82982 39.734772,39.734772 0 0 1 -12.68131,3.68911 l 1.99827,20.2901 a 48.880686,48.880686 0 0 0 21.13551,-5.37995 35.968807,35.968807 0 0 0 21.36609,-34.35482 86.156052,86.156052 0 0 0 -10.68304,-35.20025 c -6.22537,-12.68131 -8.76164,-21.36608 -7.0708,-26.43861 a 11.682177,11.682177 0 0 1 12.68131,-9.29962 z"
     id="path68-8" />
  <path
     inkscape:connector-curvature="0"
     style="fill:#e9e8e7;fill-opacity:1;stroke-width:7.68564272"
     class="cls-2"
     d="m 556.29183,668.13991 a 76.856425,76.856425 0 0 0 -5.37995,25.59318 93.687982,93.687982 0 0 0 5.61052,35.43082 c 5.07252,12.37388 12.37389,18.59925 22.51893,19.13725 10.14505,0.53799 16.90842,-6.76337 21.36609,-21.36609 a 126.04454,126.04454 0 0 0 3.91968,-38.81249 59.33316,59.33316 0 0 0 -5.84109,-25.74691 21.442943,21.442943 0 0 0 -20.52067,-13.7573 c -9.29962,0.15372 -16.67784,6.60966 -21.67351,19.52154 z m 9.5302,26.43861 c 1.15284,-17.44641 5.07252,-26.43861 11.83589,-26.43861 8.4542,0 12.37388,8.76163 12.37388,26.74603 0,21.13552 -4.2271,31.51114 -12.98873,31.20371 -3.38169,0 -6.14852,-3.91968 -8.45421,-11.52846 a 54.721775,54.721775 0 0 1 -2.76683,-19.98267 z"
     id="path70-9" />
  <path
     inkscape:connector-curvature="0"
     style="fill:#e9e8e7;fill-opacity:1;stroke-width:7.68564272"
     class="cls-2"
     d="m 520.78416,655.22803 a 23.056928,23.056928 0 0 0 -16.60098,9.83762 27.207174,27.207174 0 0 0 -4.22711,9.29963 c -1.38341,-12.68131 -7.07079,-18.82983 -17.13898,-18.29183 a 19.752101,19.752101 0 0 0 -12.68131,5.37995 30.74257,30.74257 0 0 0 -4.2271,5.07252 v -11.83589 h -15.37129 l -4.2271,101.29677 h 17.44641 c 0.53799,-35.73824 1.15284,-56.2589 1.99826,-61.94628 1.15285,-9.60705 4.7651,-14.91015 11.52847,-15.75557 6.76336,-0.84542 9.83762,2.53627 10.68304,9.83763 l -2.53626,68.40221 h 18.59925 v -64.17511 q 2.22884,-11.9896 9.91448,-12.37389 c 5.37995,0 8.14678,3.38169 8.14678,10.37562 l 0.538,66.40395 h 21.13551 l -2.53626,-84.54206 a 17.600121,17.600121 0 0 0 -20.44381,-16.98527 z"
     id="path72-0" />
  <path
     inkscape:connector-curvature="0"
     style="fill:#e9e8e7;fill-opacity:1;stroke-width:7.68564272"
     class="cls-2"
     d="m 631.14999,686.96973 a 28.052595,28.052595 0 0 1 5.76423,-18.29183 23.056928,23.056928 0 0 1 19.13725,-8.76163 161.39849,161.39849 0 0 0 1.2297,-20.59752 c -28.05259,-1.30656 -42.5016,13.91101 -43.42388,46.11385 -0.84542,23.05693 3.68911,39.42735 12.91188,49.80296 a 36.353089,36.353089 0 0 0 28.97488,12.68131 c 0,0 0,-8.68477 0,-25.90061 a 27.284031,27.284031 0 0 1 -18.29183,-10.99047 38.428213,38.428213 0 0 1 -6.30223,-24.05606 z"
     id="path74-8" />
  <path
     inkscape:connector-curvature="0"
     style="fill:#e9e8e7;fill-opacity:1;stroke-width:7.68564272"
     class="cls-2"
     d="m 430.17044,577.21875 a 51.416948,51.416948 0 0 0 -10.68304,0 64.482541,64.482541 0 0 0 0,16.29357 21.596655,21.596655 0 0 0 6.76336,12.68131 c 10.14505,-4.53453 14.91015,-6.76337 14.91015,-6.76337 a 33.278832,33.278832 0 0 1 -8.9922,-13.91101 c -1.46028,-5.45681 -1.99827,-7.68564 -1.99827,-8.3005 z"
     id="path76-6" />
  <path
     inkscape:connector-curvature="0"
     style="fill:#e9e8e7;fill-opacity:1;stroke-width:7.68564272"
     class="cls-2"
     d="m 337.55845,637.16677 h -16.29357 l -1.38341,163.55047 18.82982,-0.538 v -59.41001 a 27.745169,27.745169 0 0 0 17.75384,4.2271 c 7.68564,0 13.7573,-5.61052 17.75383,-16.29356 a 83.927216,83.927216 0 0 0 4.2271,-30.12772 c -1.46027,-20.82809 -5.14938,-36.19938 -12.14331,-45.03787 a 19.444676,19.444676 0 0 0 -15.37129,-8.9922 13.296162,13.296162 0 0 0 -13.37301,10.14505 z m 5.61052,30.12771 3.6891,-1.15284 c 9.5302,0 14.60272,11.52846 15.75557,33.73997 -1.38342,17.75383 -5.61052,26.43861 -12.91188,26.43861 a 18.445542,18.445542 0 0 1 -7.68564,-2.84369 l -3.07426,-2.84369 a 89.384022,89.384022 0 0 1 -2.53626,-25.05519 149.94689,149.94689 0 0 1 1.38342,-19.67525 11.067325,11.067325 0 0 1 5.37995,-8.60792 z"
     id="path78-1" />
  <path
     inkscape:connector-curvature="0"
     style="fill:#e9e8e7;fill-opacity:1;stroke-width:7.68564272"
     class="cls-2"
     d="m 442.2369,690.65884 a 117.2829,117.2829 0 0 0 -3.68911,-32.66398 21.980938,21.980938 0 0 0 -22.51893,-16.90842 c -16.29357,0 -25.36262,15.37129 -26.43861,47.03614 -1.99827,40.27276 5.91794,59.94801 23.05692,59.64058 a 25.439477,25.439477 0 0 0 22.51894,-16.90841 100.68192,100.68192 0 0 0 7.07079,-40.19591 z m -26.66918,-27.59146 c 7.68564,-0.84542 12.06646,7.68564 13.2193,25.90062 0.84542,24.20977 -3.68911,36.89108 -13.7573,37.7365 -5.07252,0.538 -8.76163,-5.07252 -10.37561,-17.44641 a 137.64986,137.64986 0 0 1 -0.84543,-20.82809 53.799498,53.799498 0 0 1 3.91968,-16.06299 c 2.15198,-5.91795 4.99567,-8.9922 7.83936,-9.29963 z"
     id="path80-6" />
  <path
     inkscape:connector-curvature="0"
     style="fill:#e9e8e7;fill-opacity:1;stroke-width:7.68564272"
     d="m 711.61867,662.52938 -19.67525,58.79517 -10.14505,-65.02054 -18.06126,-0.84542 17.52327,102.21905 -29.2823,50.34096 24.20977,10.45247 57.10433,-154.78884 -21.67351,-1.15285"
     id="polyline82" />
  <path
     inkscape:connector-curvature="0"
     style="fill:#e9e8e7;fill-opacity:1;stroke-width:7.68564272"
     d="m 625.23204,262.03055 -1.99826,91.99714 17.9844,0.30743 -1.92141,-91.99714 -14.06473,-0.30743"
     id="polyline84" />
  <path
     inkscape:connector-curvature="0"
     style="fill:#e9e8e7;fill-opacity:1;stroke-width:7.68564272"
     d="M 156.86899,358.86965 137.19375,305.685 123.12902,358.86965 H 106.22061 L 86.545362,263.41397 h 14.064728 l 14.06472,59.10259 11.2979,-59.10259 h 14.06472 l 19.67525,59.10259 11.22104,-64.71311 h 16.90841 l -14.06473,101.0662 h -16.90841"
     id="polyline86-2" />
  <g
     transform="translate(0,35.039978)"
     style="display:none;opacity:0.47700004"
     id="layer4">
    <g
       data-name="Warstwa 2"
       id="Warstwa_2">
      <path
         style="fill:#e92626"
         id="path8"
         d="M 926.68,85.27 C 806.54,-34.86 675.76,-7.43 594.19,42.63 519.92,88.2 502.52,156.81 500,168.73 497.48,156.81 480.08,88.2 405.8,42.63 324.23,-7.43 193.45,-34.86 73.32,85.27 -4.54,163.14 -52.7,392.53 99.9,613.64 266.55,855.11 465.91,950 497.79,964 l 2.21,1 2.21,-1 C 534.08,950 733.45,855.11 900.1,613.64 1052.7,392.53 1004.54,163.14 926.68,85.27 Z"
         class="cls-1" />
      <path
         style="fill:#ffffff"
         id="path10"
         d="m 483.74,328 c 1.61,-0.33 4.44,-0.48 12.35,0.67 3.24,16.72 -2.75,28.39 -7.53,33.31 -4.85,3.87 -7.8,4.39 -12.06,3.91 -27.06,-2.73 -11.64,-71.31 -12.06,-99.2 -3.51,-0.26 -7.28,-1 -10.8,-1.28 0,-8.79 0.52,-14.43 1,-23.49 3.51,0 6.54,0.76 10.05,0.76 0.51,-19.11 1.5,-39 2,-58.08 l 12.82,2.33 v 0.77 c -1.76,24.46 -2.51,36 -4,55.79 5.27,1 12.27,2.82 17.54,3.85 0,-0.35 -0.23,14.17 -1,21.42 C 482.54,268 476,267.2 476,267.18 c -0.45,21.92 -8.62,79.34 5.13,71.22 3.87,-3.17 2.41,-8.2 2.61,-10.4 z"
         class="cls-2" />
      <path
         style="fill:#ffffff"
         id="path12"
         d="m 130.34,191.52 c 4.27,0.26 9.28,0 13.55,0.27 -0.25,22.09 -1,46.31 -0.51,68.67 4.3,-2 6,-3.85 16.06,-2.85 8.57,4.69 12.15,14.09 14.09,26.09 2.1,13 4.24,83 2.26,87.52 -3.52,-0.25 -8.26,-0.26 -12,-0.77 -1.86,-27.76 1.79,-51.77 -1.09,-82.05 -1,-11.86 -7,-9.61 -9.5,-10.13 -4.46,0.73 -5.94,1.79 -7.54,5.43 -3.71,22.91 0.11,64.37 -1.77,84.93 -3.76,0.74 -8,0 -11.79,-0.54 0,-33.25 2,-70.48 0.75,-104.53 -0.63,-17.14 -1.95,-55.56 -2.51,-72.04 z"
         class="cls-2" />
      <path
         style="fill:#ffffff"
         id="path14"
         d="m 98.92,193.07 h 11.3 l 0.75,55.77 c 5.27,0.27 9.55,0 14.33,0.54 0.25,6.46 0.5,13.92 0.75,20.38 l -0.75,1.54 -16.59,1.55 c 0.36,22.78 -5.31,67.78 4.07,71.54 6.15,0.49 6.66,-9.86 7.42,-10.38 2.71,0 5.28,-0.14 10.37,0 0.08,13.16 -3.41,31.52 -12.57,35.62 C 86.29,383.75 97.38,318.69 98.16,272.05 H 86.1 v -24.76 l 12.06,-0.77 q 0.38,-26.73 0.76,-53.45 z"
         class="cls-2" />
      <path
         style="fill:#ffffff"
         id="path16"
         d="m 657.38,193.07 c 5,0.26 11.55,-0.06 16.58,0.2 -0.42,22.68 -3.48,47.55 -0.75,69.51 3.73,-2.24 12.59,-5.66 19.41,-3.29 15.14,4.73 20.7,25.56 19.21,58.29 -0.51,11.22 3.4,34.25 3,55 -4.27,-0.26 -11.37,-0.13 -15.64,-0.39 -3,-13.55 3,-84.25 -2.83,-88.3 a 12.75,12.75 0 0 0 -17.9,-2.71 c -8.6,5.24 -3.76,53.51 -4.14,88.3 -4.53,-0.32 -10.18,0.13 -14.7,-0.38 0.52,-35.53 2.78,-56.28 1.13,-93 -1.22,-27.51 -4.11,-55.12 -3.37,-83.23 z"
         class="cls-2" />
      <path
         style="fill:#ffffff"
         id="path18"
         d="m 850.32,341.79 c 0.76,21.82 -0.77,35.16 -18.09,34.86 -25.53,-1.08 -11.77,-74.7 -12.06,-94.5 l -10.55,-0.78 0.75,-22.46 c 4,0.08 5.82,0.45 9.8,0.58 0.75,-17.81 1.51,-37 2.26,-54.8 l 12.06,1.55 c -1.13,15.14 -3.06,32.11 -3.39,54.8 5.27,0.77 11.49,2.13 16.77,2.91 0,1.29 0.19,3 0.19,4.25 q -0.76,8.15 -1.51,16.27 l -15.08,-1.55 c -1.23,24.22 -1.61,31 -2.26,49.57 -0.94,20.21 2.08,19.5 5.28,19.37 3.88,-0.32 4.41,-6.4 5.27,-10.84 z"
         class="cls-2" />
      <path
         style="fill:#ffffff"
         id="path20"
         d="m 341.84,254 c -0.25,8.52 -0.75,18 -1,26.57 -2.76,0.52 -12.39,3 -15.16,9.36 -4.86,25.7 -2.08,44.36 -1.42,75.84 h -0.75 l -14.32,-1.55 v -4.62 c 2.74,-37.93 3.8,-70.06 3.77,-103.79 h 10.55 v 15.49 l 1.5,-0.77 c 2.12,-7.23 8.07,-15.86 16.83,-16.53 z"
         class="cls-2" />
      <path
         style="fill:#ffffff"
         id="path22"
         d="m 652.86,257.36 c 0,8.52 0.25,17.2 0,25.72 -37.18,-4.12 -37.16,63.58 -5.28,64.13 q 0.38,11.24 0.76,22.46 c -58.8,7.78 -48.64,-120.84 4.52,-112.31 z"
         class="cls-2" />
      <path
         style="fill:#ffffff"
         id="path24"
         d="m 609.9,258.14 -0.75,25.56 c -31.46,-0.71 -14.53,68.52 -17.11,85.2 -5.28,-0.52 -11.54,-1 -16.81,-1.55 3.49,-21.84 3.84,-85.76 3.64,-108.34 2.12,-0.16 5,-0.1 12.19,-0.1 0,5.16 -0.46,10.19 -0.46,15.36 0.44,0.35 0.6,0.09 1.11,-0.17 3.41,-7.76 8.2,-15.89 18.19,-15.96 z"
         class="cls-2" />
      <path
         style="fill:#ffffff"
         id="path26"
         d="m 860.11,259.69 h 11.12 c 0.12,4.77 -0.12,7.22 0.38,13.16 4.48,-5.27 7.67,-11.37 16.39,-12.39 -0.25,5.68 -0.32,11.75 -0.57,17.43 -22.61,2 -13.6,55 -14.5,93.33 a 84.32,84.32 0 0 1 -15.64,0.39 c 2.26,-31.28 1.38,-55.8 2.82,-111.92 z"
         class="cls-2" />
      <path
         style="fill:#ffffff"
         id="path28"
         d="m 804.34,279.05 c -9.37,-1.27 -19.88,5.17 -7.91,29.82 14.25,24.57 18.54,68.79 -24.49,64.68 l 0.75,-18.6 c 28.49,-2.37 17.68,-33.78 13.94,-39.5 -6.78,-10.65 -25.06,-57.18 20,-50.53 -0.78,4.38 -1.53,9.74 -2.29,14.13 z"
         class="cls-2" />
      <path
         style="fill:#ffffff"
         id="path30"
         d="m 279.79,359.6 c -6,-2.71 -13.71,-3.6 -14.32,-7.74 -1.27,-16.25 6.38,-1.31 15.08,-5.42 4.62,-2.19 8.86,-8.28 10.55,-11.62 9.38,-18.49 10.1,-45.52 5.27,-68.94 1.51,0.26 4.74,0.52 6.24,0.78 1,-5.37 1.54,-10.59 -2.47,-14.7 -2,-1.84 -3.49,-2.07 -5.27,-1.57 -1.75,1.08 -3.51,1.14 -4.52,8.52 -30,-13.85 -39.2,42.16 -29.4,72 -5.58,2.6 -10.69,6.13 -10.79,13.69 0.22,9.39 3.64,11.94 7,15.74 -8.27,4.55 -8.22,16.67 -4.79,22.68 a 51.94,51.94 0 0 0 11.29,-6.92 c -2.63,-9.51 4.15,-11.35 12.38,-6.54 8.4,5.45 14.75,9.76 17.84,16.66 3.41,7.86 0.22,12.26 -4,12.85 -10,-1.52 -15.12,-6.93 -21.63,-14.18 a 62.18,62.18 0 0 0 -10,6.16 c 8.82,14.54 48.75,36.54 50.22,4.14 0.45,-14.26 -14.25,-29.05 -28.68,-35.59 z m 2.74,-87 c 9.61,0.61 11.63,29.25 -1.26,54.8 -5.52,7.25 -9.88,0.78 -11.67,-7.31 -3.52,-14.37 -1.24,-45.78 12.93,-47.51 z"
         class="cls-2" />
      <path
         style="fill:#ffffff"
         id="path32"
         d="m 365,310 33.16,-0.77 c -1.36,-19.44 -6,-42.16 -13.57,-46.48 -34.94,-15.57 -41.65,46.84 -30.9,77.46 5.24,14.93 19.12,28.38 42.21,24 -0.25,-6.45 -1,-13.41 -1.25,-19.86 C 370.6,345 364.25,329.61 365,310 Z m 6.31,-35.66 c 1.26,-1.51 3.26,-4 5.75,-0.74 4,6.68 5.65,14.16 5.27,25.56 L 365,300 c 0,-11.23 2,-18.65 6.27,-25.63 z"
         class="cls-2" />
      <path
         style="fill:#ffffff"
         id="path34"
         d="m 733.5,314.68 35.42,-0.78 c -1.86,-28.64 -8.13,-45.25 -13.56,-47.24 -37.27,-16.06 -44.17,47.23 -33.16,78.23 4.82,13.61 20.15,28.61 44.46,24 0,-6.46 -0.75,-12.91 -0.75,-19.36 -22.65,0.06 -32.3,-12.05 -32.41,-34.85 z m 8.29,-37.18 c 2,-0.45 3.83,-0.9 6.79,4.07 2.36,7.62 4,12.07 3.76,22.26 l -18.84,0.78 c -0.25,-0.52 -0.12,-4.33 -0.37,-4.84 0.59,-8.25 3.93,-20.13 8.66,-22.27 z"
         class="cls-2" />
      <path
         style="fill:#ffffff"
         id="path36"
         d="m 194.35,318.81 c 10.55,-1.3 19.88,-1.83 30.43,-3.12 0,-24.59 -3.82,-53.17 -23.37,-55.23 -6.1,1 -11,3.26 -14.31,7.74 -14.21,19.44 -12.1,77.8 5.27,91.4 7.65,6 18.5,6.6 32.41,5.42 q -1.14,-10.06 -2.26,-20.13 c -35.6,6.11 -28.17,-30.54 -28.17,-26.08 z m -0.94,-33.67 c 1.86,-5.79 2.45,-6.87 6.5,-6.87 6.42,3.81 7.47,7.83 8.81,16.58 0,1.81 1,5.63 1,7.44 l -17.33,3.87 c -0.08,-9.89 -0.64,-13.91 1.02,-21.02 z"
         class="cls-2" />
      <path
         style="fill:#ffffff"
         id="path38"
         d="m 547,264.08 c -38.25,0.32 -31.07,81.56 -17.22,97.31 22.67,17.46 36.83,-7.48 39.32,-44.85 1.76,-26.73 -4.67,-53.9 -22.1,-52.46 z m 10.66,45.12 c -0.8,18.06 -4.7,41.81 -17.07,37.24 -7.56,-2.8 -10.71,-31.31 -8.2,-46.53 2.27,-8.11 4.53,-16.23 11.22,-18.54 3.4,-1.61 6.31,0.17 9.2,4 2.89,3.83 5.09,17.76 4.82,23.83 z"
         class="cls-2" />
      <path
         style="fill:#ffffff"
         id="path40"
         d="m 922.67,266.27 c -17.11,-16.48 -31.19,0.67 -33.16,22.85 v 0.77 h 12.06 l 0.75,-10.07 5.27,-3.87 c 8.81,1.49 9.21,15 8.3,24 -39.18,-3.2 -39.59,62.93 -18.85,72 11.59,2.57 14.87,-2.21 20.35,-7.75 q 0.39,4.65 0.75,9.3 l 15.08,-0.78 C 926.93,339 935.4,284.71 922.67,266.27 Z m -18.84,89.46 c -6.52,-3.9 -10.36,-15.4 -5.85,-32.34 2,-6.1 11.63,-10.48 18.47,-13.36 -2.37,18.79 5.84,48.43 -12.62,45.7 z"
         class="cls-2" />
      <path
         style="fill:#ffffff"
         id="path42"
         d="m 432.49,254.77 c -3.08,-1.94 -5.64,-2.1 -9.37,-1.05 -7.44,2.46 -13.54,12.3 -20,31 4,1.54 8.28,2.09 12.3,3.63 2,-3.35 3.39,-8.17 6.18,-9.82 6.85,-3 10.67,8.65 10.41,18.34 -15.27,12.92 -35.64,31.87 -24.12,60.42 7.1,17.6 30.85,10.7 31.65,-10.84 h 1.51 c 0.06,7.62 0.18,13.49 0.67,19.07 a 128.36,128.36 0 0 0 13.65,-0.75 c -2.56,-39.14 -4.04,-98.43 -22.88,-110 z M 429.78,345 c -2.61,3.8 -8.47,5.87 -10.95,3.33 -5.24,-6.49 -2.76,-21.84 14,-34.46 5.17,-1.98 0.9,23.91 -3.05,31.13 z"
         class="cls-2" />
      <path
         style="fill:#ffffff"
         id="path44"
         d="m 370.13,394.25 c -0.34,18.82 -1.74,32.24 -1,64.28 29.09,-9.5 42.44,13 41,29.89 0,14.7 0.42,21 0.42,31.89 1.21,11.45 5.11,27.09 4,42.23 -4.78,-0.26 -12.37,-0.52 -17.14,-0.78 -4.11,-39 6.05,-85.57 -10.85,-86.49 -25.84,-1.54 -13.64,20.47 -16.56,85.05 -4.78,-0.51 -9.55,-0.49 -14.74,-0.58 0.1,-40.47 3.44,-73.49 -0.75,-123.45 q -0.37,-20.91 -0.76,-41.83 c 6.11,-0.91 8.85,-0.18 16.38,-0.21 z"
         class="cls-2" />
      <path
         style="fill:#ffffff"
         id="path46"
         d="m 558.52,398.33 h 12.94 c -0.19,9.13 -0.21,37 -0.11,51.75 4.77,0.51 11.16,0.57 15.94,1.09 0.25,6.2 0.5,13 0.75,19.2 l -0.75,1.54 c -5.78,0.52 -11.26,0.28 -17,0.8 -0.72,20.83 -3.17,53.07 -0.4,63.28 1,3.43 3.85,6 7.16,4.26 3.57,-2.75 2.64,-4.58 4.27,-9.46 a 83,83 0 0 0 12.18,-0.14 c 0,0.26 -0.14,1.42 -0.14,1.68 -2.08,17.89 -4.65,33.95 -22.76,32.92 -9.33,-2.18 -13.07,-13.45 -13.42,-18.21 q 0.75,-37.15 1.51,-74.35 h -12.85 c 0.25,-7.74 0.35,-16.25 0.6,-24 4,-0.26 8.19,0.24 12.21,0 0.25,-16.79 -0.38,-33.58 -0.13,-50.36 z"
         class="cls-2" />
      <path
         style="fill:#ffffff"
         id="path48"
         d="m 267.74,545.5 c -5.5,0.84 -10.77,0.7 -15.83,1.17 V 602 H 240.6 L 239.85,548.55 227,547.82 V 523 h 12.81 c 0.06,-37.3 -9.29,-87.23 6.78,-96.82 5.29,-2.37 9.46,-2.71 14.92,0.23 8.89,4 12,23.4 12.05,34.62 a 71.63,71.63 0 0 1 -11.44,-0.08 c -0.43,-6.92 -1.4,-9.83 -4.54,-10.77 -3.05,-0.59 -6,0.7 -6.46,3.11 -3.61,19.94 -2,47.66 0,69.71 l 17.33,1.55 z"
         class="cls-2" />
      <path
         style="fill:#ffffff"
         id="path50"
         d="m 474.24,424.67 c 4.41,0.51 6,0.79 7.52,4.19 2.23,4.44 1.34,9.79 0.15,14.41 a 7,7 0 0 1 -5.41,3.86 c -2.6,0 -4,-0.19 -6,-2.33 a 19.47,19.47 0 0 1 -1.5,-13.06 11.56,11.56 0 0 1 5.24,-7.07 z"
         class="cls-2" />
      <path
         style="fill:#ffffff"
         id="path52"
         d="m 771.18,558.67 c 0.25,-6.46 -0.53,-12.61 -0.27,-19.06 59.37,-11.06 -19.47,-68.73 15.51,-91.22 7.65,-4.92 14.71,-5.7 24.71,-2.81 q -1.51,7.37 -3,14.72 a 11.75,11.75 0 0 0 -13.56,4.78 c -3.06,14.47 5,24.64 13.26,44.64 6.27,15.28 5.83,53.15 -36.65,48.95 z"
         class="cls-2" />
      <path
         style="fill:#ffffff"
         id="path54"
         d="m 539.22,462.77 c -9,-1.7 -17.14,-2.57 -19.25,9.27 -4.16,16.07 33.22,59.08 3.26,82.41 -7.22,5.63 -14.35,9.57 -26.38,10.41 q -1.52,-10.07 -3,-20.13 c 0.25,-0.26 6.24,-1.13 6.49,-1.39 32.2,-10.77 9.89,-43.1 3.4,-59.63 -10.58,-26.94 8.48,-44.24 37.58,-37 -0.51,4.89 -1.6,11.16 -2.1,16.06 z"
         class="cls-2" />
      <path
         style="fill:#ffffff"
         id="path56"
         d="M 622,448.68 V 458 c 0.5,-0.51 1,-1 1.51,-1.54 3.18,-4.17 9.65,-9.08 16.87,-6 8.5,3.68 8.84,9.07 11.8,18.28 1,1.26 2,0.4 2.53,0.14 1.49,-14.13 9.34,-24.44 24,-20.43 4.53,2.5 6.86,4.53 9.62,10.36 4.11,16.58 1.56,48 2.85,74.64 0,6.28 0.92,23.47 1.67,29.15 a 168.46,168.46 0 0 1 -19.59,0 c -0.86,-19.26 5.24,-88.88 -9,-84.22 -14,0.35 -6.52,59.77 -7.61,84.24 h -18.11 c 0.44,-18 7.17,-77.52 -1.51,-84.43 -2.65,-2 -4.66,-2.22 -8.29,-1.55 -12.19,1.95 -8.41,57.29 -9,85.2 H 603.11 V 561 c 1.52,-28.14 2.43,-55.23 3.94,-83.37 0,-9.55 0.59,-20.16 0.59,-29.72 z"
         class="cls-2" />
      <path
         style="fill:#ffffff"
         id="path58"
         d="m 425.25,454.1 h 11.31 c -0.09,4.43 0.56,7.66 0.76,12.54 1,-0.77 1.72,-0.33 2.73,-1.11 2.68,-6 6.69,-9.32 15.35,-11.43 -0.25,5.68 -0.06,11.21 -0.31,16.89 -28.56,8.13 -13.31,54.65 -16.27,92.33 h -16.58 q 1.5,-54.62 3.01,-109.22 z"
         class="cls-2" />
      <path
         style="fill:#ffffff"
         id="path60"
         d="m 346.07,457.87 c -0.17,4 -0.4,13.47 -0.71,19.47 -8.69,1.81 -18.19,8.45 -19.78,16.23 -3.29,20.35 -0.14,37.4 19.78,41.86 q 0.38,13.17 0.76,26.33 h -4.52 c -11.31,-2.44 -15.9,-6.93 -21.86,-12.39 -12.08,-11 -16.32,-57.1 -4.52,-75.9 8.9,-14.21 18.65,-15.39 30.85,-15.6 z"
         class="cls-2" />
      <path
         style="fill:#ffffff"
         id="path62"
         d="M 468.21,474.24 481,475 q 0.38,43 0.76,86 H 466.7 q 0.77,-43.37 1.51,-86.76 z"
         class="cls-2" />
      <path
         style="fill:#ffffff"
         id="path64"
         d="m 190.62,463.48 c -10.88,2.36 -15.85,12.06 -19.35,21.6 -8.37,22.81 -9.12,86.86 20,86.67 37.57,-0.23 38.96,-111.75 -0.65,-108.27 z m -0.51,86.67 c -12.48,-2.84 -12,-70.81 7.54,-66.62 12.81,4.62 12.46,67.35 -7.54,66.62 z"
         class="cls-2" />
      <path
         style="fill:#ffffff"
         id="path66"
         d="m 744.05,462.62 c -13.49,-20.6 -43.52,-10.3 -43,16.27 3.77,0.51 8.13,1 11.89,1.55 1.71,-6.64 2.59,-8.27 7.71,-11.62 3.6,-1.41 6,-1.15 9,0.77 a 25.91,25.91 0 0 1 4.84,14.4 c -7.54,6.71 -14.63,13 -22.17,19.68 -15.93,21 -10.33,58.18 11.61,55.94 8.23,-1.06 14.87,-9 17,-21.86 l 1.51,-0.77 2.25,18.59 c 0.25,0.52 0.5,1 0.76,1.55 5,-0.52 9.9,-1.19 15.22,-0.8 -2.04,-29.32 -4.95,-75.9 -16.62,-93.7 z m -21.85,78.23 c -13.06,-7.9 -3.74,-29.16 3.95,-34.07 3.85,-2.72 8.88,-6.06 9.62,-6.06 0.5,13.94 -3,44.55 -13.57,40.13 z"
         class="cls-2" />
      <path
         style="fill:#ffffff"
         id="path68"
         d="m 601.61,746.73 c 0.43,15.06 -1.13,25 -5.58,30.83 -3.49,4.63 -7.22,5.63 -14.92,5.58 -24,-0.28 -11.11,-71.15 -11.91,-99 -3.51,-0.27 -7.94,-0.52 -11.46,-0.78 0.31,-8.69 0.06,-19.33 1.21,-23.7 4.43,1.08 7.64,1.7 11,0.47 l 1.5,-57.32 c 4.27,0.77 8.55,0.77 12.82,1.55 0,0.25 -0.91,9 -1.66,22 -1.26,17.92 -1.51,23.68 -2.12,35.64 5.28,1 12.07,2.52 17.34,3.56 v 7 c -0.35,6 -0.4,9.14 -0.91,13.79 -11,-0.78 -15.52,-1.87 -16.12,-1.25 -0.46,21.93 -4.54,71.45 0.3,72 8.71,1.86 6.59,-8.68 7.89,-11.29 0.53,-1.06 8.08,-0.24 12.62,0.92 z"
         class="cls-2" />
      <path
         style="fill:#ffffff"
         id="path70"
         d="m 356.67,606.69 c 1,0.25 2.76,0 3.77,0.31 -2.3,19.44 -3.56,44.82 -1.51,64.76 29.25,-9.75 40.7,9.43 40.7,30.2 0,18.28 0,23.36 0.75,35.78 1.63,10.28 3.92,17.13 3.92,37.65 -4.77,-0.26 -12,0.26 -16.73,0 -6.31,-24.45 4.19,-81.55 -6,-85.82 -34.3,-14 -18.68,44 -21.56,83.65 a 85.76,85.76 0 0 0 -15.37,0 c 0.1,-40.47 1.77,-83.73 -0.75,-123.93 q -0.37,-20.91 -0.76,-41.83 z"
         class="cls-2" />
      <path
         style="fill:#ffffff"
         id="path72"
         d="m 532.27,619.86 c 1.61,-0.83 3.37,-0.57 5.13,-0.31 a 10,10 0 0 1 3.91,3.41 11.49,11.49 0 0 1 1.51,8.52 c -1.47,3.14 -1.84,5.11 -5,6.66 a 6.56,6.56 0 0 1 -7.09,-0.47 c -2.82,-2.66 -3.76,-5.1 -3.77,-10.84 1.04,-4.03 2.21,-6.14 5.31,-6.97 z"
         class="cls-2" />
      <path
         style="fill:#ffffff"
         id="path74"
         d="m 617.44,653.94 18.08,0.77 c 2.07,19.55 5.61,41.22 9.8,62 0.25,-0.52 0.5,-1 0.76,-1.55 q 9.4,-26.73 18.83,-53.44 l 20.36,0.77 c -5.43,20.65 -10.56,31.86 -15.83,46.32 -7.28,21.69 -14.57,40.43 -21.86,62.11 l -18.84,47.26 -21.86,-10.88 27.89,-51.12 C 627.94,721.33 621.85,688 617.44,653.94 Z"
         class="cls-2" />
      <path
         style="fill:#ffffff"
         id="path76"
         d="m 483.89,661.53 c 3.76,0 9,-0.31 12.81,-0.31 0.5,4.13 -0.2,8.26 0.3,12.4 1,-0.78 2.76,-2 3.77,-2.8 2.69,-6.05 7.57,-7 14.17,-9.13 -0.26,5.67 -0.51,11.36 -0.76,17 -15.95,2.42 -17.75,21.31 -16.41,53.31 0.57,13.9 -0.08,28 0.59,38.87 h -16.58 c 1,-36.37 1.1,-72.94 2.11,-109.34 z"
         class="cls-2" />
      <path
         style="fill:#ffffff"
         id="path78"
         d="m 329.24,674.07 c 0.19,5.81 0.15,14 -0.16,20 -9.94,1.56 -17.63,7.78 -19.59,14.25 -3.29,20.36 1.42,39.54 19.29,43.22 l 0.75,26.34 c -1.59,0 -34.22,1.24 -37.22,-44.31 -1.21,-18.33 0.41,-34.16 6.32,-44 8.66,-14.37 20.02,-15.69 30.61,-15.5 z"
         class="cls-2" />
      <path
         style="fill:#ffffff"
         id="path80"
         d="m 542.82,679.5 c -0.76,31.81 0.71,64.43 0.76,96 q -9.8,0.4 -19.6,0.78 v -0.78 q 1.89,-48.4 3.77,-96.81 h 0.75 z"
         class="cls-2" />
      <path
         style="fill:#ffffff"
         id="path82"
         d="m 450.88,662.46 c -23.23,-7.2 -30.54,8 -33.17,28.66 h 13.57 c 0.51,-3.62 1,-6.46 1.51,-10.07 2.76,-5.16 7.49,-6.14 11.15,-2.95 3.1,3.09 4.69,10.71 4.68,22.31 -19,1.6 -34.38,12.21 -37.09,30.52 -3.91,26.52 6.48,56.57 28.8,46.17 a 23.48,23.48 0 0 0 9.64,-7.75 c 1.1,-0.33 0.8,4.59 0.91,9.29 5.77,-0.26 11.55,0.11 17.33,-0.15 -5.3,-44.26 1.49,-109.67 -17.33,-116.03 z m -2.42,88.92 c -1.55,7.11 -9,10.74 -14.46,8.36 -14.82,-11 -12.23,-37.92 8.43,-45.85 3.27,-1 5.48,-2.12 6.49,-1.86 -0.3,14.22 -0.07,29.76 -0.46,39.35 z"
         class="cls-2" />
    </g>
  </g>
  <g
     transform="translate(0,35.039978)"
     style="display:none;opacity:0.45899999"
     id="g1468">
    <path
       class="cls-1"
       d="m 926.68,85.250069 c -120.14,-120.13 -250.92,-92.7000001 -332.49,-42.64 -74.27,45.57 -91.67,114.180001 -94.19,126.100001 -2.52,-11.92 -19.92,-80.530001 -94.2,-126.100001 -81.57,-50.0600001 -212.35,-77.49 -332.480006,42.64 -77.8599995,77.870001 -126.02,307.260001 26.58,528.370001 C 266.55,855.09007 465.91,949.98007 497.79,963.98007 l 2.21,1 2.21,-1 c 31.87,-14 231.24,-108.89 397.89,-350.36 152.6,-221.11 104.44,-450.5 26.58,-528.370001 z"
       id="path1380"
       style="fill:#e92626" />
    <path
       class="cls-2"
       d="m 428.25017,299.15828 c 1.61,-0.33 4.44,-0.48 12.35,0.67 3.24,16.72 -2.75,28.39 -7.53,33.31 -4.85,3.87 -7.8,4.39 -12.06,3.91 -27.06,-2.73 -11.64,-71.31 -12.06,-99.2 -3.51,-0.26 -7.28,-1 -10.8,-1.28 0,-8.79 0.52,-14.43 1,-23.49 3.51,0 6.54,0.76 10.05,0.76 0.51,-19.11 1.5,-39 2,-58.08 l 12.82,2.33 v 0.77 c -1.76,24.46 -2.51,36 -4,55.79 5.27,1 12.27,2.82 17.54,3.85 0,-0.35 -0.23,14.17 -1,21.42 -9.51,-0.76 -16.05,-1.56 -16.05,-1.58 -0.45,21.92 -8.62,79.34 5.13,71.22 3.87,-3.17 2.41,-8.2 2.61,-10.4 z"
       id="path1382"
       style="fill:#ffffff" />
    <path
       class="cls-2"
       d="m 797.96518,298.46088 c 0.76,21.82 -0.77,35.16 -18.09,34.86 -25.53,-1.08 -11.77,-74.7 -12.06,-94.5 l -10.55,-0.78 0.75,-22.46 c 4,0.08 5.82,0.45 9.8,0.58 0.75,-17.81 1.51,-37 2.26,-54.8 l 12.06,1.55 c -1.13,15.14 -3.06,32.11 -3.39,54.8 5.27,0.77 11.49,2.13 16.77,2.91 0,1.29 0.19,3 0.19,4.25 q -0.76,8.15 -1.51,16.27 l -15.08,-1.55 c -1.23,24.22 -1.61,31 -2.26,49.57 -0.94,20.21 2.08,19.5 5.28,19.37 3.88,-0.32 4.41,-6.4 5.27,-10.84 z"
       id="path1388"
       style="fill:#ffffff" />
    <path
       class="cls-2"
       d="m 286.35017,225.15828 c -0.25,8.52 -0.75,18 -1,26.57 -2.76,0.52 -12.39,3 -15.16,9.36 -4.86,25.7 -2.08,44.36 -1.42,75.84 h -0.75 l -14.32,-1.55 v -4.62 c 2.74,-37.93 3.8,-70.06 3.77,-103.79 h 10.55 v 15.49 l 1.5,-0.77 c 2.12,-7.23 8.07,-15.86 16.83,-16.53 z"
       id="path1390"
       style="fill:#ffffff" />
    <path
       class="cls-2"
       d="m 590.85025,224.67944 -0.75,25.56 c -31.46,-0.71 -14.53,68.52 -17.11,85.2 -5.28,-0.52 -11.54,-1 -16.81,-1.55 3.49,-21.84 3.84,-85.76 3.64,-108.34 2.12,-0.16 5,-0.1 12.19,-0.1 0,5.16 -0.46,10.19 -0.46,15.36 0.44,0.35 0.6,0.09 1.11,-0.17 3.41,-7.76 8.2,-15.89 18.19,-15.96 z"
       id="path1392"
       style="fill:#ffffff" />
    <path
       class="cls-2"
       d="m 741.29025,241.58944 c -9.37,-1.27 -19.88,5.17 -7.91,29.82 14.25,24.57 18.54,68.79 -24.49,64.68 l 0.75,-18.6 c 28.49,-2.37 17.68,-33.78 13.94,-39.5 -6.78,-10.65 -25.06,-57.18 20,-50.53 -0.78,4.38 -1.53,9.74 -2.29,14.13 z"
       id="path1394"
       style="fill:#ffffff" />
    <path
       class="cls-2"
       d="m 224.30017,330.75828 c -6,-2.71 -13.71,-3.6 -14.32,-7.74 -1.27,-16.25 6.38,-1.31 15.08,-5.42 4.62,-2.19 8.86,-8.28 10.55,-11.62 9.38,-18.49 10.1,-45.52 5.27,-68.94 1.51,0.26 4.74,0.52 6.24,0.78 1,-5.37 1.54,-10.59 -2.47,-14.7 -2,-1.84 -3.49,-2.07 -5.27,-1.57 -1.75,1.08 -3.51,1.14 -4.52,8.52 -30,-13.85 -39.2,42.16 -29.4,72 -5.58,2.6 -10.69,6.13 -10.79,13.69 0.22,9.39 3.64,11.94 7,15.74 -8.27,4.55 -8.22,16.67 -4.79,22.68 a 51.94,51.94 0 0 0 11.29,-6.92 c -2.63,-9.51 4.15,-11.35 12.38,-6.54 8.4,5.45 14.75,9.76 17.84,16.66 3.41,7.86 0.22,12.26 -4,12.85 -10,-1.52 -15.12,-6.93 -21.63,-14.18 a 62.18,62.18 0 0 0 -10,6.16 c 8.82,14.54 48.75,36.54 50.22,4.14 0.45,-14.26 -14.25,-29.05 -28.68,-35.59 z m 2.74,-87 c 9.61,0.61 11.63,29.25 -1.26,54.8 -5.52,7.25 -9.88,0.78 -11.67,-7.31 -3.52,-14.37 -1.24,-45.78 12.93,-47.51 z"
       id="path1396"
       style="fill:#ffffff" />
    <path
       class="cls-2"
       d="m 668.45025,281.21944 35.42,-0.78 c -1.86,-28.64 -8.13,-45.25 -13.56,-47.24 -37.27,-16.06 -44.17,47.23 -33.16,78.23 4.82,13.61 20.15,28.61 44.46,24 0,-6.46 -0.75,-12.91 -0.75,-19.36 -22.65,0.06 -32.3,-12.05 -32.41,-34.85 z m 8.29,-37.18 c 2,-0.45 3.83,-0.9 6.79,4.07 2.36,7.62 4,12.07 3.76,22.26 l -18.84,0.78 c -0.25,-0.52 -0.12,-4.33 -0.37,-4.84 0.59,-8.25 3.93,-20.13 8.66,-22.27 z"
       id="path1398"
       style="fill:#ffffff" />
    <path
       class="cls-2"
       d="m 527.95025,230.61944 c -38.25,0.32 -31.07,81.56 -17.22,97.31 22.67,17.46 36.83,-7.48 39.32,-44.85 1.76,-26.73 -4.67,-53.9 -22.1,-52.46 z m 10.66,45.12 c -0.8,18.06 -4.7,41.81 -17.07,37.24 -7.56,-2.8 -10.71,-31.31 -8.2,-46.53 2.27,-8.11 4.53,-16.23 11.22,-18.54 3.4,-1.61 6.31,0.17 9.2,4 2.89,3.83 5.09,17.76 4.82,23.83 z"
       id="path1402"
       style="fill:#ffffff" />
    <path
       class="cls-2"
       d="m 484.95618,560.32654 h 12.94 c -0.19,9.13 -0.21,37 -0.11,51.75 4.77,0.51 11.16,0.57 15.94,1.09 0.25,6.2 0.5,13 0.75,19.2 l -0.75,1.54 c -5.78,0.52 -11.26,0.28 -17,0.8 -0.72,20.83 -3.17,53.07 -0.4,63.28 1,3.43 3.85,6 7.16,4.26 3.57,-2.75 2.64,-4.58 4.27,-9.46 a 83,83 0 0 0 12.18,-0.14 c 0,0.26 -0.14,1.42 -0.14,1.68 -2.08,17.89 -4.65,33.95 -22.76,32.92 -9.33,-2.18 -13.07,-13.45 -13.42,-18.21 q 0.75,-37.15 1.51,-74.35 h -12.85 c 0.25,-7.74 0.35,-16.25 0.6,-24 4,-0.26 8.19,0.24 12.21,0 0.25,-16.79 -0.38,-33.58 -0.13,-50.36 z"
       id="path1404"
       style="fill:#ffffff" />
    <path
       class="cls-2"
       d="m 460.91653,624.76654 c -9,-1.7 -17.14,-2.57 -19.25,9.27 -4.16,16.07 33.22,59.08 3.26,82.41 -7.22,5.63 -14.34999,9.57 -26.37999,10.41 q -1.52,-10.07 -3,-20.13 c 0.25,-0.26 6.24,-1.13 6.49,-1.39 32.19999,-10.77 9.89,-43.1 3.4,-59.63 -10.58,-26.94 8.48,-44.24 37.57999,-37 -0.51,4.89 -1.6,11.16 -2.1,16.06 z"
       id="path1408"
       style="fill:#ffffff" />
    <path
       class="cls-2"
       d="m 376.13689,616.09654 h 11.31 c -0.09,4.43 0.56,7.66 0.76,12.54 1,-0.77 1.72,-0.33 2.73,-1.11 2.68,-6 6.69,-9.32 15.35,-11.43 -0.25,5.68 -0.06,11.21 -0.31,16.89 -28.56,8.13 -13.31,54.65 -16.27,92.33 h -16.58 q 1.5,-54.62 3.01,-109.22 z"
       id="path1410"
       style="fill:#ffffff" />
    <path
       class="cls-2"
       d="m 320.07992,230.43673 c -38.25,0.32 -31.07,81.56 -17.22,97.31 22.67,17.46 36.83,-7.48 39.32,-44.85 1.76,-26.73 -4.67,-53.9 -22.1,-52.46 z m 10.66,45.12 c -0.8,18.06 -4.7,41.81 -17.07,37.24 -7.56,-2.8 -10.71,-31.31 -8.2,-46.53 2.27,-8.11 4.53,-16.23 11.22,-18.54 3.4,-1.61 6.31,0.17 9.2,4 2.89,3.83 5.09,17.76 4.82,23.83 z"
       id="path1422"
       style="display:inline;opacity:1;fill:#ffffff" />
    <path
       class="cls-2"
       d="m 374.7678,228.90343 c -38.25,0.32 -31.07,81.56 -17.22,97.31 22.67,17.46 36.83,-7.48 39.32,-44.85 1.76,-26.73 -4.67,-53.9 -22.1,-52.46 z m 10.66,45.12 c -0.8,18.06 -4.7,41.81 -17.07,37.24 -7.56,-2.8 -10.71,-31.31 -8.2,-46.53 2.27,-8.11 4.53,-16.23 11.22,-18.54 3.4,-1.61 6.31,0.17 9.2,4 2.89,3.83 5.09,17.76 4.82,23.83 z"
       id="path1424"
       style="display:inline;opacity:1;fill:#ffffff" />
    <path
       class="cls-2"
       d="m 618.5099,157.39622 -15.7495,0.91181 -6.96293,178.79819 17.24155,-1.16049 1.24338,-56.11793 17.32444,55.45479 22.46375,0.58025 -30.75295,-64.90449 31.91344,-49.73524 -17.90468,-0.58024 -22.79532,31.00163 z"
       id="path1426"
       style="fill:#ffffff;stroke-width:8.2892065" />
    <path
       class="cls-2"
       d="m 542.7358,557.89384 c 1,0.25 2.76,0 3.77,0.31 -2.3,19.44 -3.56,44.82 -1.51,64.76 29.25,-9.75 40.7,9.43 40.7,30.2 0,18.28 0,23.36 0.75,35.78 1.63,10.28 3.92,17.13 3.92,37.65 -4.77,-0.26 -12,0.26 -16.73,0 -6.31,-24.45 4.19,-81.55 -6,-85.82 -34.3,-14 -18.68,44 -21.56,83.65 a 85.76,85.76 0 0 0 -15.37,0 c 0.1,-40.47 1.77,-83.73 -0.75,-123.93 q -0.37,-20.91 -0.76,-41.83 z"
       id="path1428"
       style="display:inline;opacity:1;fill:#ffffff" />
    <path
       class="cls-2"
       d="m 266.40396,548.48833 -15.7495,0.91181 -6.96293,178.79819 17.24155,-1.16049 1.24338,-56.11793 17.32444,55.45479 22.46375,0.58025 -30.75295,-64.90449 31.91344,-49.73524 -17.90468,-0.58024 -22.79532,31.00163 z"
       id="path1444"
       style="display:inline;opacity:1;fill:#ffffff;stroke-width:8.2892065" />
    <path
       class="cls-2"
       d="m 328.44724,671.10654 35.42,-0.78 c -1.86,-28.64 -8.13,-45.25 -13.56,-47.24 -37.27,-16.06 -44.17,47.23 -33.16,78.23 4.82,13.61 20.15,28.61 44.46,24 0,-6.46 -0.75,-12.91 -0.75,-19.36 -22.65,0.06 -32.3,-12.05 -32.41,-34.85 z m 8.29,-37.18 c 2,-0.45 3.83,-0.9 6.79,4.07 2.36,7.62 4,12.07 3.76,22.26 l -18.84,0.78 c -0.25,-0.52 -0.12,-4.33 -0.37,-4.84 0.59,-8.25 3.93,-20.13 8.66,-22.27 z"
       id="path1446"
       style="display:inline;opacity:1;fill:#ffffff" />
    <path
       style="fill:#ffffff;stroke-width:7.68564272"
       class="cls-2"
       d="m 717.36637,619.19713 h -16.29356 l -1.38342,163.55047 18.82983,-0.53799 v -59.41002 a 27.745169,27.745169 0 0 0 17.75383,4.2271 c 7.68564,0 13.7573,-5.61051 17.75383,-16.29356 a 83.927216,83.927216 0 0 0 4.22711,-30.12771 c -1.46027,-20.8281 -5.14938,-36.19938 -12.14332,-45.03787 a 19.444676,19.444676 0 0 0 -15.37128,-8.9922 13.296162,13.296162 0 0 0 -13.37302,10.14505 z m 5.61052,30.12772 3.68911,-1.15285 c 9.53019,0 14.60272,11.52847 15.75556,33.73998 -1.38341,17.75383 -5.61051,26.43861 -12.91187,26.43861 a 18.445542,18.445542 0 0 1 -7.68565,-2.84369 l -3.07425,-2.84369 a 89.384022,89.384022 0 0 1 -2.53627,-25.05519 149.94689,149.94689 0 0 1 1.38342,-19.67525 11.067325,11.067325 0 0 1 5.37995,-8.60792 z"
       id="path78-2" />
    <path
       style="fill:#ffffff;stroke-width:7.68564272"
       class="cls-2"
       d="m 687.97036,549.38764 h -16.90841 l 2.53626,178.46062 h 16.83156 z"
       id="path32-0" />
    <path
       style="fill:#ffffff;stroke-width:7.68564272"
       class="cls-2"
       d="m 613.07531,722.95355 a 24.209774,24.209774 0 0 0 11.22103,3.68911 20.981804,20.981804 0 0 0 16.063,-4.53453 40.887618,40.887618 0 0 1 4.53453,-4.7651 v 17.9844 a 49.87982,49.87982 0 0 0 15.37128,0 l 1.53713,-110.05839 a 67.326228,67.326228 0 0 0 -17.44641,0.84542 c 0,1.69084 0,24.51719 -0.84542,68.70964 -1.15285,8.14678 -5.07252,12.37388 -11.52846,12.68131 -6.45594,0.30742 -8.76164,-3.07426 -9.83763,-9.83762 -0.84542,-47.57413 -1.38341,-71.7839 -1.69084,-72.3219 -13.52673,0 -20.29009,0.538 -20.82809,0.538 0.84542,46.11385 1.99827,72.01447 3.07426,76.85642 a 42.34789,42.34789 0 0 0 10.37562,20.21324 z"
       id="path22-8" />
    <path
       style="display:inline;opacity:1;fill:#ffffff"
       id="path1044-1-2"
       d="m 418.48733,424.9273 c -13.49,-20.6 -43.52,-10.3 -43,16.27 3.77,0.51 8.13,1 11.89,1.55 1.71,-6.64 2.59,-8.27 7.71,-11.62 3.6,-1.41 6,-1.15 9,0.77 a 25.91,25.91 0 0 1 4.84,14.4 c -7.54,6.71 -14.63,13 -22.17,19.68 -15.93,21 -10.33,58.18 11.61,55.94 8.23,-1.06 14.87,-9 17,-21.86 l 1.51,-0.77 2.25,18.59 c 0.25,0.52 0.5,1 0.76,1.55 5,-0.52 9.9,-1.19 15.22,-0.8 -2.04,-29.32 -4.95,-75.9 -16.62,-93.7 z m -21.85,78.23 c -13.06,-7.9 -3.74,-29.16 3.95,-34.07 3.85,-2.72 8.88,-6.06 9.62,-6.06 0.5,13.94 -3,44.55 -13.57,40.13 z"
       class="cls-2" />
    <path
       style="display:inline;opacity:1;fill:#ffffff;stroke-width:7.99268103"
       id="path22-0-8"
       d="m 495.78093,421.04033 a 25.176945,25.176945 0 0 0 -11.66932,-3.83649 21.820019,21.820019 0 0 0 -16.7047,4.71568 42.521062,42.521062 0 0 1 -4.71568,4.95547 v -18.70288 a 51.872499,51.872499 0 0 0 -15.98536,0 l -1.59854,114.45519 a 70.015885,70.015885 0 0 0 18.14339,-0.87919 c 0,-1.75839 0,-25.49665 0.87919,-71.45457 1.1989,-8.47224 5.27517,-12.86822 11.98902,-13.18792 6.71385,-0.31971 9.11166,3.19707 10.23063,10.23063 0.8792,49.47469 1.43869,74.65164 1.75839,75.21113 14.06712,0 21.10068,-0.55949 21.66017,-0.55949 -0.8792,-47.95609 -2.0781,-74.89142 -3.19707,-79.92681 a 44.039672,44.039672 0 0 0 -10.79012,-21.02075 z"
       class="cls-2" />
    <path
       id="polyline86-5"
       d="M 366.35581,411.69791 347.06473,520.60478 H 327.77366 L 305.32587,411.69791 h 16.04666 l 16.04667,67.43106 12.88994,-67.43106 h 16.04667"
       style="display:inline;opacity:1;fill:#ffffff;stroke-width:8.76866913" />
    <path
       id="path1048-14"
       d="m 598.65978,355.77889 13.54101,0.76953 c -0.26,13.94667 -0.5131,27.89008 -0.75976,41.83008 -2.52,40.2 -0.85,83.45969 -0.75,123.92969 -5.11337,-0.4601 -10.25773,-0.4601 -15.3711,0 -27.37663,-0.45267 -43.13568,-25.55404 -41.64689,-47.74691 -1.23142,-30.97151 5.98807,-55.88798 42.95285,-55.81274 2.05,-19.94 0.56435,-43.2191 -1.73564,-62.6591 1.01,-0.31 2.76953,-0.0606 3.76953,-0.31055 z m -4.80089,85.01994 c -12.39209,1.15687 -21.00316,13.35882 -21.13353,30.35042 0.0322,27.00432 8.06338,23.95015 21.84457,24.81909 -0.0514,-17.45956 0.82342,-32.90451 -0.71104,-55.16951 z"
       style="display:inline;opacity:1;fill:#ffffff" />
    <path
       style="display:inline;opacity:1;fill:#ffffff"
       id="path1012-5-4"
       d="m 646.61604,467.89926 35.42,-0.78 c -1.86,-28.64 -8.13,-45.25 -13.56,-47.24 -37.27,-16.06 -44.17,47.23 -33.16,78.23 4.82,13.61 20.15,28.61 44.46,24 0,-6.46 -0.75,-12.91 -0.75,-19.36 -22.65,0.06 -32.3,-12.05 -32.41,-34.85 z m 8.29,-37.18 c 2,-0.45 3.83,-0.9 6.79,4.07 2.36,7.62 4,12.07 3.76,22.26 l -18.84,0.78 c -0.25,-0.52 -0.12,-4.33 -0.37,-4.84 0.59,-8.25 3.93,-20.13 8.66,-22.27 z"
       class="cls-2" />
  </g>
  <g
     transform="translate(0,35.039978)"
     style="display:none"
     id="layer1" />
  <g
     transform="translate(0,35.039978)"
     style="display:none"
     id="layer2">
    <text
       id="text901-5"
       y="390.55313"
       x="1151.5226"
       style="font-style:normal;font-weight:normal;font-size:48px;line-height:1.25;font-family:sans-serif;letter-spacing:0px;word-spacing:0px;fill:#000000;fill-opacity:1;stroke:none"
       xml:space="preserve"><tspan
         id="tspan905-6"
         y="390.55313"
         x="1151.5226">het groot orkest</tspan><tspan
         id="tspan940"
         y="450.55313"
         x="1151.5226"> van kerst</tspan><tspan
         id="tspan942"
         y="510.55313"
         x="1151.5226"> liefdadigheid</tspan></text>
  </g>
  <g
     transform="translate(0,35.039978)"
     style="display:none"
     id="layer3">
    <text
       id="text901"
       y="463.332"
       x="1166.6104"
       style="font-style:normal;font-weight:normal;font-size:48px;line-height:1.25;font-family:sans-serif;letter-spacing:0px;word-spacing:0px;fill:#000000;fill-opacity:1;stroke:none"
       xml:space="preserve"><tspan
         y="463.332"
         x="1166.6104"
         id="tspan899">the great orchestra</tspan><tspan
         id="tspan903"
         y="523.33203"
         x="1166.6104">of christmas</tspan><tspan
         id="tspan905"
         y="583.33203"
         x="1166.6104">charity</tspan></text>
  </g>
</svg>
