<?xml version="1.0" encoding="UTF-8" standalone="no"?>
<svg
   xmlns:dc="http://purl.org/dc/elements/1.1/"
   xmlns:cc="http://creativecommons.org/ns#"
   xmlns:rdf="http://www.w3.org/1999/02/22-rdf-syntax-ns#"
   xmlns:svg="http://www.w3.org/2000/svg"
   xmlns="http://www.w3.org/2000/svg"
   xmlns:sodipodi="http://sodipodi.sourceforge.net/DTD/sodipodi-0.dtd"
   xmlns:inkscape="http://www.inkscape.org/namespaces/inkscape"
   width="752pt"
   height="752pt"
   version="1.1"
   viewBox="0 0 752 752"
   id="svg34"
   sodipodi:docname="victory.svg"
   inkscape:version="1.0.2-2 (e86c870879, 2021-01-15)">
  <metadata
     id="metadata38">
    <rdf:RDF>
      <cc:Work
         rdf:about="">
        <dc:format>image/svg+xml</dc:format>
        <dc:type
           rdf:resource="http://purl.org/dc/dcmitype/StillImage" />
      </cc:Work>
    </rdf:RDF>
  </metadata>
  <sodipodi:namedview
     pagecolor="#ffffff"
     bordercolor="#666666"
     borderopacity="1"
     objecttolerance="10"
     gridtolerance="10"
     guidetolerance="10"
     inkscape:pageopacity="0"
     inkscape:pageshadow="2"
     inkscape:window-width="1542"
     inkscape:window-height="1020"
     id="namedview36"
     showgrid="false"
     inkscape:zoom="0.44381649"
     inkscape:cx="142.76201"
     inkscape:cy="809.96355"
     inkscape:window-x="0"
     inkscape:window-y="0"
     inkscape:window-maximized="0"
     inkscape:current-layer="svg34" />
  <defs
     id="defs14">
    <clipPath
       id="d">
      <path
         d="m209 283h160v329.79h-160z"
         id="path2" />
    </clipPath>
    <clipPath
       id="c">
      <path
         d="m355 342h188v270.79h-188z"
         id="path5" />
    </clipPath>
    <clipPath
       id="b">
      <path
         d="m296 139.21h128v212.79h-128z"
         id="path8" />
    </clipPath>
    <clipPath
       id="a">
      <path
         d="m423 139.21h95v195.79h-95z"
         id="path11" />
    </clipPath>
  </defs>
  <rect
     style="opacity:0.516667;fill:#ffffff;fill-opacity:1;stroke:#000000;stroke-width:1.28454;stroke-linecap:round"
     id="rect871"
     width="750.7157"
     height="750.7157"
     x="0.64227003"
     y="0.64227003" />
  <g
     clip-path="url(#d)"
     id="g18">
    <path
       d="m 328.55,424.53 -34.461,-95.723 c -2.8125,-7.5352 -1.4062,-15.996 3.6836,-22.219 5.0938,-6.2227 13.109,-9.2734 21.051,-8.0078 7.9414,1.2617 14.613,6.6484 17.523,14.145 l 18.473,51.309 c 3.6289,-3.4961 7.8047,-6.3711 12.363,-8.5156 l -17.293,-48.031 c -3.4922,-9.1953 -10.492,-16.629 -19.461,-20.664 -8.9688,-4.0352 -19.172,-4.3438 -28.371,-0.85937 -10.93,4.4336 -19.234,13.621 -22.551,24.945 -9.6172,-5.7031 -21.312,-6.7148 -31.766,-2.7422 -9.0898,3.7031 -16.395,10.77 -20.402,19.723 -4.0078,8.957 -4.4102,19.113 -1.1172,28.359 l 8.9844,24.961 -4.3438,1.5781 c -17.316,6.293 -25.465,27.168 -19.336,43.969 42.164,104.31 42.883,106.09 42.883,106.09 8.3945,20.773 20.395,43.676 45.723,56.023 8.3477,4.0703 14.789,5.2383 20.895,12.883 l 5.5078,7.9688 -0.004,-0.004 c 2.3203,3.2383 6.8047,4.0312 10.094,1.7773 3.2734,-2.4023 4.0469,-6.9727 1.7422,-10.312 0,0 -5.8398,-8.4414 -5.9375,-8.5664 -7.1094,-9.0781 -16.02,-12.211 -26.062,-17.102 -20.84,-10.16 -30.852,-29.227 -38.578,-48.336 -0.40234,-0.98438 -42.746,-105.76 -42.777,-105.82 -4.375,-8.8828 1.5742,-21.301 10.703,-24.617 l 4.4922,-1.6328 20.477,56.871 0.004,-0.004 c 2.6797,7.0391 7.4297,13.094 13.629,17.371 6.1953,4.2773 13.547,6.5742 21.078,6.5859 8.0391,-0.26562 15.801,-3.0352 22.188,-7.9258 6.3906,-4.8906 11.094,-11.656 13.449,-19.348 5.7617,3.3828 12.332,5.1328 19.012,5.0664 6.6758,-0.0664 13.211,-1.9492 18.902,-5.4453 -5.4219,-2.3516 -10.355,-5.7031 -14.539,-9.875 -5.2578,1.1406 -10.746,0.37109 -15.484,-2.1719 -4.7383,-2.5391 -8.4141,-6.6875 -10.371,-11.699 z m -12.145,23.27 c -3.0469,5.1445 -7.5586,9.2656 -12.961,11.832 -5.5859,2.1484 -11.793,1.9961 -17.27,-0.42188 -5.4727,-2.418 -9.7695,-6.9023 -11.945,-12.477 l -34.461,-95.727 c -2.5781,-6.8945 -1.6328,-14.609 2.5312,-20.68 4.1641,-6.0703 11.023,-9.7266 18.383,-9.8047 7.36,-0.0781 14.297,3.4336 18.586,9.4141 0.35156,1.3867 37.395,103.66 38.438,105.44 1.875,4.0703 1.375,8.8359 -1.3008,12.426 z"
       id="path16" />
  </g>
  <g
     clip-path="url(#c)"
     id="g22">
    <path
       d="m 536.1,498.84 c 7.7656,-12.746 8.5039,-28.57 1.9609,-41.984 l -49.133,-100.05 c -2.2188,-4.8125 -5.957,-8.7656 -10.645,-11.242 -4.6875,-2.4805 -10.059,-3.3477 -15.285,-2.4688 -0.23438,0.0391 -0.46875,0.0898 -0.69922,0.15625 l -82.637,23.559 c -21.23,6.0508 -28.316,28.387 -22.625,48.066 4.0078,13.898 16.234,22.453 33.543,23.484 16.133,0.96094 32.309,-0.17969 48.445,-0.47656 0.60547,-0.0469 1.0391,-0.0859 1.3672,0.46094 l 12.973,21.039 -29.09,36.844 c -2.5078,3.1914 -2.0273,7.8008 1.0898,10.406 1.4883,1.2305 3.4102,1.8086 5.3281,1.5977 1.918,-0.21094 3.6719,-1.1875 4.8555,-2.7109 l 32.34,-40.957 h 0.004 c 1.9453,-2.4805 2.1406,-5.9062 0.49219,-8.5938 l -15.559,-25.23 c -1.3164,-2.4414 -3.2969,-4.457 -5.7188,-5.8125 -2.418,-1.3594 -5.1719,-2 -7.9414,-1.8477 -0.13281,0 -31.98,1.4414 -47.746,0.50391 -7.7852,-0.45703 -17.656,-3.0703 -20.488,-12.887 -3.1602,-10.965 -2.3203,-26.594 11.82,-29.418 0.18359,-0.0391 83.047,-23.652 83.047,-23.652 v -0.004 c 4.3008,-0.48438 8.418,1.8711 10.18,5.8242 l 49.137,100.06 v -0.004 c 4.2578,8.668 3.8438,18.902 -1.1016,27.195 l -17.348,25.715 c -8.2109,11.508 -10.934,26.047 -7.4453,39.742 l -61.07,27.734 c -3.6719,1.6641 -5.332,5.9648 -3.7227,9.6641 1.6094,3.6953 5.8867,5.4141 9.6055,3.8594 l 60.223,-27.348 c 3.8398,8.832 15.965,34.406 17.898,38.562 h -0.004 c 0.82812,1.7617 2.3242,3.1211 4.1602,3.7695 1.8359,0.65234 3.8516,0.53906 5.6055,-0.3125 1.75,-0.84766 3.0859,-2.3633 3.7109,-4.207 0.625,-1.8437 0.48438,-3.8633 -0.39062,-5.6016 -1.9531,-4.1953 -15.586,-32.895 -19.859,-43.137 -2.6133,-5.4766 -3.6953,-11.562 -3.1289,-17.605 0.56641,-6.0469 2.7617,-11.824 6.3477,-16.723 z"
       id="path20" />
  </g>
  <g
     clip-path="url(#b)"
     id="g26"
     style="fill:#005bbb;fill-opacity:1">
    <path
       d="m 323.62,269.45 c 18.215,3.0742 33.461,15.527 40.105,32.766 l 17.391,48.293 c 0.0937,0.26172 0.125,0.53125 0.20312,0.79297 l 42.488,-12.441 -54.621,-173.44 c -2.9648,-9.4453 -9.5547,-17.328 -18.328,-21.918 -8.7695,-4.5898 -19.008,-5.5117 -28.457,-2.5586 -9.3047,3.2695 -17.008,9.9648 -21.547,18.723 -4.5352,8.7578 -5.5625,18.914 -2.8672,28.402 z"
       id="path24"
       style="fill:#005bbb;fill-opacity:1" />
  </g>
  <g
     clip-path="url(#a)"
     id="g30"
     style="fill:#ffd500;fill-opacity:1">
    <path
       d="m 458.24,329.02 c 0.75391,-0.21484 1.5156,-0.38672 2.2852,-0.51953 4.7031,-0.85938 9.5312,-0.76562 14.199,0.26953 l 0.11328,-0.0312 c 0.42188,0.0898 0.82812,0.22656 1.2461,0.32812 4.4336,1.0625 8.6406,2.9062 12.422,5.4531 l 27.953,-150.01 0.004,-0.004 c 1.9688,-9.6562 0.10938,-19.703 -5.1836,-28.016 -5.2969,-8.3125 -13.613,-14.246 -23.195,-16.547 -19.91,-4.168 -38.863,10.598 -42.477,29.941 l -22.23,119.3 14.488,45.645 c 11.703,-3.3359 20.375,-5.8086 20.375,-5.8086 z"
       id="path28"
       style="fill:#ffd500;fill-opacity:1" />
  </g>
</svg>
