999
"DXF R12 Output" (www.mydxf.blogspot.com)
 0 
SECTION
 2 
HEADER
 9 
$ACADVER
 1 
AC1009
 9 
$EXTMIN
 10 
 0 
 20 
 0 
 9 
$EXTMAX
 10 
 8.5 
 20 
 11 
 0 
ENDSEC
 0 
SECTION
 2 
ENTITIES
0
LINE
8
Layer 1
10
58.984400
20
132.362000
11
104.140000
21
132.362000
0
LINE
8
Layer 1
10
104.140000
20
132.362000
11
104.140000
21
39.288200
0
LINE
8
Layer 1
10
104.140000
20
39.288200
11
58.984400
21
39.288200
0
LINE
8
Layer 1
10
58.984400
20
39.288200
11
58.984400
21
132.362000
0
LINE
8
Layer 1
10
100.189000
20
115.711000
11
153.247000
21
115.711000
0
LINE
8
Layer 1
10
153.247000
20
115.711000
11
153.247000
21
39.288200
0
LINE
8
Layer 1
10
153.247000
20
39.288200
11
100.189000
21
39.288200
0
LINE
8
Layer 1
10
100.189000
20
39.288200
11
100.189000
21
115.711000
0
LINE
8
Layer 1
10
83.537700
20
172.943000
11
119.662000
21
172.943000
0
LINE
8
Layer 1
10
119.662000
20
172.943000
11
119.662000
21
112.889000
0
LINE
8
Layer 1
10
119.662000
20
112.889000
11
83.537700
21
112.889000
0
LINE
8
Layer 1
10
83.537700
20
112.889000
11
83.537700
21
172.943000
0
LINE
8
Layer 1
10
119.380000
20
172.943000
11
146.191000
21
172.943000
0
LINE
8
Layer 1
10
146.191000
20
172.943000
11
146.191000
21
117.687000
0
LINE
8
Layer 1
10
146.191000
20
117.687000
11
119.380000
21
117.687000
0
LINE
8
Layer 1
10
119.380000
20
117.687000
11
119.380000
21
172.943000
0
LINE
8
Layer 1
10
92.724000
20
92.419300
11
82.998350
21
119.434400
0
LINE
8
Layer 1
10
82.998350
20
119.434400
11
82.623922
21
121.064379
0
LINE
8
Layer 1
10
82.623922
20
121.064379
11
82.681820
21
122.708619
0
LINE
8
Layer 1
10
82.681820
20
122.708619
11
83.157880
21
124.283421
0
LINE
8
Layer 1
10
83.157880
20
124.283421
11
84.037940
21
125.705090
0
LINE
8
Layer 1
10
84.037940
20
125.705090
11
85.257511
21
126.849329
0
LINE
8
Layer 1
10
85.257511
20
126.849329
11
86.707034
21
127.627590
0
LINE
8
Layer 1
10
86.707034
20
127.627590
11
88.307274
21
128.009596
0
LINE
8
Layer 1
10
88.307274
20
128.009596
11
89.979000
21
127.965070
0
LINE
8
Layer 1
10
89.979000
20
127.965070
11
91.581748
21
127.488616
0
LINE
8
Layer 1
10
91.581748
20
127.488616
11
92.984179
21
126.628917
0
LINE
8
Layer 1
10
92.984179
20
126.628917
11
94.120365
21
125.439286
0
LINE
8
Layer 1
10
94.120365
20
125.439286
11
94.924380
21
123.973040
0
LINE
8
Layer 1
10
94.924380
20
123.973040
11
100.137870
21
109.492540
0
LINE
8
Layer 1
10
100.137870
20
109.492540
11
101.784066
21
110.837227
0
LINE
8
Layer 1
10
101.784066
20
110.837227
11
103.626980
21
111.895830
0
LINE
8
Layer 1
10
103.626980
20
111.895830
11
98.746510
21
125.451230
0
LINE
8
Layer 1
10
98.746510
20
125.451230
11
97.828502
21
127.297132
0
LINE
8
Layer 1
10
97.828502
20
127.297132
11
96.579978
21
128.913281
0
LINE
8
Layer 1
10
96.579978
20
128.913281
11
95.041639
21
130.256365
0
LINE
8
Layer 1
10
95.041639
20
130.256365
11
93.254190
21
131.283070
0
LINE
8
Layer 1
10
93.254190
20
131.283070
11
91.300348
21
131.939694
0
LINE
8
Layer 1
10
91.300348
20
131.939694
11
89.275094
21
132.200164
0
LINE
8
Layer 1
10
89.275094
20
132.200164
11
87.237658
21
132.062720
0
LINE
8
Layer 1
10
87.237658
20
132.062720
11
85.247270
21
131.525603
0
LINE
8
Layer 1
10
85.247270
20
131.525603
11
83.083124
21
130.347144
0
LINE
8
Layer 1
10
83.083124
20
130.347144
11
81.259365
21
128.734821
0
LINE
8
Layer 1
10
81.259365
20
128.734821
11
79.838461
21
126.757881
0
LINE
8
Layer 1
10
79.838461
20
126.757881
11
78.882880
21
124.485573
0
LINE
8
Layer 1
10
78.882880
20
124.485573
11
76.751932
21
125.443183
0
LINE
8
Layer 1
10
76.751932
20
125.443183
11
74.488906
21
125.896537
0
LINE
8
Layer 1
10
74.488906
20
125.896537
11
72.181602
21
125.837886
0
LINE
8
Layer 1
10
72.181602
20
125.837886
11
69.917820
21
125.259482
0
LINE
8
Layer 1
10
69.917820
20
125.259482
11
68.094924
21
124.304174
0
LINE
8
Layer 1
10
68.094924
20
124.304174
11
66.500945
21
123.031963
0
LINE
8
Layer 1
10
66.500945
20
123.031963
11
65.175931
21
121.481947
0
LINE
8
Layer 1
10
65.175931
20
121.481947
11
64.159930
21
119.693222
0
LINE
8
Layer 1
10
64.159930
20
119.693222
11
63.502795
21
117.743179
0
LINE
8
Layer 1
10
63.502795
20
117.743179
11
63.229612
21
115.722042
0
LINE
8
Layer 1
10
63.229612
20
115.722042
11
63.342763
21
113.685612
0
LINE
8
Layer 1
10
63.342763
20
113.685612
11
63.844632
21
111.689692
0
LINE
8
Layer 1
10
63.844632
20
111.689692
11
66.380232
21
104.645152
0
LINE
8
Layer 1
10
66.380232
20
104.645152
11
65.154312
21
104.199777
0
LINE
8
Layer 1
10
65.154312
20
104.199777
11
63.445791
21
103.351145
0
LINE
8
Layer 1
10
63.445791
20
103.351145
11
61.996719
21
102.178398
0
LINE
8
Layer 1
10
61.996719
20
102.178398
11
60.823997
21
100.743238
0
LINE
8
Layer 1
10
60.823997
20
100.743238
11
59.944530
21
99.107366
0
LINE
8
Layer 1
10
59.944530
20
99.107366
11
59.375220
21
97.332482
0
LINE
8
Layer 1
10
59.375220
20
97.332482
11
59.132972
21
95.480289
0
LINE
8
Layer 1
10
59.132972
20
95.480289
11
59.234688
21
93.612487
0
LINE
8
Layer 1
10
59.234688
20
93.612487
11
59.697272
21
91.790777
0
LINE
8
Layer 1
10
59.697272
20
91.790777
11
71.799772
21
61.849877
0
LINE
8
Layer 1
10
71.799772
20
61.849877
11
73.810292
21
57.396161
0
LINE
8
Layer 1
10
73.810292
20
57.396161
11
75.039043
21
55.189663
0
LINE
8
Layer 1
10
75.039043
20
55.189663
11
76.459658
21
53.052677
0
LINE
8
Layer 1
10
76.459658
20
53.052677
11
78.104287
21
51.027160
0
LINE
8
Layer 1
10
78.104287
20
51.027160
11
80.005082
21
49.155068
0
LINE
8
Layer 1
10
80.005082
20
49.155068
11
82.194193
21
47.478355
0
LINE
8
Layer 1
10
82.194193
20
47.478355
11
84.703772
21
46.038977
0
LINE
8
Layer 1
10
84.703772
20
46.038977
11
87.889531
21
44.599335
0
LINE
8
Layer 1
10
87.889531
20
44.599335
11
89.283693
21
43.719871
0
LINE
8
Layer 1
10
89.283693
20
43.719871
11
90.600802
21
42.403107
0
LINE
8
Layer 1
10
90.600802
20
42.403107
11
92.155222
21
40.154137
0
LINE
8
Layer 1
10
92.155222
20
40.154137
11
92.154093
21
40.155266
0
LINE
8
Layer 1
10
92.154093
20
40.155266
11
92.744927
21
39.601881
0
LINE
8
Layer 1
10
92.744927
20
39.601881
11
93.475917
21
39.323213
0
LINE
8
Layer 1
10
93.475917
20
39.323213
11
94.258182
21
39.335173
0
LINE
8
Layer 1
10
94.258182
20
39.335173
11
95.002843
21
39.653673
0
LINE
8
Layer 1
10
95.002843
20
39.653673
11
95.560875
21
40.261898
0
LINE
8
Layer 1
10
95.560875
20
40.261898
11
95.839033
21
41.009644
0
LINE
8
Layer 1
10
95.839033
20
41.009644
11
95.822018
21
41.806971
0
LINE
8
Layer 1
10
95.822018
20
41.806971
11
95.494530
21
42.563943
0
LINE
8
Layer 1
10
95.494530
20
42.563943
11
93.818840
21
44.981573
0
LINE
8
Layer 1
10
93.818840
20
44.981573
11
92.221658
21
46.622472
0
LINE
8
Layer 1
10
92.221658
20
46.622472
11
90.451570
21
47.837987
0
LINE
8
Layer 1
10
90.451570
20
47.837987
11
86.463570
21
49.808133
0
LINE
8
Layer 1
10
86.463570
20
49.808133
11
84.396541
21
50.996346
0
LINE
8
Layer 1
10
84.396541
20
50.996346
11
82.587752
21
52.390903
0
LINE
8
Layer 1
10
82.587752
20
52.390903
11
81.008951
21
53.962485
0
LINE
8
Layer 1
10
81.008951
20
53.962485
11
79.631888
21
55.681775
0
LINE
8
Layer 1
10
79.631888
20
55.681775
11
78.428309
21
57.519454
0
LINE
8
Layer 1
10
78.428309
20
57.519454
11
77.369964
21
59.446202
0
LINE
8
Layer 1
10
77.369964
20
59.446202
11
75.575970
21
63.449633
0
LINE
8
Layer 1
10
75.575970
20
63.449633
11
63.503370
21
93.314333
0
LINE
8
Layer 1
10
63.503370
20
93.314333
11
63.172992
21
94.294232
0
LINE
8
Layer 1
10
63.172992
20
94.294232
11
63.092146
21
95.325876
0
LINE
8
Layer 1
10
63.092146
20
95.325876
11
63.237202
21
96.367469
0
LINE
8
Layer 1
10
63.237202
20
96.367469
11
63.584530
21
97.377214
0
LINE
8
Layer 1
10
63.584530
20
97.377214
11
64.110503
21
98.313315
0
LINE
8
Layer 1
10
64.110503
20
98.313315
11
64.791490
21
99.133976
0
LINE
8
Layer 1
10
64.791490
20
99.133976
11
65.603862
21
99.797401
0
LINE
8
Layer 1
10
65.603862
20
99.797401
11
66.523990
21
100.261793
0
LINE
8
Layer 1
10
66.523990
20
100.261793
11
67.791790
21
100.722605
0
LINE
8
Layer 1
10
67.791790
20
100.722605
11
73.570850
21
84.672405
0
LINE
8
Layer 1
10
73.570850
20
84.672405
11
73.571979
21
84.673534
0
LINE
8
Layer 1
10
73.571979
20
84.673534
11
74.245996
21
83.239173
0
LINE
8
Layer 1
10
74.245996
20
83.239173
11
75.122688
21
81.929974
0
LINE
8
Layer 1
10
75.122688
20
81.929974
11
76.185625
21
80.766935
0
LINE
8
Layer 1
10
76.185625
20
80.766935
11
77.418379
21
79.771054
0
LINE
8
Layer 1
10
77.418379
20
79.771054
11
78.786600
21
78.971833
0
LINE
8
Layer 1
10
78.786600
20
78.971833
11
80.251355
21
78.390269
0
LINE
8
Layer 1
10
80.251355
20
78.390269
11
81.786792
21
78.034425
0
LINE
8
Layer 1
10
81.786792
20
78.034425
11
83.367059
21
77.912364
0
LINE
8
Layer 1
10
83.367059
20
77.912364
11
85.049158
21
78.099399
0
LINE
8
Layer 1
10
85.049158
20
78.099399
11
86.672876
21
78.541305
0
LINE
8
Layer 1
10
86.672876
20
78.541305
11
88.209171
21
79.227951
0
LINE
8
Layer 1
10
88.209171
20
79.227951
11
89.628999
21
80.149204
0
LINE
8
Layer 1
10
89.628999
20
80.149204
11
90.889479
21
81.279405
0
LINE
8
Layer 1
10
90.889479
20
81.279405
11
91.953901
21
82.582936
0
LINE
8
Layer 1
10
91.953901
20
82.582936
11
92.804773
21
84.034709
0
LINE
8
Layer 1
10
92.804773
20
84.034709
11
93.424599
21
85.609634
0
LINE
8
Layer 1
10
93.424599
20
85.609634
11
94.683865
21
84.980820
0
LINE
8
Layer 1
10
94.683865
20
84.980820
11
96.010214
21
84.529668
0
LINE
8
Layer 1
10
96.010214
20
84.529668
11
97.385156
21
84.261037
0
LINE
8
Layer 1
10
97.385156
20
84.261037
11
98.790199
21
84.179784
0
LINE
8
Layer 1
10
98.790199
20
84.179784
11
100.192700
21
84.289060
0
LINE
8
Layer 1
10
100.192700
20
84.289060
11
101.561703
21
84.585199
0
LINE
8
Layer 1
10
101.561703
20
84.585199
11
102.878594
21
85.062824
0
LINE
8
Layer 1
10
102.878594
20
85.062824
11
104.124759
21
85.716564
0
LINE
8
Layer 1
10
104.124759
20
85.716564
11
101.942134
21
86.917386
0
LINE
8
Layer 1
10
101.942134
20
86.917386
11
100.021529
21
88.503504
0
LINE
8
Layer 1
10
100.021529
20
88.503504
11
98.900759
21
88.362551
0
LINE
8
Layer 1
10
98.900759
20
88.362551
11
97.781551
21
88.420137
0
LINE
8
Layer 1
10
97.781551
20
88.420137
11
96.689850
21
88.672645
0
LINE
8
Layer 1
10
96.689850
20
88.672645
11
95.651599
21
89.116462
0
LINE
8
Layer 1
10
95.651599
20
89.116462
11
94.707780
21
89.735773
0
LINE
8
Layer 1
10
94.707780
20
89.735773
11
93.893775
21
90.505658
0
LINE
8
Layer 1
10
93.893775
20
90.505658
11
93.226953
21
91.406375
0
LINE
8
Layer 1
10
93.226953
20
91.406375
11
92.724679
21
92.418182
0
LINE
8
Layer 1
10
92.724679
20
92.418182
11
92.724000
21
92.419300
0
LINE
8
Layer 1
10
89.296410
20
85.851990
11
88.576503
21
84.819569
0
LINE
8
Layer 1
10
88.576503
20
84.819569
11
87.716762
21
83.909515
0
LINE
8
Layer 1
10
87.716762
20
83.909515
11
86.732374
21
83.135886
0
LINE
8
Layer 1
10
86.732374
20
83.135886
11
85.638530
21
82.512740
0
LINE
8
Layer 1
10
85.638530
20
82.512740
11
84.429271
21
82.179586
0
LINE
8
Layer 1
10
84.429271
20
82.179586
11
83.190021
21
82.088997
0
LINE
8
Layer 1
10
83.190021
20
82.088997
11
81.956533
21
82.240045
0
LINE
8
Layer 1
10
81.956533
20
82.240045
11
80.764560
21
82.631804
0
LINE
8
Layer 1
10
80.764560
20
82.631804
11
79.672565
21
83.248652
0
LINE
8
Layer 1
10
79.672565
20
83.248652
11
78.730034
21
84.058361
0
LINE
8
Layer 1
10
78.730034
20
84.058361
11
77.961981
21
85.035112
0
LINE
8
Layer 1
10
77.961981
20
85.035112
11
77.393420
21
86.153084
0
LINE
8
Layer 1
10
77.393420
20
86.153084
11
67.667770
21
113.169384
0
LINE
8
Layer 1
10
67.667770
20
113.169384
11
67.307175
21
114.661247
0
LINE
8
Layer 1
10
67.307175
20
114.661247
11
67.311412
21
116.174713
0
LINE
8
Layer 1
10
67.311412
20
116.174713
11
67.672417
21
117.644602
0
LINE
8
Layer 1
10
67.672417
20
117.644602
11
68.382130
21
119.005734
0
LINE
8
Layer 1
10
68.382130
20
119.005734
11
69.396456
21
120.157738
0
LINE
8
Layer 1
10
69.396456
20
120.157738
11
70.637940
21
121.023458
0
LINE
8
Layer 1
10
70.637940
20
121.023458
11
72.048542
21
121.572091
0
LINE
8
Layer 1
10
72.048542
20
121.572091
11
73.570220
21
121.772834
0
LINE
8
Layer 1
10
73.570220
20
121.772834
11
75.095889
21
121.604348
0
LINE
8
Layer 1
10
75.095889
20
121.604348
11
76.517922
21
121.085602
0
LINE
8
Layer 1
10
76.517922
20
121.085602
11
77.777450
21
120.246254
0
LINE
8
Layer 1
10
77.777450
20
120.246254
11
78.815600
21
119.115964
0
LINE
8
Layer 1
10
78.815600
20
119.115964
11
84.166444
21
104.278855
0
LINE
8
Layer 1
10
84.166444
20
104.278855
11
89.663600
21
89.358464
0
LINE
8
Layer 1
10
89.663600
20
89.358464
11
89.935676
21
88.468373
0
LINE
8
Layer 1
10
89.935676
20
88.468373
11
89.961669
21
87.554195
0
LINE
8
Layer 1
10
89.961669
20
87.554195
11
89.746848
21
86.665429
0
LINE
8
Layer 1
10
89.746848
20
86.665429
11
89.296486
21
85.851574
0
LINE
8
Layer 1
10
89.296486
20
85.851574
11
89.296410
21
85.851990
0
LINE
8
Layer 1
10
151.299000
20
71.447400
11
152.027753
21
72.834044
0
LINE
8
Layer 1
10
152.027753
20
72.834044
11
152.569735
21
74.283977
0
LINE
8
Layer 1
10
152.569735
20
74.283977
11
152.924108
21
75.779047
0
LINE
8
Layer 1
10
152.924108
20
75.779047
11
153.090030
21
77.301105
0
LINE
8
Layer 1
10
153.090030
20
77.301105
11
153.066661
21
78.832000
0
LINE
8
Layer 1
10
153.066661
20
78.832000
11
152.853162
21
80.353581
0
LINE
8
Layer 1
10
152.853162
20
80.353581
11
152.448691
21
81.847698
0
LINE
8
Layer 1
10
152.448691
20
81.847698
11
151.852409
21
83.296200
0
LINE
8
Layer 1
10
151.852409
20
83.296200
11
137.986009
21
111.532500
0
LINE
8
Layer 1
10
137.986009
20
111.532500
11
137.438473
21
112.502946
0
LINE
8
Layer 1
10
137.438473
20
112.502946
11
136.745205
21
113.366107
0
LINE
8
Layer 1
10
136.745205
20
113.366107
11
135.921276
21
114.105651
0
LINE
8
Layer 1
10
135.921276
20
114.105651
11
134.981759
21
114.705240
0
LINE
8
Layer 1
10
134.981759
20
114.705240
11
133.957034
21
115.144323
0
LINE
8
Layer 1
10
133.957034
20
115.144323
11
132.881868
21
115.409151
0
LINE
8
Layer 1
10
132.881868
20
115.409151
11
131.778208
21
115.496212
0
LINE
8
Layer 1
10
131.778208
20
115.496212
11
130.667999
21
115.401990
0
LINE
8
Layer 1
10
130.667999
20
115.401990
11
130.470664
21
115.357893
0
LINE
8
Layer 1
10
130.470664
20
115.357893
11
107.148664
21
108.709023
0
LINE
8
Layer 1
10
107.148664
20
108.709023
11
105.088185
21
107.863646
0
LINE
8
Layer 1
10
105.088185
20
107.863646
11
103.397410
21
106.650033
0
LINE
8
Layer 1
10
103.397410
20
106.650033
11
102.071819
21
105.130833
0
LINE
8
Layer 1
10
102.071819
20
105.130833
11
101.106891
21
103.368694
0
LINE
8
Layer 1
10
101.106891
20
103.368694
11
100.498106
21
101.426265
0
LINE
8
Layer 1
10
100.498106
20
101.426265
11
100.240942
21
99.366195
0
LINE
8
Layer 1
10
100.240942
20
99.366195
11
100.330878
21
97.251131
0
LINE
8
Layer 1
10
100.330878
20
97.251131
11
100.763394
21
95.143723
0
LINE
8
Layer 1
10
100.763394
20
95.143723
11
101.294547
21
93.744738
0
LINE
8
Layer 1
10
101.294547
20
93.744738
11
102.032774
21
92.494334
0
LINE
8
Layer 1
10
102.032774
20
92.494334
11
102.967705
21
91.399722
0
LINE
8
Layer 1
10
102.967705
20
91.399722
11
104.088970
21
90.468117
0
LINE
8
Layer 1
10
104.088970
20
90.468117
11
105.386199
21
89.706731
0
LINE
8
Layer 1
10
105.386199
20
89.706731
11
106.849021
21
89.122778
0
LINE
8
Layer 1
10
106.849021
20
89.122778
11
108.467066
21
88.723471
0
LINE
8
Layer 1
10
108.467066
20
88.723471
11
110.229964
21
88.516023
0
LINE
8
Layer 1
10
110.229964
20
88.516023
11
113.646689
21
88.410844
0
LINE
8
Layer 1
10
113.646689
20
88.410844
11
117.065764
21
88.450153
0
LINE
8
Layer 1
10
117.065764
20
88.450153
11
123.902164
21
88.650519
0
LINE
8
Layer 1
10
123.902164
20
88.650519
11
124.124446
21
88.648313
0
LINE
8
Layer 1
10
124.124446
20
88.648313
11
124.288018
21
88.520432
0
LINE
8
Layer 1
10
124.288018
20
88.520432
11
127.949288
21
82.582762
0
LINE
8
Layer 1
10
127.949288
20
82.582762
11
119.739448
21
72.184562
0
LINE
8
Layer 1
10
119.739448
20
72.184562
11
119.365211
21
71.449104
0
LINE
8
Layer 1
10
119.365211
20
71.449104
11
119.297929
21
70.654121
0
LINE
8
Layer 1
10
119.297929
20
70.654121
11
119.528299
21
69.890158
0
LINE
8
Layer 1
10
119.528299
20
69.890158
11
120.047014
21
69.247762
0
LINE
8
Layer 1
10
120.047014
20
69.247762
11
120.753402
21
68.869761
0
LINE
8
Layer 1
10
120.753402
20
68.869761
11
121.550724
21
68.796856
0
LINE
8
Layer 1
10
121.550724
20
68.796856
11
122.313612
21
69.040492
0
LINE
8
Layer 1
10
122.313612
20
69.040492
11
122.921054
21
69.561932
0
LINE
8
Layer 1
10
122.921054
20
69.561932
11
132.048114
21
81.120932
0
LINE
8
Layer 1
10
132.048114
20
81.120932
11
132.049000
21
81.120900
0
LINE
8
Layer 1
10
132.049000
20
81.120900
11
132.367737
21
81.688533
0
LINE
8
Layer 1
10
132.367737
20
81.688533
11
132.498787
21
82.311662
0
LINE
8
Layer 1
10
132.498787
20
82.311662
11
132.439670
21
82.945750
0
LINE
8
Layer 1
10
132.439670
20
82.945750
11
132.187907
21
83.546260
0
LINE
8
Layer 1
10
132.187907
20
83.546260
11
127.796817
21
90.666720
0
LINE
8
Layer 1
10
127.796817
20
90.666720
11
127.106830
21
91.601851
0
LINE
8
Layer 1
10
127.106830
20
91.601851
11
126.182847
21
92.307140
0
LINE
8
Layer 1
10
126.182847
20
92.307140
11
125.099430
21
92.727859
0
LINE
8
Layer 1
10
125.099430
20
92.727859
11
123.941607
21
92.828602
0
LINE
8
Layer 1
10
123.941607
20
92.828602
11
118.858629
21
92.658277
0
LINE
8
Layer 1
10
118.858629
20
92.658277
11
114.443955
21
92.596989
0
LINE
8
Layer 1
10
114.443955
20
92.596989
11
110.466607
21
92.686388
0
LINE
8
Layer 1
10
110.466607
20
92.686388
11
108.748616
21
92.919484
0
LINE
8
Layer 1
10
108.748616
20
92.919484
11
107.051314
21
93.514321
0
LINE
8
Layer 1
10
107.051314
20
93.514321
11
106.285865
21
93.989123
0
LINE
8
Layer 1
10
106.285865
20
93.989123
11
105.616119
21
94.604439
0
LINE
8
Layer 1
10
105.616119
20
94.604439
11
105.072254
21
95.376960
0
LINE
8
Layer 1
10
105.072254
20
95.376960
11
104.684447
21
96.323378
0
LINE
8
Layer 1
10
104.684447
20
96.323378
11
104.408037
21
97.535910
0
LINE
8
Layer 1
10
104.408037
20
97.535910
11
104.268222
21
98.814069
0
LINE
8
Layer 1
10
104.268222
20
98.814069
11
104.295760
21
100.100080
0
LINE
8
Layer 1
10
104.295760
20
100.100080
11
104.521410
21
101.336168
0
LINE
8
Layer 1
10
104.521410
20
101.336168
11
104.975931
21
102.464558
0
LINE
8
Layer 1
10
104.975931
20
102.464558
11
105.690082
21
103.427475
0
LINE
8
Layer 1
10
105.690082
20
103.427475
11
106.694621
21
104.167143
0
LINE
8
Layer 1
10
106.694621
20
104.167143
11
108.020307
21
104.625788
0
LINE
8
Layer 1
10
108.020307
20
104.625788
11
131.458007
21
111.300898
0
LINE
8
Layer 1
10
131.458007
20
111.300898
11
131.459000
21
111.302000
0
LINE
8
Layer 1
10
131.459000
20
111.302000
11
132.350043
21
111.259729
0
LINE
8
Layer 1
10
132.350043
20
111.259729
11
133.164198
21
110.949774
0
LINE
8
Layer 1
10
133.164198
20
110.949774
11
133.844008
21
110.405002
0
LINE
8
Layer 1
10
133.844008
20
110.405002
11
134.332020
21
109.658280
0
LINE
8
Layer 1
10
134.332020
20
109.658280
11
148.199520
21
81.419180
0
LINE
8
Layer 1
10
148.199520
20
81.419180
11
148.199000
21
81.420300
0
LINE
8
Layer 1
10
148.199000
20
81.420300
11
148.853634
21
79.518172
0
LINE
8
Layer 1
10
148.853634
20
79.518172
11
149.017553
21
77.543099
0
LINE
8
Layer 1
10
149.017553
20
77.543099
11
148.694471
21
75.587868
0
LINE
8
Layer 1
10
148.694471
20
75.587868
11
147.888104
21
73.745270
0
LINE
8
Layer 1
10
147.888104
20
73.745270
11
142.992114
21
66.487930
0
LINE
8
Layer 1
10
142.992114
20
66.487930
11
142.196125
21
65.232039
0
LINE
8
Layer 1
10
142.196125
20
65.232039
11
141.547728
21
63.908769
0
LINE
8
Layer 1
10
141.547728
20
63.908769
11
141.049318
21
62.530933
0
LINE
8
Layer 1
10
141.049318
20
62.530933
11
140.703290
21
61.111349
0
LINE
8
Layer 1
10
140.703290
20
61.111349
11
140.512038
21
59.662831
0
LINE
8
Layer 1
10
140.512038
20
59.662831
11
140.477957
21
58.198195
0
LINE
8
Layer 1
10
140.477957
20
58.198195
11
140.603441
21
56.730256
0
LINE
8
Layer 1
10
140.603441
20
56.730256
11
140.890884
21
55.271830
0
LINE
8
Layer 1
10
140.890884
20
55.271830
11
123.655584
21
47.444690
0
LINE
8
Layer 1
10
123.655584
20
47.444690
11
122.990369
21
46.967214
0
LINE
8
Layer 1
10
122.990369
20
46.967214
11
122.571343
21
46.296370
0
LINE
8
Layer 1
10
122.571343
20
46.296370
11
122.431779
21
45.517831
0
LINE
8
Layer 1
10
122.431779
20
45.517831
11
122.604954
21
44.717270
0
LINE
8
Layer 1
10
122.604954
20
44.717270
11
123.072559
21
44.045410
0
LINE
8
Layer 1
10
123.072559
20
44.045410
11
123.737152
21
43.617043
0
LINE
8
Layer 1
10
123.737152
20
43.617043
11
124.513366
21
43.466487
0
LINE
8
Layer 1
10
124.513366
20
43.466487
11
125.315834
21
43.628060
0
LINE
8
Layer 1
10
125.315834
20
43.628060
11
142.312134
21
51.346270
0
LINE
8
Layer 1
10
142.312134
20
51.346270
11
147.363344
21
40.463270
0
LINE
8
Layer 1
10
147.363344
20
40.463270
11
147.362000
21
40.463300
0
LINE
8
Layer 1
10
147.362000
20
40.463300
11
147.842383
21
39.813558
0
LINE
8
Layer 1
10
147.842383
20
39.813558
11
148.536100
21
39.399460
0
LINE
8
Layer 1
10
148.536100
20
39.399460
11
149.335778
21
39.284394
0
LINE
8
Layer 1
10
149.335778
20
39.284394
11
150.118100
21
39.487654
0
LINE
8
Layer 1
10
150.118100
20
39.487654
11
150.760811
21
39.975894
0
LINE
8
Layer 1
10
150.760811
20
39.975894
11
151.165400
21
40.674964
0
LINE
8
Layer 1
10
151.165400
20
40.674964
11
151.269029
21
41.476567
0
LINE
8
Layer 1
10
151.269029
20
41.476567
11
151.055158
21
42.255854
0
LINE
8
Layer 1
10
151.055158
20
42.255854
11
148.498357
21
47.703017
0
LINE
8
Layer 1
10
148.498357
20
47.703017
11
145.450508
21
54.430054
0
LINE
8
Layer 1
10
145.450508
20
54.430054
11
144.978908
21
55.618612
0
LINE
8
Layer 1
10
144.978908
20
55.618612
11
144.672470
21
56.854371
0
LINE
8
Layer 1
10
144.672470
20
56.854371
11
144.534289
21
58.120101
0
LINE
8
Layer 1
10
144.534289
20
58.120101
11
144.567464
21
59.398574
0
LINE
8
Layer 1
10
144.567464
20
59.398574
11
144.772498
21
60.661542
0
LINE
8
Layer 1
10
144.772498
20
60.661542
11
145.143621
21
61.879859
0
LINE
8
Layer 1
10
145.143621
20
61.879859
11
145.674530
21
63.037435
0
LINE
8
Layer 1
10
145.674530
20
63.037435
11
146.358924
21
64.118174
0
LINE
8
Layer 1
10
146.358924
20
64.118174
11
151.299000
21
71.447400
0
LINE
8
Layer 1
10
91.332700
20
136.186000
11
93.218069
21
135.739108
0
LINE
8
Layer 1
10
93.218069
20
135.739108
11
95.006254
21
135.059262
0
LINE
8
Layer 1
10
95.006254
20
135.059262
11
96.678624
21
134.161651
0
LINE
8
Layer 1
10
96.678624
20
134.161651
11
98.216550
21
133.061464
0
LINE
8
Layer 1
10
98.216550
20
133.061464
11
99.601401
21
131.773887
0
LINE
8
Layer 1
10
99.601401
20
131.773887
11
100.814546
21
130.314111
0
LINE
8
Layer 1
10
100.814546
20
130.314111
11
101.837356
21
128.697322
0
LINE
8
Layer 1
10
101.837356
20
128.697322
11
102.651200
21
126.938710
0
LINE
8
Layer 1
10
102.651200
20
126.938710
11
107.559320
21
113.309410
0
LINE
8
Layer 1
10
107.559320
20
113.309410
11
107.616645
21
113.085616
0
LINE
8
Layer 1
10
107.616645
20
113.085616
11
119.607645
21
116.596736
0
LINE
8
Layer 1
10
119.607645
20
116.596736
11
104.192445
21
165.545336
0
LINE
8
Layer 1
10
104.192445
20
165.545336
11
103.379425
21
167.454272
0
LINE
8
Layer 1
10
103.379425
20
167.454272
11
102.220894
21
169.152057
0
LINE
8
Layer 1
10
102.220894
20
169.152057
11
100.754999
21
170.592917
0
LINE
8
Layer 1
10
100.754999
20
170.592917
11
99.019885
21
171.731076
0
LINE
8
Layer 1
10
99.019885
20
171.731076
11
97.095898
21
172.507575
0
LINE
8
Layer 1
10
97.095898
20
172.507575
11
95.076200
21
172.890410
0
LINE
8
Layer 1
10
95.076200
20
172.890410
11
93.020547
21
172.874101
0
LINE
8
Layer 1
10
93.020547
20
172.874101
11
90.988695
21
172.453169
0
LINE
8
Layer 1
10
90.988695
20
172.453169
11
89.110835
21
171.585853
0
LINE
8
Layer 1
10
89.110835
20
171.585853
11
87.443807
21
170.392033
0
LINE
8
Layer 1
10
87.443807
20
170.392033
11
86.028964
21
168.907772
0
LINE
8
Layer 1
10
86.028964
20
168.907772
11
84.907655
21
167.169129
0
LINE
8
Layer 1
10
84.907655
20
167.169129
11
84.134279
21
165.250512
0
LINE
8
Layer 1
10
84.134279
20
165.250512
11
83.737835
21
163.238574
0
LINE
8
Layer 1
10
83.737835
20
163.238574
11
83.724004
21
161.187996
0
LINE
8
Layer 1
10
83.724004
20
161.187996
11
84.098468
21
159.153459
0
LINE
8
Layer 1
10
84.098468
20
159.153459
11
91.332700
21
136.186000
0
LINE
8
Layer 1
10
129.325000
20
119.374000
11
129.969934
21
119.520623
0
LINE
8
Layer 1
10
129.969934
20
119.520623
11
131.977304
21
119.683094
0
LINE
8
Layer 1
10
131.977304
20
119.683094
11
133.977204
21
119.444556
0
LINE
8
Layer 1
10
133.977204
20
119.444556
11
134.009174
21
119.453361
0
LINE
8
Layer 1
10
134.009174
20
119.453361
11
134.360851
21
119.360758
0
LINE
8
Layer 1
10
134.360851
20
119.360758
11
136.182757
21
118.748365
0
LINE
8
Layer 1
10
136.182757
20
118.748365
11
137.866611
21
117.821778
0
LINE
8
Layer 1
10
137.866611
20
117.821778
11
145.755561
21
160.157878
0
LINE
8
Layer 1
10
145.755561
20
160.157878
11
145.756690
21
160.159007
0
LINE
8
Layer 1
10
145.756690
20
160.159007
11
145.972583
21
162.214202
0
LINE
8
Layer 1
10
145.972583
20
162.214202
11
145.793764
21
164.254527
0
LINE
8
Layer 1
10
145.793764
20
164.254527
11
145.230676
21
166.223775
0
LINE
8
Layer 1
10
145.230676
20
166.223775
11
144.293760
21
168.065737
0
LINE
8
Layer 1
10
144.293760
20
168.065737
11
143.020550
21
169.693798
0
LINE
8
Layer 1
10
143.020550
20
169.693798
11
141.474196
21
171.036916
0
LINE
8
Layer 1
10
141.474196
20
171.036916
11
139.701090
21
172.061927
0
LINE
8
Layer 1
10
139.701090
20
172.061927
11
137.747620
21
172.735667
0
LINE
8
Layer 1
10
137.747620
20
172.735667
11
135.661068
21
172.934213
0
LINE
8
Layer 1
10
135.661068
20
172.934213
11
133.647402
21
172.679279
0
LINE
8
Layer 1
10
133.647402
20
172.679279
11
131.754188
21
172.018350
0
LINE
8
Layer 1
10
131.754188
20
172.018350
11
130.028992
21
170.998907
0
LINE
8
Layer 1
10
130.028992
20
170.998907
11
128.519382
21
169.668434
0
LINE
8
Layer 1
10
128.519382
20
169.668434
11
127.272922
21
168.074413
0
LINE
8
Layer 1
10
127.272922
20
168.074413
11
126.337179
21
166.264326
0
LINE
8
Layer 1
10
126.337179
20
166.264326
11
125.759720
21
164.285657
0
LINE
8
Layer 1
10
125.759720
20
164.285657
11
119.485920
21
130.616557
0
LINE
8
Layer 1
10
119.485920
20
130.616557
11
123.574750
21
117.734557
0
LINE
8
Layer 1
10
123.574750
20
117.734557
11
129.325020
21
119.373867
0
LINE
8
Layer 1
10
129.325020
20
119.373867
11
129.325000
21
119.374000
 0 
ENDSEC
 0 
EOF