999
"DXF R12 Output" (www.mydxf.blogspot.com)
 0 
SECTION
 2 
HEADER
 9 
$ACADVER
 1 
AC1009
 9 
$EXTMIN
 10 
 0 
 20 
 0 
 9 
$EXTMAX
 10 
 8.5 
 20 
 11 
 0 
ENDSEC
 0 
SECTION
 2 
ENTITIES
0
LINE
8
Layer 1
10
84.481400
20
184.326000
11
80.450744
21
184.188785
0
LINE
8
Layer 1
10
80.450744
20
184.188785
11
76.314251
21
183.763130
0
LINE
8
Layer 1
10
76.314251
20
183.763130
11
72.133852
21
183.028017
0
LINE
8
Layer 1
10
72.133852
20
183.028017
11
67.971477
21
181.962431
0
LINE
8
Layer 1
10
67.971477
20
181.962431
11
63.889057
21
180.545355
0
LINE
8
Layer 1
10
63.889057
20
180.545355
11
59.948523
21
178.755773
0
LINE
8
Layer 1
10
59.948523
20
178.755773
11
56.211807
21
176.572669
0
LINE
8
Layer 1
10
56.211807
20
176.572669
11
52.740837
21
173.975025
0
LINE
8
Layer 1
10
52.740837
20
173.975025
11
49.597547
21
170.941826
0
LINE
8
Layer 1
10
49.597547
20
170.941826
11
48.168135
21
169.255325
0
LINE
8
Layer 1
10
48.168135
20
169.255325
11
46.843866
21
167.452055
0
LINE
8
Layer 1
10
46.843866
20
167.452055
11
45.632482
21
165.529387
0
LINE
8
Layer 1
10
45.632482
20
165.529387
11
44.541725
21
163.484695
0
LINE
8
Layer 1
10
44.541725
20
163.484695
11
43.579335
21
161.315352
0
LINE
8
Layer 1
10
43.579335
20
161.315352
11
42.753055
21
159.018731
0
LINE
8
Layer 1
10
42.753055
20
159.018731
11
42.070625
21
156.592205
0
LINE
8
Layer 1
10
42.070625
20
156.592205
11
41.539786
21
154.033146
0
LINE
8
Layer 1
10
41.539786
20
154.033146
11
41.168281
21
151.338928
0
LINE
8
Layer 1
10
41.168281
20
151.338928
11
40.963851
21
148.506923
0
LINE
8
Layer 1
10
40.963851
20
148.506923
11
40.934236
21
145.534505
0
LINE
8
Layer 1
10
40.934236
20
145.534505
11
41.087178
21
142.419047
0
LINE
8
Layer 1
10
41.087178
20
142.419047
11
41.430419
21
139.157921
0
LINE
8
Layer 1
10
41.430419
20
139.157921
11
41.971700
21
135.748500
0
LINE
8
Layer 1
10
41.971700
20
135.748500
11
42.758621
21
132.262364
0
LINE
8
Layer 1
10
42.758621
20
132.262364
11
43.823141
21
128.774412
0
LINE
8
Layer 1
10
43.823141
20
128.774412
11
45.149566
21
125.287138
0
LINE
8
Layer 1
10
45.149566
20
125.287138
11
46.722202
21
121.803034
0
LINE
8
Layer 1
10
46.722202
20
121.803034
11
48.525355
21
118.324593
0
LINE
8
Layer 1
10
48.525355
20
118.324593
11
50.543330
21
114.854308
0
LINE
8
Layer 1
10
50.543330
20
114.854308
11
52.760434
21
111.394673
0
LINE
8
Layer 1
10
52.760434
20
111.394673
11
55.160973
21
107.948181
0
LINE
8
Layer 1
10
55.160973
20
107.948181
11
60.449580
21
101.104597
0
LINE
8
Layer 1
10
60.449580
20
101.104597
11
66.283599
21
94.343501
0
LINE
8
Layer 1
10
66.283599
20
94.343501
11
72.537477
21
87.684837
0
LINE
8
Layer 1
10
72.537477
20
87.684837
11
79.085663
21
81.148550
0
LINE
8
Layer 1
10
79.085663
20
81.148550
11
85.802604
21
74.754585
0
LINE
8
Layer 1
10
85.802604
20
74.754585
11
92.562750
21
68.522887
0
LINE
8
Layer 1
10
92.562750
20
68.522887
11
105.710445
21
56.626069
0
LINE
8
Layer 1
10
105.710445
20
56.626069
11
111.846891
21
51.000839
0
LINE
8
Layer 1
10
111.846891
20
51.000839
11
117.524334
21
45.617654
0
LINE
8
Layer 1
10
117.524334
20
45.617654
11
122.617221
21
40.496459
0
LINE
8
Layer 1
10
122.617221
20
40.496459
11
127.000000
21
35.657200
0
LINE
8
Layer 1
10
127.000000
20
35.657200
11
131.382781
21
40.496460
0
LINE
8
Layer 1
10
131.382781
20
40.496460
11
136.475674
21
45.617655
0
LINE
8
Layer 1
10
136.475674
20
45.617655
11
142.153124
21
51.000842
0
LINE
8
Layer 1
10
142.153124
20
51.000842
11
148.289578
21
56.626077
0
LINE
8
Layer 1
10
148.289578
20
56.626077
11
161.437287
21
68.522913
0
LINE
8
Layer 1
10
161.437287
20
68.522913
11
168.197435
21
74.754627
0
LINE
8
Layer 1
10
168.197435
20
74.754627
11
174.914375
21
81.148612
0
LINE
8
Layer 1
10
174.914375
20
81.148612
11
181.462553
21
87.684926
0
LINE
8
Layer 1
10
181.462553
20
87.684926
11
187.716416
21
94.343623
0
LINE
8
Layer 1
10
187.716416
20
94.343623
11
193.550411
21
101.104760
0
LINE
8
Layer 1
10
193.550411
20
101.104760
11
198.838984
21
107.948392
0
LINE
8
Layer 1
10
198.838984
20
107.948392
11
201.239503
21
111.394912
0
LINE
8
Layer 1
10
201.239503
20
111.394912
11
203.456583
21
114.854576
0
LINE
8
Layer 1
10
203.456583
20
114.854576
11
205.474532
21
118.324893
0
LINE
8
Layer 1
10
205.474532
20
118.324893
11
207.277654
21
121.803369
0
LINE
8
Layer 1
10
207.277654
20
121.803369
11
208.850257
21
125.287510
0
LINE
8
Layer 1
10
208.850257
20
125.287510
11
210.176644
21
128.774824
0
LINE
8
Layer 1
10
210.176644
20
128.774824
11
211.241124
21
132.262819
0
LINE
8
Layer 1
10
211.241124
20
132.262819
11
212.028000
21
135.749000
0
LINE
8
Layer 1
10
212.028000
20
135.749000
11
212.569334
21
139.158384
0
LINE
8
Layer 1
10
212.569334
20
139.158384
11
212.912623
21
142.419475
0
LINE
8
Layer 1
10
212.912623
20
142.419475
11
213.065607
21
145.534901
0
LINE
8
Layer 1
10
213.065607
20
145.534901
11
213.036029
21
148.507287
0
LINE
8
Layer 1
10
213.036029
20
148.507287
11
212.831630
21
151.339262
0
LINE
8
Layer 1
10
212.831630
20
151.339262
11
212.460152
21
154.033451
0
LINE
8
Layer 1
10
212.460152
20
154.033451
11
211.929335
21
156.592483
0
LINE
8
Layer 1
10
211.929335
20
156.592483
11
211.246922
21
159.018984
0
LINE
8
Layer 1
10
211.246922
20
159.018984
11
210.420654
21
161.315582
0
LINE
8
Layer 1
10
210.420654
20
161.315582
11
209.458272
21
163.484902
0
LINE
8
Layer 1
10
209.458272
20
163.484902
11
208.367519
21
165.529573
0
LINE
8
Layer 1
10
208.367519
20
165.529573
11
207.156135
21
167.452221
0
LINE
8
Layer 1
10
207.156135
20
167.452221
11
205.831862
21
169.255473
0
LINE
8
Layer 1
10
205.831862
20
169.255473
11
204.402442
21
170.941956
0
LINE
8
Layer 1
10
204.402442
20
170.941956
11
201.259125
21
173.975125
0
LINE
8
Layer 1
10
201.259125
20
173.975125
11
197.788117
21
176.572743
0
LINE
8
Layer 1
10
197.788117
20
176.572743
11
194.051350
21
178.755826
0
LINE
8
Layer 1
10
194.051350
20
178.755826
11
190.110755
21
180.545391
0
LINE
8
Layer 1
10
190.110755
20
180.545391
11
186.028266
21
181.962453
0
LINE
8
Layer 1
10
186.028266
20
181.962453
11
181.865813
21
183.028029
0
LINE
8
Layer 1
10
181.865813
20
183.028029
11
177.685330
21
183.763135
0
LINE
8
Layer 1
10
177.685330
20
183.763135
11
173.548748
21
184.188786
0
LINE
8
Layer 1
10
173.548748
20
184.188786
11
169.518000
21
184.326000
0
LINE
8
Layer 1
10
169.518000
20
184.326000
11
165.562671
21
184.059061
0
LINE
8
Layer 1
10
165.562671
20
184.059061
11
161.631898
21
183.291016
0
LINE
8
Layer 1
10
161.631898
20
183.291016
11
157.757505
21
182.071025
0
LINE
8
Layer 1
10
157.757505
20
182.071025
11
153.971313
21
180.448250
0
LINE
8
Layer 1
10
153.971313
20
180.448250
11
150.305144
21
178.471850
0
LINE
8
Layer 1
10
150.305144
20
178.471850
11
146.790820
21
176.190984
0
LINE
8
Layer 1
10
146.790820
20
176.190984
11
143.460165
21
173.654814
0
LINE
8
Layer 1
10
143.460165
20
173.654814
11
140.345000
21
170.912500
0
LINE
8
Layer 1
10
140.345000
20
170.912500
11
137.477147
21
168.013201
0
LINE
8
Layer 1
10
137.477147
20
168.013201
11
134.888430
21
165.006078
0
LINE
8
Layer 1
10
134.888430
20
165.006078
11
132.610669
21
161.940291
0
LINE
8
Layer 1
10
132.610669
20
161.940291
11
130.675687
21
158.865000
0
LINE
8
Layer 1
10
130.675687
20
158.865000
11
129.115308
21
155.829365
0
LINE
8
Layer 1
10
129.115308
20
155.829365
11
127.961352
21
152.882547
0
LINE
8
Layer 1
10
127.961352
20
152.882547
11
127.245642
21
150.073705
0
LINE
8
Layer 1
10
127.245642
20
150.073705
11
127.000000
21
147.452000
0
LINE
8
Layer 1
10
127.000000
20
147.452000
11
126.754358
21
150.073705
0
LINE
8
Layer 1
10
126.754358
20
150.073705
11
126.038647
21
152.882547
0
LINE
8
Layer 1
10
126.038647
20
152.882547
11
124.884688
21
155.829365
0
LINE
8
Layer 1
10
124.884688
20
155.829365
11
123.324303
21
158.865000
0
LINE
8
Layer 1
10
123.324303
20
158.865000
11
121.389313
21
161.940291
0
LINE
8
Layer 1
10
121.389313
20
161.940291
11
119.111539
21
165.006078
0
LINE
8
Layer 1
10
119.111539
20
165.006078
11
116.522802
21
168.013201
0
LINE
8
Layer 1
10
116.522802
20
168.013201
11
113.654925
21
170.912500
0
LINE
8
Layer 1
10
113.654925
20
170.912500
11
110.539728
21
173.654814
0
LINE
8
Layer 1
10
110.539728
20
173.654814
11
107.209033
21
176.190984
0
LINE
8
Layer 1
10
107.209033
20
176.190984
11
103.694661
21
178.471850
0
LINE
8
Layer 1
10
103.694661
20
178.471850
11
100.028434
21
180.448250
0
LINE
8
Layer 1
10
100.028434
20
180.448250
11
96.242173
21
182.071025
0
LINE
8
Layer 1
10
96.242173
20
182.071025
11
92.367700
21
183.291016
0
LINE
8
Layer 1
10
92.367700
20
183.291016
11
88.436835
21
184.059061
0
LINE
8
Layer 1
10
88.436835
20
184.059061
11
84.481400
21
184.326000
0
LINE
8
Layer 1
10
84.481400
20
184.326000
11
84.481400
21
184.326000
0
LINE
8
Layer 2
10
244.916000
20
174.202000
11
220.151000
21
159.914500
0
LINE
8
Layer 2
10
220.151000
20
159.914500
11
221.438438
21
156.016771
0
LINE
8
Layer 2
10
221.438438
20
156.016771
11
222.566688
21
152.049883
0
LINE
8
Layer 2
10
222.566688
20
152.049883
11
223.531906
21
148.017476
0
LINE
8
Layer 2
10
223.531906
20
148.017476
11
224.330250
21
143.923188
0
LINE
8
Layer 2
10
224.330250
20
143.923188
11
224.957875
21
139.770657
0
LINE
8
Layer 2
10
224.957875
20
139.770657
11
225.410937
21
135.563523
0
LINE
8
Layer 2
10
225.410937
20
135.563523
11
225.685594
21
131.305425
0
LINE
8
Layer 2
10
225.685594
20
131.305425
11
225.778000
21
127.000000
0
LINE
8
Layer 2
10
225.778000
20
127.000000
11
225.670910
21
122.363526
0
LINE
8
Layer 2
10
225.670910
20
122.363526
11
225.352791
21
117.781957
0
LINE
8
Layer 2
10
225.352791
20
117.781957
11
224.828365
21
113.260009
0
LINE
8
Layer 2
10
224.828365
20
113.260009
11
224.102357
21
108.802394
0
LINE
8
Layer 2
10
224.102357
20
108.802394
11
223.179492
21
104.413825
0
LINE
8
Layer 2
10
223.179492
20
104.413825
11
222.064491
21
100.099017
0
LINE
8
Layer 2
10
222.064491
20
100.099017
11
220.762081
21
95.862683
0
LINE
8
Layer 2
10
220.762081
20
95.862683
11
219.276984
21
91.709536
0
LINE
8
Layer 2
10
219.276984
20
91.709536
11
217.613925
21
87.644290
0
LINE
8
Layer 2
10
217.613925
20
87.644290
11
215.777628
21
83.671659
0
LINE
8
Layer 2
10
215.777628
20
83.671659
11
213.772816
21
79.796356
0
LINE
8
Layer 2
10
213.772816
20
79.796356
11
211.604213
21
76.023095
0
LINE
8
Layer 2
10
211.604213
20
76.023095
11
209.276544
21
72.356589
0
LINE
8
Layer 2
10
209.276544
20
72.356589
11
206.794531
21
68.801551
0
LINE
8
Layer 2
10
206.794531
20
68.801551
11
204.162901
21
65.362696
0
LINE
8
Layer 2
10
204.162901
20
65.362696
11
201.386375
21
62.044738
0
LINE
8
Layer 2
10
201.386375
20
62.044738
11
198.469678
21
58.852388
0
LINE
8
Layer 2
10
198.469678
20
58.852388
11
195.417535
21
55.790361
0
LINE
8
Layer 2
10
195.417535
20
55.790361
11
192.234668
21
52.863372
0
LINE
8
Layer 2
10
192.234668
20
52.863372
11
188.925803
21
50.076132
0
LINE
8
Layer 2
10
188.925803
20
50.076132
11
185.495662
21
47.433356
0
LINE
8
Layer 2
10
185.495662
20
47.433356
11
181.948970
21
44.939757
0
LINE
8
Layer 2
10
181.948970
20
44.939757
11
178.290451
21
42.600049
0
LINE
8
Layer 2
10
178.290451
20
42.600049
11
174.524828
21
40.418945
0
LINE
8
Layer 2
10
174.524828
20
40.418945
11
170.656826
21
38.401160
0
LINE
8
Layer 2
10
170.656826
20
38.401160
11
166.691169
21
36.551405
0
LINE
8
Layer 2
10
166.691169
20
36.551405
11
162.632580
21
34.874396
0
LINE
8
Layer 2
10
162.632580
20
34.874396
11
158.485783
21
33.374846
0
LINE
8
Layer 2
10
158.485783
20
33.374846
11
154.255503
21
32.057467
0
LINE
8
Layer 2
10
154.255503
20
32.057467
11
149.946463
21
30.926974
0
LINE
8
Layer 2
10
149.946463
20
30.926974
11
145.563387
21
29.988081
0
LINE
8
Layer 2
10
145.563387
20
29.988081
11
141.111000
21
29.245500
0
LINE
8
Layer 2
10
141.111000
20
29.245500
11
141.111000
21
0.776311
0
LINE
8
Layer 2
10
141.111000
20
0.776311
11
147.019244
21
1.571075
0
LINE
8
Layer 2
10
147.019244
20
1.571075
11
152.838660
21
2.633804
0
LINE
8
Layer 2
10
152.838660
20
2.633804
11
158.562772
21
3.958021
0
LINE
8
Layer 2
10
158.562772
20
3.958021
11
164.185105
21
5.537252
0
LINE
8
Layer 2
10
164.185105
20
5.537252
11
169.699186
21
7.365020
0
LINE
8
Layer 2
10
169.699186
20
7.365020
11
175.098538
21
9.434850
0
LINE
8
Layer 2
10
175.098538
20
9.434850
11
180.376686
21
11.740266
0
LINE
8
Layer 2
10
180.376686
20
11.740266
11
185.527156
21
14.274792
0
LINE
8
Layer 2
10
185.527156
20
14.274792
11
190.543473
21
17.031954
0
LINE
8
Layer 2
10
190.543473
20
17.031954
11
195.419162
21
20.005275
0
LINE
8
Layer 2
10
195.419162
20
20.005275
11
200.147747
21
23.188280
0
LINE
8
Layer 2
10
200.147747
20
23.188280
11
204.722754
21
26.574492
0
LINE
8
Layer 2
10
204.722754
20
26.574492
11
209.137708
21
30.157438
0
LINE
8
Layer 2
10
209.137708
20
30.157438
11
213.386133
21
33.930640
0
LINE
8
Layer 2
10
213.386133
20
33.930640
11
217.461556
21
37.887623
0
LINE
8
Layer 2
10
217.461556
20
37.887623
11
221.357500
21
42.021913
0
LINE
8
Layer 2
10
221.357500
20
42.021913
11
225.067491
21
46.327032
0
LINE
8
Layer 2
10
225.067491
20
46.327032
11
228.585054
21
50.796505
0
LINE
8
Layer 2
10
228.585054
20
50.796505
11
231.903714
21
55.423858
0
LINE
8
Layer 2
10
231.903714
20
55.423858
11
235.016996
21
60.202613
0
LINE
8
Layer 2
10
235.016996
20
60.202613
11
237.918425
21
65.126296
0
LINE
8
Layer 2
10
237.918425
20
65.126296
11
240.601526
21
70.188431
0
LINE
8
Layer 2
10
240.601526
20
70.188431
11
243.059824
21
75.382542
0
LINE
8
Layer 2
10
243.059824
20
75.382542
11
245.286844
21
80.702154
0
LINE
8
Layer 2
10
245.286844
20
80.702154
11
247.276111
21
86.140791
0
LINE
8
Layer 2
10
247.276111
20
86.140791
11
249.021150
21
91.691978
0
LINE
8
Layer 2
10
249.021150
20
91.691978
11
250.515486
21
97.349238
0
LINE
8
Layer 2
10
250.515486
20
97.349238
11
251.752645
21
103.106097
0
LINE
8
Layer 2
10
251.752645
20
103.106097
11
252.726150
21
108.956078
0
LINE
8
Layer 2
10
252.726150
20
108.956078
11
253.429528
21
114.892706
0
LINE
8
Layer 2
10
253.429528
20
114.892706
11
253.856303
21
120.909505
0
LINE
8
Layer 2
10
253.856303
20
120.909505
11
254.000000
21
127.000000
0
LINE
8
Layer 2
10
254.000000
20
127.000000
11
253.849736
21
133.218244
0
LINE
8
Layer 2
10
253.849736
20
133.218244
11
253.403703
21
139.359203
0
LINE
8
Layer 2
10
253.403703
20
139.359203
11
252.669037
21
145.416092
0
LINE
8
Layer 2
10
252.669037
20
145.416092
11
251.652875
21
151.382125
0
LINE
8
Layer 2
10
251.652875
20
151.382125
11
250.362354
21
157.250518
0
LINE
8
Layer 2
10
250.362354
20
157.250518
11
248.804609
21
163.014484
0
LINE
8
Layer 2
10
248.804609
20
163.014484
11
246.986779
21
168.667240
0
LINE
8
Layer 2
10
246.986779
20
168.667240
11
244.916000
21
174.202000
0
LINE
8
Layer 2
10
244.916000
20
174.202000
11
244.916000
21
174.202000
0
LINE
8
Layer 3
10
127.000000
20
254.000000
11
118.935907
21
253.747708
0
LINE
8
Layer 3
10
118.935907
20
253.747708
11
111.005302
21
253.000910
0
LINE
8
Layer 3
10
111.005302
20
253.000910
11
103.223294
21
251.774728
0
LINE
8
Layer 3
10
103.223294
20
251.774728
11
95.604992
21
250.084281
0
LINE
8
Layer 3
10
95.604992
20
250.084281
11
88.165506
21
247.944690
0
LINE
8
Layer 3
10
88.165506
20
247.944690
11
80.919946
21
245.371074
0
LINE
8
Layer 3
10
80.919946
20
245.371074
11
73.883419
21
242.378554
0
LINE
8
Layer 3
10
73.883419
20
242.378554
11
67.071038
21
238.982250
0
LINE
8
Layer 3
10
67.071038
20
238.982250
11
60.497909
21
235.197282
0
LINE
8
Layer 3
10
60.497909
20
235.197282
11
54.179144
21
231.038770
0
LINE
8
Layer 3
10
54.179144
20
231.038770
11
48.129850
21
226.521833
0
LINE
8
Layer 3
10
48.129850
20
226.521833
11
42.365139
21
221.661594
0
LINE
8
Layer 3
10
42.365139
20
221.661594
11
36.900119
21
216.473170
0
LINE
8
Layer 3
10
36.900119
20
216.473170
11
31.749899
21
210.971684
0
LINE
8
Layer 3
10
31.749899
20
210.971684
11
26.929590
21
205.172253
0
LINE
8
Layer 3
10
26.929590
20
205.172253
11
22.454300
21
199.090000
0
LINE
8
Layer 3
10
22.454300
20
199.090000
11
47.007600
21
184.908300
0
LINE
8
Layer 3
10
47.007600
20
184.908300
11
50.503536
21
189.446405
0
LINE
8
Layer 3
10
50.503536
20
189.446405
11
54.250740
21
193.771152
0
LINE
8
Layer 3
10
54.250740
20
193.771152
11
58.238328
21
197.871582
0
LINE
8
Layer 3
10
58.238328
20
197.871582
11
62.455417
21
201.736736
0
LINE
8
Layer 3
10
62.455417
20
201.736736
11
66.891123
21
205.355655
0
LINE
8
Layer 3
10
66.891123
20
205.355655
11
71.534563
21
208.717380
0
LINE
8
Layer 3
10
71.534563
20
208.717380
11
76.374854
21
211.810952
0
LINE
8
Layer 3
10
76.374854
20
211.810952
11
81.401112
21
214.625412
0
LINE
8
Layer 3
10
81.401112
20
214.625412
11
86.602455
21
217.149802
0
LINE
8
Layer 3
10
86.602455
20
217.149802
11
91.967997
21
219.373162
0
LINE
8
Layer 3
10
91.967997
20
219.373162
11
97.486858
21
221.284534
0
LINE
8
Layer 3
10
97.486858
20
221.284534
11
103.148152
21
222.872958
0
LINE
8
Layer 3
10
103.148152
20
222.872958
11
108.940996
21
224.127475
0
LINE
8
Layer 3
10
108.940996
20
224.127475
11
114.854508
21
225.037128
0
LINE
8
Layer 3
10
114.854508
20
225.037128
11
120.877804
21
225.590955
0
LINE
8
Layer 3
10
120.877804
20
225.590955
11
127.000000
21
225.778000
0
LINE
8
Layer 3
10
127.000000
20
225.778000
11
133.122179
21
225.590963
0
LINE
8
Layer 3
10
133.122179
20
225.590963
11
139.145459
21
225.037157
0
LINE
8
Layer 3
10
139.145459
20
225.037157
11
145.058957
21
224.127538
0
LINE
8
Layer 3
10
145.058957
20
224.127538
11
150.851791
21
222.873063
0
LINE
8
Layer 3
10
150.851791
20
222.873063
11
156.513075
21
221.284687
0
LINE
8
Layer 3
10
156.513075
20
221.284687
11
162.031927
21
219.373368
0
LINE
8
Layer 3
10
162.031927
20
219.373368
11
167.397463
21
217.150062
0
LINE
8
Layer 3
10
167.397463
20
217.150062
11
172.598800
21
214.625725
0
LINE
8
Layer 3
10
172.598800
20
214.625725
11
177.625054
21
211.811314
0
LINE
8
Layer 3
10
177.625054
20
211.811314
11
182.465342
21
208.717785
0
LINE
8
Layer 3
10
182.465342
20
208.717785
11
187.108780
21
205.356095
0
LINE
8
Layer 3
10
187.108780
20
205.356095
11
191.544484
21
201.737200
0
LINE
8
Layer 3
10
191.544484
20
201.737200
11
195.761572
21
197.872057
0
LINE
8
Layer 3
10
195.761572
20
197.872057
11
199.749160
21
193.771621
0
LINE
8
Layer 3
10
199.749160
20
193.771621
11
203.496364
21
189.446850
0
LINE
8
Layer 3
10
203.496364
20
189.446850
11
206.992300
21
184.908700
0
LINE
8
Layer 3
10
206.992300
20
184.908700
11
231.545600
21
199.090400
0
LINE
8
Layer 3
10
231.545600
20
199.090400
11
227.070255
21
205.172583
0
LINE
8
Layer 3
10
227.070255
20
205.172583
11
222.249894
21
210.971952
0
LINE
8
Layer 3
10
222.249894
20
210.971952
11
217.099627
21
216.473385
0
LINE
8
Layer 3
10
217.099627
20
216.473385
11
211.634566
21
221.661763
0
LINE
8
Layer 3
10
211.634566
20
221.661763
11
205.869819
21
226.521963
0
LINE
8
Layer 3
10
205.869819
20
226.521963
11
199.820498
21
231.038867
0
LINE
8
Layer 3
10
199.820498
20
231.038867
11
193.501713
21
235.197353
0
LINE
8
Layer 3
10
193.501713
20
235.197353
11
186.928575
21
238.982300
0
LINE
8
Layer 3
10
186.928575
20
238.982300
11
180.116194
21
242.378588
0
LINE
8
Layer 3
10
180.116194
20
242.378588
11
173.079680
21
245.371095
0
LINE
8
Layer 3
10
173.079680
20
245.371095
11
165.834144
21
247.944702
0
LINE
8
Layer 3
10
165.834144
20
247.944702
11
158.394697
21
250.084287
0
LINE
8
Layer 3
10
158.394697
20
250.084287
11
150.776448
21
251.774731
0
LINE
8
Layer 3
10
150.776448
20
251.774731
11
142.994509
21
253.000911
0
LINE
8
Layer 3
10
142.994509
20
253.000911
11
135.063989
21
253.747708
0
LINE
8
Layer 3
10
135.063989
20
253.747708
11
127.000000
21
254.000000
0
LINE
8
Layer 3
10
127.000000
20
254.000000
11
127.000000
21
254.000000
0
LINE
8
Layer 4
10
9.084020
20
174.202000
11
7.013231
21
168.667240
0
LINE
8
Layer 4
10
7.013231
20
168.667240
11
5.195395
21
163.014484
0
LINE
8
Layer 4
10
5.195395
20
163.014484
11
3.637647
21
157.250518
0
LINE
8
Layer 4
10
3.637647
20
157.250518
11
2.347124
21
151.382125
0
LINE
8
Layer 4
10
2.347124
20
151.382125
11
1.330961
21
145.416092
0
LINE
8
Layer 4
10
1.330961
20
145.416092
11
0.596296
21
139.359203
0
LINE
8
Layer 4
10
0.596296
20
139.359203
11
0.150263
21
133.218244
0
LINE
8
Layer 4
10
0.150263
20
133.218244
11
0.000000
21
127.000000
0
LINE
8
Layer 4
10
0.000000
20
127.000000
11
0.143696
21
120.909505
0
LINE
8
Layer 4
10
0.143696
20
120.909505
11
0.570466
21
114.892706
0
LINE
8
Layer 4
10
0.570466
20
114.892706
11
1.273836
21
108.956078
0
LINE
8
Layer 4
10
1.273836
20
108.956078
11
2.247331
21
103.106097
0
LINE
8
Layer 4
10
2.247331
20
103.106097
11
3.484477
21
97.349238
0
LINE
8
Layer 4
10
3.484477
20
97.349238
11
4.978799
21
91.691978
0
LINE
8
Layer 4
10
4.978799
20
91.691978
11
6.723822
21
86.140791
0
LINE
8
Layer 4
10
6.723822
20
86.140791
11
8.713072
21
80.702154
0
LINE
8
Layer 4
10
8.713072
20
80.702154
11
10.940074
21
75.382542
0
LINE
8
Layer 4
10
10.940074
20
75.382542
11
13.398353
21
70.188431
0
LINE
8
Layer 4
10
13.398353
20
70.188431
11
16.081435
21
65.126296
0
LINE
8
Layer 4
10
16.081435
20
65.126296
11
18.982846
21
60.202613
0
LINE
8
Layer 4
10
18.982846
20
60.202613
11
22.096109
21
55.423858
0
LINE
8
Layer 4
10
22.096109
20
55.423858
11
25.414752
21
50.796505
0
LINE
8
Layer 4
10
25.414752
20
50.796505
11
28.932299
21
46.327032
0
LINE
8
Layer 4
10
28.932299
20
46.327032
11
32.642275
21
42.021913
0
LINE
8
Layer 4
10
32.642275
20
42.021913
11
36.538206
21
37.887623
0
LINE
8
Layer 4
10
36.538206
20
37.887623
11
40.613618
21
33.930640
0
LINE
8
Layer 4
10
40.613618
20
33.930640
11
44.862035
21
30.157438
0
LINE
8
Layer 4
10
44.862035
20
30.157438
11
49.276982
21
26.574492
0
LINE
8
Layer 4
10
49.276982
20
26.574492
11
53.851987
21
23.188280
0
LINE
8
Layer 4
10
53.851987
20
23.188280
11
58.580573
21
20.005275
0
LINE
8
Layer 4
10
58.580573
20
20.005275
11
63.456265
21
17.031954
0
LINE
8
Layer 4
10
63.456265
20
17.031954
11
68.472591
21
14.274792
0
LINE
8
Layer 4
10
68.472591
20
14.274792
11
73.623074
21
11.740266
0
LINE
8
Layer 4
10
73.623074
20
11.740266
11
78.901240
21
9.434850
0
LINE
8
Layer 4
10
78.901240
20
9.434850
11
84.300614
21
7.365020
0
LINE
8
Layer 4
10
84.300614
20
7.365020
11
89.814722
21
5.537252
0
LINE
8
Layer 4
10
89.814722
20
5.537252
11
95.437090
21
3.958021
0
LINE
8
Layer 4
10
95.437090
20
3.958021
11
101.161241
21
2.633804
0
LINE
8
Layer 4
10
101.161241
20
2.633804
11
106.980703
21
1.571075
0
LINE
8
Layer 4
10
106.980703
20
1.571075
11
112.889000
21
0.776311
0
LINE
8
Layer 4
10
112.889000
20
0.776311
11
112.889000
21
29.245500
0
LINE
8
Layer 4
10
112.889000
20
29.245500
11
108.436604
21
29.988081
0
LINE
8
Layer 4
10
108.436604
20
29.988081
11
104.053523
21
30.926974
0
LINE
8
Layer 4
10
104.053523
20
30.926974
11
99.744479
21
32.057467
0
LINE
8
Layer 4
10
99.744479
20
32.057467
11
95.514197
21
33.374846
0
LINE
8
Layer 4
10
95.514197
20
33.374846
11
91.367400
21
34.874396
0
LINE
8
Layer 4
10
91.367400
20
34.874396
11
87.308813
21
36.551405
0
LINE
8
Layer 4
10
87.308813
20
36.551405
11
83.343158
21
38.401160
0
LINE
8
Layer 4
10
83.343158
20
38.401160
11
79.475161
21
40.418945
0
LINE
8
Layer 4
10
79.475161
20
40.418945
11
75.709544
21
42.600049
0
LINE
8
Layer 4
10
75.709544
20
42.600049
11
72.051032
21
44.939757
0
LINE
8
Layer 4
10
72.051032
20
44.939757
11
68.504348
21
47.433356
0
LINE
8
Layer 4
10
68.504348
20
47.433356
11
65.074217
21
50.076132
0
LINE
8
Layer 4
10
65.074217
20
50.076132
11
61.765361
21
52.863372
0
LINE
8
Layer 4
10
61.765361
20
52.863372
11
58.582505
21
55.790361
0
LINE
8
Layer 4
10
58.582505
20
55.790361
11
55.530373
21
58.852388
0
LINE
8
Layer 4
10
55.530373
20
58.852388
11
52.613687
21
62.044738
0
LINE
8
Layer 4
10
52.613687
20
62.044738
11
49.837174
21
65.362696
0
LINE
8
Layer 4
10
49.837174
20
65.362696
11
47.205555
21
68.801551
0
LINE
8
Layer 4
10
47.205555
20
68.801551
11
44.723555
21
72.356589
0
LINE
8
Layer 4
10
44.723555
20
72.356589
11
42.395897
21
76.023095
0
LINE
8
Layer 4
10
42.395897
20
76.023095
11
40.227307
21
79.796356
0
LINE
8
Layer 4
10
40.227307
20
79.796356
11
38.222506
21
83.671659
0
LINE
8
Layer 4
10
38.222506
20
83.671659
11
36.386219
21
87.644290
0
LINE
8
Layer 4
10
36.386219
20
87.644290
11
34.723170
21
91.709536
0
LINE
8
Layer 4
10
34.723170
20
91.709536
11
33.238083
21
95.862683
0
LINE
8
Layer 4
10
33.238083
20
95.862683
11
31.935682
21
100.099017
0
LINE
8
Layer 4
10
31.935682
20
100.099017
11
30.820689
21
104.413825
0
LINE
8
Layer 4
10
30.820689
20
104.413825
11
29.897830
21
108.802394
0
LINE
8
Layer 4
10
29.897830
20
108.802394
11
29.171828
21
113.260009
0
LINE
8
Layer 4
10
29.171828
20
113.260009
11
28.647406
21
117.781957
0
LINE
8
Layer 4
10
28.647406
20
117.781957
11
28.329289
21
122.363526
0
LINE
8
Layer 4
10
28.329289
20
122.363526
11
28.222200
21
127.000000
0
LINE
8
Layer 4
10
28.222200
20
127.000000
11
28.314573
21
131.305289
0
LINE
8
Layer 4
10
28.314573
20
131.305289
11
28.589145
21
135.563334
0
LINE
8
Layer 4
10
28.589145
20
135.563334
11
29.042101
21
139.770469
0
LINE
8
Layer 4
10
29.042101
20
139.770469
11
29.669621
21
143.923025
0
LINE
8
Layer 4
10
29.669621
20
143.923025
11
30.467889
21
148.017334
0
LINE
8
Layer 4
10
30.467889
20
148.017334
11
31.433086
21
152.049728
0
LINE
8
Layer 4
10
31.433086
20
152.049728
11
32.561396
21
156.016539
0
LINE
8
Layer 4
10
32.561396
20
156.016539
11
33.849000
21
159.914100
0
LINE
8
Layer 4
10
33.849000
20
159.914100
11
9.084020
21
174.202000
 0 
ENDSEC
 0 
EOF