<?xml version="1.0" encoding="UTF-8" standalone="no"?>
<svg
   height="300px"
   width="300px"
   fill="#000000"
   version="1.1"
   x="0px"
   y="0px"
   viewBox="7.5 7.5 50 50"
   enable-background="new 7.5 7.5 50 50"
   xml:space="preserve"
   id="svg2750"
   sodipodi:docname="churn.svg"
   inkscape:version="1.1.1 (3bf5ae0d25, 2021-09-20)"
   inkscape:export-filename="C:\Users\Jacek Pardyak\Documents\vps\img\churn.png"
   inkscape:export-xdpi="191.67999"
   inkscape:export-ydpi="191.67999"
   xmlns:inkscape="http://www.inkscape.org/namespaces/inkscape"
   xmlns:sodipodi="http://sodipodi.sourceforge.net/DTD/sodipodi-0.dtd"
   xmlns="http://www.w3.org/2000/svg"
   xmlns:svg="http://www.w3.org/2000/svg"><defs
     id="defs2754" /><sodipodi:namedview
     id="namedview2752"
     pagecolor="#ffffff"
     bordercolor="#666666"
     borderopacity="1.0"
     inkscape:pageshadow="2"
     inkscape:pageopacity="0.0"
     inkscape:pagecheckerboard="0"
     showgrid="false"
     inkscape:zoom="1.5733333"
     inkscape:cx="24.47034"
     inkscape:cy="99.152544"
     inkscape:window-width="1720"
     inkscape:window-height="658"
     inkscape:window-x="-6"
     inkscape:window-y="-6"
     inkscape:window-maximized="1"
     inkscape:current-layer="svg2750" /><path
     d="M43.339,32.18v-1.485c0-2.958-2.746-3.604-5.401-4.228c-0.26-0.061-0.521-0.123-0.779-0.187l-2.572,5.691  c-0.006,0.013-0.019,0.018-0.025,0.029c-0.019,0.034-0.032,0.069-0.059,0.099c-0.021,0.024-0.05,0.035-0.074,0.054  c-0.021,0.015-0.037,0.03-0.06,0.042c-0.075,0.042-0.154,0.069-0.238,0.069c-0.065,0-0.13-0.016-0.191-0.041  c-0.005-0.002-0.01-0.001-0.015-0.003c-0.021-0.009-0.035-0.027-0.054-0.039c-0.024-0.016-0.052-0.025-0.074-0.045l-0.679-0.611  l-1.917,1.868l1.299,5.864c0.003,0.014-0.001,0.027,0.001,0.041c0.004,0.034,0.004,0.067,0.001,0.102  c-0.002,0.031-0.005,0.062-0.013,0.092s-0.021,0.058-0.035,0.087c-0.015,0.031-0.03,0.06-0.051,0.087  c-0.008,0.011-0.011,0.024-0.021,0.035l-2.33,2.585c-0.099,0.109-0.235,0.165-0.372,0.165c-0.017,0-0.033-0.008-0.051-0.009  c-0.017,0.001-0.033,0.009-0.05,0.009c-0.137,0-0.273-0.056-0.372-0.165l-2.329-2.585c-0.009-0.011-0.012-0.024-0.021-0.035  c-0.021-0.027-0.037-0.056-0.052-0.087c-0.014-0.029-0.026-0.057-0.034-0.086c-0.008-0.03-0.011-0.061-0.013-0.093  c-0.002-0.034-0.003-0.067,0.002-0.102c0.001-0.014-0.002-0.026,0-0.04l1.296-5.865l-1.915-1.867l-0.677,0.61  c-0.023,0.021-0.051,0.031-0.077,0.047c-0.019,0.011-0.032,0.028-0.052,0.037c-0.005,0.002-0.01,0.001-0.015,0.003  c-0.061,0.025-0.124,0.04-0.188,0.041c-0.001,0-0.001,0-0.002,0l0,0c0,0,0,0,0,0c-0.083,0-0.164-0.028-0.238-0.069  c-0.022-0.012-0.039-0.027-0.059-0.042c-0.024-0.019-0.053-0.03-0.074-0.054c-0.027-0.03-0.04-0.065-0.059-0.099  c-0.006-0.012-0.02-0.017-0.025-0.029l-2.525-5.581c-0.107,0.025-0.214,0.052-0.321,0.077c-2.656,0.624-5.402,1.269-5.402,4.228  v11.143c0,1.245,1.012,2.259,2.257,2.259h13.561C32.495,37.901,37.26,32.852,43.339,32.18z"
     id="path2728"
     style="fill:#112744;fill-opacity:1" /><path
     d="M29.885,24.855C29.885,24.855,29.885,24.855,29.885,24.855c0.001,0,0.001,0,0.002,0c2.479,0,5.625-2.65,5.625-5.628v-2.144  c0-0.664-0.121-1.299-0.334-1.891c-4.095-0.048-6.13-0.917-7.06-1.998c-0.519,1.463-1.743,2.237-3.636,2.331  c-0.143,0.496-0.224,1.017-0.224,1.558v2.144C24.257,22.206,27.404,24.855,29.885,24.855z M31.846,22.66  c-0.642,0.165-1.302,0.248-1.961,0.248c-0.66,0-1.319-0.083-1.959-0.249c-0.268-0.069-0.428-0.342-0.359-0.609  c0.069-0.268,0.342-0.43,0.609-0.359c1.117,0.288,2.299,0.289,3.421,0c0.267-0.067,0.54,0.093,0.609,0.36  S32.114,22.591,31.846,22.66z M33.619,19.362h-1.002c-0.276,0-0.5-0.224-0.5-0.5s0.224-0.5,0.5-0.5h1.002c0.276,0,0.5,0.224,0.5,0.5  S33.896,19.362,33.619,19.362z M31.439,17.193c0.442-0.442,1.03-0.686,1.654-0.686h0.001c0.624,0,1.212,0.244,1.653,0.687  c0.194,0.195,0.194,0.512-0.001,0.707c-0.195,0.194-0.513,0.195-0.708-0.001c-0.252-0.253-0.588-0.393-0.944-0.393  c-0.001,0-0.001,0-0.001,0c-0.357,0-0.693,0.139-0.946,0.393c-0.098,0.098-0.226,0.146-0.354,0.146s-0.256-0.049-0.354-0.146  C31.245,17.706,31.245,17.389,31.439,17.193z M28.759,20.424l0.602-2.066c0.077-0.265,0.354-0.418,0.62-0.34  c0.265,0.077,0.417,0.354,0.34,0.62l-0.348,1.194l0.417-0.121c0.266-0.076,0.542,0.077,0.619,0.342s-0.076,0.542-0.342,0.619  l-1.291,0.373c-0.046,0.013-0.093,0.02-0.139,0.02s-0.093-0.006-0.14-0.02c-0.051-0.015-0.094-0.042-0.135-0.071  c-0.009-0.006-0.019-0.008-0.028-0.015c-0.077-0.059-0.128-0.14-0.16-0.23c-0.004-0.01-0.015-0.015-0.018-0.026  c-0.004-0.014,0-0.027-0.003-0.041c-0.006-0.032-0.008-0.064-0.008-0.097c0-0.035,0.001-0.068,0.008-0.102  C28.759,20.449,28.755,20.437,28.759,20.424z M25.023,17.9c-0.195-0.195-0.195-0.512,0-0.707c0.442-0.442,1.03-0.686,1.654-0.686h0  c0.625,0,1.211,0.244,1.653,0.687c0.195,0.195,0.195,0.512-0.001,0.707c-0.098,0.097-0.225,0.146-0.353,0.146  s-0.256-0.049-0.354-0.147c-0.253-0.253-0.588-0.393-0.945-0.393c0,0,0,0,0,0c-0.357,0-0.694,0.139-0.947,0.393  C25.535,18.096,25.218,18.096,25.023,17.9z M25.563,18.862c0-0.276,0.224-0.5,0.5-0.5h1.004c0.276,0,0.5,0.224,0.5,0.5  s-0.224,0.5-0.5,0.5h-1.004C25.786,19.362,25.563,19.139,25.563,18.862z"
     id="path2730"
     style="fill:#112744;fill-opacity:1" /><path
     d="M44.72,33.1c-6.339,0-11.496,5.155-11.498,11.493c0,0.001,0.001,0.003,0.001,0.004s-0.001,0.003-0.001,0.004  c0.002,6.338,5.159,11.493,11.498,11.493c6.34,0,11.497-5.157,11.497-11.497S51.06,33.1,44.72,33.1z M54.854,43.688  c-0.093,0-0.186-0.025-0.269-0.078l-2.011-1.28c0.199,0.734,0.312,1.49,0.312,2.268c0,4.79-3.897,8.688-8.688,8.688  s-8.688-3.897-8.688-8.688s3.897-8.688,8.688-8.688c0.276,0,0.5,0.224,0.5,0.5s-0.224,0.5-0.5,0.5c-4.239,0-7.688,3.448-7.688,7.688  s3.448,7.688,7.688,7.688s7.688-3.448,7.688-7.688c0-0.797-0.126-1.57-0.362-2.315l-1.487,2.566  c-0.093,0.16-0.261,0.249-0.433,0.249c-0.086,0-0.172-0.021-0.251-0.067c-0.238-0.139-0.32-0.444-0.182-0.684l2.012-3.471  c0.002-0.003,0.005-0.005,0.007-0.008s0.002-0.007,0.004-0.01c0.008-0.012,0.02-0.018,0.028-0.028  c0.018-0.023,0.036-0.044,0.059-0.064c0.017-0.016,0.03-0.033,0.049-0.047c0.011-0.007,0.023-0.01,0.034-0.017  c0.001,0,0.003-0.001,0.004-0.001c0.013-0.008,0.021-0.021,0.036-0.027c0.013-0.006,0.026-0.005,0.039-0.01  c0.021-0.008,0.041-0.018,0.063-0.022c0.012-0.003,0.024-0.001,0.036-0.002c0.002-0.001,0.004-0.001,0.006-0.001  c0.029-0.004,0.057-0.007,0.086-0.006c0.02,0.001,0.039-0.001,0.059,0.002c0.016,0.003,0.03,0.011,0.046,0.015  c0.029,0.008,0.057,0.018,0.084,0.03c0.015,0.007,0.03,0.007,0.044,0.015c0.003,0.002,0.005,0.005,0.008,0.007  s0.007,0.002,0.01,0.004l3.238,2.062c0.232,0.148,0.302,0.457,0.153,0.69C55.181,43.605,55.02,43.688,54.854,43.688z"
     id="path2732"
     style="fill:#112744;fill-opacity:1" /><path
     d="M29.886,51.111c1.334,0,2.661-0.132,3.959-0.378c-0.95-1.678-1.516-3.595-1.597-5.637H18.687  c-1.796,0-3.257-1.462-3.257-3.259V30.695c0-3.75,3.423-4.555,6.173-5.201c2.139-0.503,3.459-0.896,3.568-1.901  c-1.132-1.18-1.915-2.716-1.915-4.365v-2.144c0-0.761,0.135-1.489,0.373-2.171c0.009-0.03,0.018-0.059,0.032-0.086  c0.678-1.863,2.167-3.336,4.04-3.993c0.014-0.006,0.029-0.01,0.043-0.016c0.673-0.231,1.392-0.362,2.142-0.362  c2.739,0,5.095,1.671,6.103,4.048c0,0.001,0.001,0.002,0.001,0.002c0.336,0.793,0.521,1.664,0.521,2.578v2.144  c0,1.649-0.782,3.185-1.913,4.365c0.108,1.005,1.428,1.399,3.567,1.902c2.75,0.646,6.173,1.451,6.173,5.201v1.424  c0.128-0.004,0.252-0.02,0.381-0.02c2.148,0,4.171,0.545,5.938,1.504c0.203-1.183,0.329-2.386,0.329-3.595  c0-11.636-9.466-21.103-21.102-21.103S8.783,18.373,8.783,30.009S18.25,51.111,29.886,51.111z"
     id="path2734"
     style="fill:#112744;fill-opacity:1" /><path
     d="M24.888,14.507c1.515-0.184,2.292-0.951,2.478-2.448C26.304,12.594,25.435,13.452,24.888,14.507z"
     id="path2736"
     style="fill:#112744;fill-opacity:1" /><path
     d="M28.153,28.732h2.955l3.474-3.457c-0.358-0.25-0.633-0.557-0.804-0.933c-1.188,0.938-2.602,1.513-3.892,1.513  c0,0,0,0-0.001,0s0,0-0.001,0c-1.291,0-2.704-0.574-3.893-1.513c-0.217,0.48-0.602,0.849-1.109,1.133L28.153,28.732z"
     id="path2738"
     style="fill:#112744;fill-opacity:1" /><polygon
     points="31.123,29.732 28.139,29.732 26.89,30.857 28.812,32.73 30.449,32.73 32.372,30.856 "
     id="polygon2740"
     style="fill:#112744;fill-opacity:1" /><path
     d="M29.887,11.456c-0.496,0-0.976,0.071-1.434,0.192c0.37,1.979,3.734,2.46,6.247,2.538  C33.714,12.554,31.928,11.456,29.887,11.456z"
     id="path2742"
     style="fill:#112744;fill-opacity:1" /><path
     d="M25.308,30.937l1.912-1.722l-3.324-3.31c-0.245,0.085-0.497,0.164-0.758,0.235L25.308,30.937z"
     id="path2744"
     style="fill:#112744;fill-opacity:1" /><polygon
     points="30.25,33.73 29.009,33.73 27.795,39.224 29.631,41.261 31.468,39.224 "
     id="polygon2746"
     style="fill:#112744;fill-opacity:1" /><path
     d="M35.506,25.768l-3.464,3.447l1.913,1.722l2.229-4.929C35.948,25.935,35.722,25.855,35.506,25.768z"
     id="path2748"
     style="fill:#112744;fill-opacity:1" /></svg>
